<?xml version="1.0" encoding="utf-8"?>
<!-- Generator: Adobe Illustrator 23.0.2, SVG Export Plug-In . SVG Version: 6.00 Build 0)  -->
<svg version="1.1" xmlns="http://www.w3.org/2000/svg" xmlns:xlink="http://www.w3.org/1999/xlink" x="0px" y="0px"
	 viewBox="0 0 750 1334" style="enable-background:new 0 0 750 1334;" xml:space="preserve">
<style type="text/css">
	.st0{fill:#FFCC99;}
	.st1{fill:#CCCCFF;}
	.st2{fill:#D7D7FF;}
	.st3{fill:#E1E1FF;}
	.st4{fill:#EBEBFF;}
	.st5{fill:#F5F5FF;}
	.st6{fill:#FFCC66;stroke:#FBDD3B;stroke-width:2;stroke-miterlimit:10;}
	.st7{fill:#FFEE96;stroke:#FBDD3B;stroke-width:2;stroke-miterlimit:10;}
	.st8{fill:#FFF4CD;stroke:#FBDD3B;stroke-width:2;stroke-miterlimit:10;}
	.st9{fill:#FFCC66;}
	.st10{fill:none;stroke:#FFCC66;stroke-width:6;stroke-miterlimit:10;}
	.st11{fill:none;stroke:#FFF4CD;stroke-width:6;stroke-miterlimit:10;}
	.st12{opacity:0.49;}
	.st13{fill:#CC99FF;stroke:#CC99FF;stroke-width:2;stroke-miterlimit:10;}
	.st14{fill:#CC99FF;stroke:#CC99FF;stroke-miterlimit:10;}
	.st15{fill:#CC99FF;stroke:#CC99FF;stroke-width:6;stroke-miterlimit:10;}
	.st16{fill:#FFEE96;stroke:#FFCC66;stroke-width:2;stroke-miterlimit:10;}
	.st17{fill:#9966FF;}
	.st18{fill:#7F47DD;}
	.st19{fill:#FFFFF5;}
	.st20{fill:#ED5E9F;stroke:#ED1E79;stroke-width:2;stroke-miterlimit:10;}
	.st21{fill:#C0145A;stroke:#ED1E79;stroke-width:2;stroke-miterlimit:10;}
	.st22{fill:#FFF4CD;stroke:#ED1E79;stroke-width:2;stroke-miterlimit:10;}
	.st23{fill:#C0145A;stroke:#ED1E79;stroke-miterlimit:10;}
	.st24{fill:none;stroke:#ED1E79;stroke-width:6;stroke-miterlimit:10;}
	.st25{fill:#FF9966;stroke:#FF6633;stroke-width:2;stroke-miterlimit:10;}
	.st26{fill:#CC6633;stroke:#FF6633;stroke-width:2;stroke-miterlimit:10;}
	.st27{fill:#FFF4CD;stroke:#FF6633;stroke-width:2;stroke-miterlimit:10;}
	.st28{fill:#CC6633;stroke:#FF6633;stroke-miterlimit:10;}
	.st29{fill:#FF9966;stroke:#FF6633;stroke-width:6;stroke-miterlimit:10;}
	.st30{fill:none;stroke:#FF6633;stroke-width:6;stroke-miterlimit:10;}
	.st31{opacity:0.4;fill:#FFCCFF;}
	.st32{opacity:0.4;fill:#CC99FF;}
	.st33{opacity:0.4;fill:#9966FF;}
	.st34{opacity:0.4;fill:#7F47DD;}
	.st35{display:none;}
	.st36{display:inline;fill:#FFCCFF;}
	.st37{display:inline;fill:#CC99FF;}
	.st38{display:inline;fill:#9966FF;}
	.st39{display:inline;fill:#CC99FF;stroke:#7F47DD;stroke-width:8;stroke-miterlimit:10;}
	.st40{display:inline;fill:none;stroke:#EBB885;stroke-width:8;stroke-miterlimit:10;}
</style>
<g id="Layer_1">
</g>
<g id="Layer_10" class="st12">
</g>
<g id="Layer_11">
</g>
<g id="Layer_8">
</g>
<g id="Layer_9">
</g>
<g id="x">
	<path class="st19" d="M141.56,1296h481.87c56.96,0,103.56-46.6,103.56-103.56v-24.87c0-56.96-46.6-103.56-103.56-103.56H141.56
		C84.6,1064,38,1110.6,38,1167.56v24.87C38,1249.4,84.6,1296,141.56,1296z"/>
	<g>
		
			<ellipse transform="matrix(0.7632 -0.6461 0.6461 0.7632 -608.3581 608.9019)" class="st25" cx="526.63" cy="1134.52" rx="40.82" ry="33.1"/>
		
			<ellipse transform="matrix(0.6461 -0.7632 0.7632 0.6461 -632.5432 904.7582)" class="st25" cx="659.43" cy="1134.52" rx="33.1" ry="40.82"/>
		
			<ellipse transform="matrix(0.7632 -0.6461 0.6461 0.7632 -608.7291 612.9445)" class="st26" cx="531.96" cy="1137.05" rx="28.43" ry="23.05"/>
		
			<ellipse transform="matrix(0.6461 -0.7632 0.7632 0.6461 -636.2638 901.7886)" class="st26" cx="654.36" cy="1137.05" rx="23.05" ry="28.43"/>
		<ellipse class="st25" cx="593.19" cy="1198.81" rx="84.16" ry="75.19"/>
		
			<ellipse transform="matrix(0.7626 -0.6468 0.6468 0.7626 -641.8616 643.7455)" class="st26" cx="556.19" cy="1196.43" rx="33.84" ry="32.15"/>
		
			<ellipse transform="matrix(0.6468 -0.7626 0.7626 0.6468 -687.0369 903.5235)" class="st26" cx="632.01" cy="1193.55" rx="30.61" ry="32.58"/>
		<ellipse class="st27" cx="593.64" cy="1228.03" rx="43.98" ry="40.29"/>
		<path class="st28" d="M604.94,1225.38L604.94,1225.38c7.96-9.53,1.19-24.02-11.23-24.02h0c-12.42,0-19.19,14.49-11.23,24.02h0
			C588.33,1232.38,599.09,1232.38,604.94,1225.38z"/>
		<line class="st29" x1="593.92" y1="1232.57" x2="593.92" y2="1251.87"/>
		<path class="st30" d="M561,1180.93c-2.14,0.53-8.94,2.48-14.19,9.08c-5.48,6.88-5.69,14.31-5.68,16.46"/>
		<path class="st30" d="M627.4,1182.06c2.14,0.53,8.94,2.48,14.19,9.08c5.48,6.88,5.69,14.31,5.68,16.46"/>
		<line class="st29" x1="584.27" y1="1251.87" x2="604.13" y2="1251.87"/>
	</g>
</g>
<g id="Layer_5">
</g>
<g id="Layer_6">
</g>
<g id="Text" class="st35">
</g>
<g id="Layer_7" class="st35">
</g>
</svg>
