<?xml version="1.0" encoding="utf-8"?>
<!-- Generator: Adobe Illustrator 23.0.2, SVG Export Plug-In . SVG Version: 6.00 Build 0)  -->
<svg version="1.1" xmlns="http://www.w3.org/2000/svg" xmlns:xlink="http://www.w3.org/1999/xlink" x="0px" y="0px"
	 viewBox="0 0 750 1334" style="enable-background:new 0 0 750 1334;" xml:space="preserve">
<style type="text/css">
	.st0{fill:#FFCC99;}
	.st1{fill:#CCCCFF;}
	.st2{fill:#D7D7FF;}
	.st3{fill:#E1E1FF;}
	.st4{fill:#EBEBFF;}
	.st5{fill:#F5F5FF;}
	.st6{fill:#FFCC66;stroke:#FBDD3B;stroke-width:2;stroke-miterlimit:10;}
	.st7{fill:#FFEE96;stroke:#FBDD3B;stroke-width:2;stroke-miterlimit:10;}
	.st8{fill:#FFF4CD;stroke:#FBDD3B;stroke-width:2;stroke-miterlimit:10;}
	.st9{fill:#FFCC66;}
	.st10{fill:none;stroke:#FFCC66;stroke-width:6;stroke-miterlimit:10;}
	.st11{fill:none;stroke:#FFF4CD;stroke-width:6;stroke-miterlimit:10;}
	.st12{opacity:0.49;}
	.st13{fill:#CC99FF;stroke:#CC99FF;stroke-width:2;stroke-miterlimit:10;}
	.st14{fill:#CC99FF;stroke:#CC99FF;stroke-miterlimit:10;}
	.st15{fill:#CC99FF;stroke:#CC99FF;stroke-width:6;stroke-miterlimit:10;}
	.st16{fill:#FFEE96;stroke:#FFCC66;stroke-width:2;stroke-miterlimit:10;}
	.st17{fill:#9966FF;}
	.st18{fill:#7F47DD;}
	.st19{fill:#FFFFF5;}
	.st20{fill:#ED5E9F;stroke:#ED1E79;stroke-width:2;stroke-miterlimit:10;}
	.st21{fill:#C0145A;stroke:#ED1E79;stroke-width:2;stroke-miterlimit:10;}
	.st22{fill:#FFF4CD;stroke:#ED1E79;stroke-width:2;stroke-miterlimit:10;}
	.st23{fill:#C0145A;stroke:#ED1E79;stroke-miterlimit:10;}
	.st24{fill:none;stroke:#ED1E79;stroke-width:6;stroke-miterlimit:10;}
	.st25{fill:#FF9966;stroke:#FF6633;stroke-width:2;stroke-miterlimit:10;}
	.st26{fill:#CC6633;stroke:#FF6633;stroke-width:2;stroke-miterlimit:10;}
	.st27{fill:#FFF4CD;stroke:#FF6633;stroke-width:2;stroke-miterlimit:10;}
	.st28{fill:#CC6633;stroke:#FF6633;stroke-miterlimit:10;}
	.st29{fill:#FF9966;stroke:#FF6633;stroke-width:6;stroke-miterlimit:10;}
	.st30{fill:none;stroke:#FF6633;stroke-width:6;stroke-miterlimit:10;}
	.st31{opacity:0.4;fill:#FFCCFF;}
	.st32{opacity:0.4;fill:#CC99FF;}
	.st33{opacity:0.4;fill:#9966FF;}
	.st34{opacity:0.4;fill:#7F47DD;}
	.st35{display:none;}
	.st36{display:inline;fill:#FFCCFF;}
	.st37{display:inline;fill:#CC99FF;}
	.st38{display:inline;fill:#9966FF;}
	.st39{display:inline;fill:#CC99FF;stroke:#7F47DD;stroke-width:8;stroke-miterlimit:10;}
	.st40{display:inline;fill:none;stroke:#EBB885;stroke-width:8;stroke-miterlimit:10;}
</style>
<g id="Layer_1">
</g>
<g id="Layer_10" class="st12">
</g>
<g id="Layer_11">
</g>
<g id="Layer_8">
</g>
<g id="Layer_9">
</g>
<g id="x">
	<path class="st19" d="M141.56,759h481.87C680.4,759,727,712.4,727,655.44v-24.87C727,573.6,680.4,527,623.44,527H141.56
		C84.6,527,38,573.6,38,630.56v24.87C38,712.4,84.6,759,141.56,759z"/>
	<g>
		
			<ellipse transform="matrix(0.7632 -0.6461 0.6461 0.7632 -259.4455 481.0427)" class="st7" cx="526.63" cy="594.52" rx="40.82" ry="33.1"/>
		
			<ellipse transform="matrix(0.6461 -0.7632 0.7632 0.6461 -220.4024 713.6708)" class="st7" cx="659.43" cy="594.52" rx="33.1" ry="40.82"/>
		
			<ellipse transform="matrix(0.7632 -0.6461 0.6461 0.7632 -261.0085 483.7932)" class="st6" cx="529.6" cy="598.03" rx="29.52" ry="23.94"/>
		
			<ellipse transform="matrix(0.6461 -0.7632 0.7632 0.6461 -224.0364 712.8485)" class="st6" cx="656.72" cy="598.03" rx="23.94" ry="29.52"/>
		<ellipse class="st7" cx="593.19" cy="658.81" rx="84.16" ry="75.19"/>
		
			<ellipse transform="matrix(0.7626 -0.6468 0.6468 0.7626 -292.5765 515.5705)" class="st6" cx="556.19" cy="656.43" rx="33.84" ry="32.15"/>
		
			<ellipse transform="matrix(0.6468 -0.7626 0.7626 0.6468 -277.0916 715.0659)" class="st6" cx="633.5" cy="656.71" rx="31.79" ry="33.84"/>
		<ellipse class="st8" cx="593.64" cy="688.03" rx="43.98" ry="40.29"/>
		<path class="st9" d="M604.94,685.38L604.94,685.38c7.96-9.53,1.19-24.02-11.23-24.02h0c-12.42,0-19.19,14.49-11.23,24.02l0,0
			C588.33,692.38,599.09,692.38,604.94,685.38z"/>
		<line class="st10" x1="593.92" y1="692.57" x2="593.92" y2="711.87"/>
		<path class="st11" d="M561,640.93c-2.14,0.53-8.94,2.49-14.19,9.08c-5.48,6.88-5.69,14.31-5.68,16.46"/>
		<path class="st11" d="M627.4,642.06c2.14,0.53,8.94,2.49,14.19,9.08c5.48,6.88,5.69,14.31,5.68,16.46"/>
		<line class="st10" x1="584.27" y1="711.87" x2="604.13" y2="711.87"/>
	</g>
</g>
<g id="Layer_5">
</g>
<g id="Layer_6">
</g>
<g id="Text" class="st35">
</g>
<g id="Layer_7" class="st35">
	<path class="st40" d="M245,295.8c0,0.04,0,0.08,0,0.12c-0.04,12.81-11.78,23.19-26.25,23.19c-14.47,0-26.21-10.38-26.25-23.19
		c0-0.04,0-0.08,0-0.12c0.09-1.33,0.24-2.79,0.47-4.36c1.47-10.2,7.22-26.67,15.68-38.7c2.77-3.9,8.62-10.26,8.62-10.26
		s2.17-0.79,2.96,0c2.9,2.95,5.84,6.35,8.62,10.26c9.66,13.6,14.21,28.5,15.68,38.7C244.75,293.01,244.91,294.47,245,295.8z"/>
</g>
</svg>
