<?xml version="1.0" encoding="utf-8"?>
<!-- Generator: Adobe Illustrator 23.0.2, SVG Export Plug-In . SVG Version: 6.00 Build 0)  -->
<svg version="1.1" xmlns="http://www.w3.org/2000/svg" xmlns:xlink="http://www.w3.org/1999/xlink" x="0px" y="0px"
	 viewBox="0 0 750 1334" style="enable-background:new 0 0 750 1334;" xml:space="preserve">
<style type="text/css">
	.st0{fill:#FFCC99;}
	.st1{fill:#CCCCFF;}
	.st2{fill:#D7D7FF;}
	.st3{fill:#E1E1FF;}
	.st4{fill:#EBEBFF;}
	.st5{fill:#F5F5FF;}
	.st6{fill:#FFCC66;stroke:#FBDD3B;stroke-width:2;stroke-miterlimit:10;}
	.st7{fill:#FFEE96;stroke:#FBDD3B;stroke-width:2;stroke-miterlimit:10;}
	.st8{fill:#FFF4CD;stroke:#FBDD3B;stroke-width:2;stroke-miterlimit:10;}
	.st9{fill:#FFCC66;}
	.st10{fill:none;stroke:#FFCC66;stroke-width:6;stroke-miterlimit:10;}
	.st11{fill:none;stroke:#FFF4CD;stroke-width:6;stroke-miterlimit:10;}
	.st12{opacity:0.49;}
	.st13{fill:#CC99FF;stroke:#CC99FF;stroke-width:2;stroke-miterlimit:10;}
	.st14{fill:#CC99FF;stroke:#CC99FF;stroke-miterlimit:10;}
	.st15{fill:#CC99FF;stroke:#CC99FF;stroke-width:6;stroke-miterlimit:10;}
	.st16{fill:#FFEE96;stroke:#FFCC66;stroke-width:2;stroke-miterlimit:10;}
	.st17{fill:#9966FF;}
	.st18{fill:#7F47DD;}
	.st19{fill:#FFFFF5;}
	.st20{fill:#ED5E9F;stroke:#ED1E79;stroke-width:2;stroke-miterlimit:10;}
	.st21{fill:#C0145A;stroke:#ED1E79;stroke-width:2;stroke-miterlimit:10;}
	.st22{fill:#FFF4CD;stroke:#ED1E79;stroke-width:2;stroke-miterlimit:10;}
	.st23{fill:#C0145A;stroke:#ED1E79;stroke-miterlimit:10;}
	.st24{fill:none;stroke:#ED1E79;stroke-width:6;stroke-miterlimit:10;}
	.st25{fill:#FF9966;stroke:#FF6633;stroke-width:2;stroke-miterlimit:10;}
	.st26{fill:#CC6633;stroke:#FF6633;stroke-width:2;stroke-miterlimit:10;}
	.st27{fill:#FFF4CD;stroke:#FF6633;stroke-width:2;stroke-miterlimit:10;}
	.st28{fill:#CC6633;stroke:#FF6633;stroke-miterlimit:10;}
	.st29{fill:#FF9966;stroke:#FF6633;stroke-width:6;stroke-miterlimit:10;}
	.st30{fill:none;stroke:#FF6633;stroke-width:6;stroke-miterlimit:10;}
	.st31{opacity:0.4;fill:#FFCCFF;}
	.st32{opacity:0.4;fill:#CC99FF;}
	.st33{opacity:0.4;fill:#9966FF;}
	.st34{opacity:0.4;fill:#7F47DD;}
	.st35{font-family:'ErasITC-Demi';}
	.st36{font-size:89px;}
	.st37{fill:#FFCCFF;}
	.st38{fill:#CC99FF;}
	.st39{fill:#CC99FF;stroke:#7F47DD;stroke-width:8;stroke-miterlimit:10;}
	.st40{fill:none;stroke:#EBB885;stroke-width:8;stroke-miterlimit:10;}
</style>
<g id="Layer_1">
</g>
<g id="Layer_10" class="st12">
</g>
<g id="Layer_11">
</g>
<g id="Layer_8">
	<path class="st18" d="M207.39,734.02c-1.65,0.27-3.37,0.57-5.18,0.88C203.04,734.6,205.42,733.8,207.39,734.02z"/>
	<path class="st18" d="M311.08,816H310v-0.34C310.35,815.78,310.71,815.89,311.08,816z"/>
	<rect x="-1" y="2" class="st3" width="750" height="1332"/>
</g>
<g id="Layer_9">
	<path class="st19" d="M133.56,1018h481.87C672.4,1018,719,971.4,719,914.44V432.56C719,375.6,672.4,329,615.44,329H133.56
		C76.6,329,30,375.6,30,432.56v481.87C30,971.4,76.6,1018,133.56,1018z"/>
</g>
<g id="x">
</g>
<g id="Layer_5">
</g>
<g id="Layer_6">
	<g>
		<path class="st31" d="M645.35,177.84c-0.04,0.03-0.09,0.07-0.13,0.1c-14.79,10.54-34.74,7.96-44.58-5.79s-5.87-33.46,8.88-44.07
			c0.05-0.03,0.09-0.06,0.14-0.09c1.59-1.01,3.38-2.07,5.34-3.15c12.76-7.02,35.65-15.16,55.27-17.05
			c6.39-0.59,17.69-0.28,17.69-0.28s2.39,1.41,2.01,2.81c-1.42,5.19-3.35,10.79-5.96,16.65c-9.1,20.4-23.19,37.02-33.95,46.84
			C648.39,175.31,646.82,176.66,645.35,177.84z"/>
		<path class="st31" d="M625.25,190.59c0.05-0.02,0.1-0.05,0.15-0.08c15.84-8.89,22-28.04,13.76-42.8
			c-8.24-14.76-27.77-19.56-43.65-10.75c-0.05,0.03-0.1,0.06-0.14,0.09c-1.59,1.01-3.31,2.17-5.13,3.49
			c-11.79,8.55-28.9,25.79-38.98,42.74c-3.25,5.53-7.79,15.88-7.79,15.88s0.25,2.77,1.68,3.01c5.3,0.92,11.19,1.57,17.61,1.7
			c22.34,0.46,43.37-5.21,56.84-10.76C621.66,192.27,623.56,191.42,625.25,190.59z"/>
		<path class="st32" d="M656.73,161.25c-0.02,0.05-0.04,0.1-0.06,0.16c-7.32,16.62-28.47,23.43-47.27,15.21
			s-28.16-28.37-20.93-45.03c0.02-0.05,0.05-0.1,0.07-0.15c0.87-1.67,1.9-3.48,3.08-5.39c7.71-12.41,24.52-30.54,42.35-41.37
			c5.82-3.5,17.02-8.43,17.02-8.43s3.27,0.2,3.84,1.68c2.1,5.48,3.98,11.57,5.37,18.22c4.83,23.15,2.27,45.09-1.61,59.18
			C658,157.5,657.37,159.48,656.73,161.25z"/>
		<path class="st32" d="M608.23,192.86c0.06,0.01,0.11,0.01,0.17,0.01c18.16,0.46,33.33-15.77,33.9-36.28s-13.67-37.56-31.82-38.12
			c-0.06,0-0.11,0-0.17,0c-1.88,0.07-3.96,0.23-6.19,0.49c-14.51,1.68-38.08,9.17-55.47,20.69c-5.64,3.78-14.88,11.81-14.88,11.81
			s-1.21,3.05-0.12,4.19c4.06,4.23,8.77,8.53,14.2,12.62c18.89,14.23,39.83,21.26,54.23,23.75
			C604.29,192.4,606.36,192.68,608.23,192.86z"/>
		<path class="st33" d="M591.73,185.36c0.05,0.03,0.09,0.06,0.14,0.08c15.96,8.67,36.85,1.12,46.7-16.89s4.91-39.67-11-48.42
			c-0.05-0.03-0.1-0.05-0.15-0.08c-1.71-0.79-3.63-1.59-5.74-2.38c-13.69-5.1-38.08-9.15-58.81-6.81
			c-6.74,0.8-18.62,3.75-18.62,3.75s-2.47,2.16-2.01,3.68c1.69,5.62,3.93,11.59,6.9,17.7c10.35,21.27,25.8,37.05,37.49,45.82
			C588.43,183.16,590.14,184.34,591.73,185.36z"/>
		<path class="st33" d="M660.8,141.54c0.01,0.06,0.01,0.11,0.02,0.17c1.04,18.13-14.69,33.82-35.17,35.05s-37.98-12.45-39.12-30.58
			c0-0.06-0.01-0.11,0-0.17c0.01-1.88,0.11-3.96,0.29-6.21c1.22-14.56,7.94-38.35,18.9-56.1c3.59-5.76,11.32-15.25,11.32-15.25
			s3.01-1.31,4.18-0.25c4.36,3.93,8.81,8.49,13.07,13.78c14.83,18.42,22.53,39.13,25.48,53.44
			C660.22,137.62,660.56,139.67,660.8,141.54z"/>
		<path class="st34" d="M649.42,127.2c0.03,0.05,0.06,0.09,0.09,0.14c9.69,15.36,3.52,36.7-13.81,47.7
			c-17.33,10.99-39.26,7.49-49.03-7.82c-0.03-0.05-0.06-0.09-0.08-0.14c-0.9-1.66-1.83-3.52-2.75-5.57
			c-5.98-13.33-11.61-37.4-10.62-58.24c0.36-6.78,2.53-18.83,2.53-18.83s2-2.6,3.54-2.24c5.72,1.32,11.82,3.17,18.11,5.74
			c21.89,8.94,38.65,23.33,48.16,34.42C647.01,124.05,648.3,125.68,649.42,127.2z"/>
	</g>
	<g>
		<path class="st31" d="M127.35,88.84c-0.04,0.03-0.09,0.07-0.13,0.1c-14.79,10.54-34.74,7.96-44.58-5.79s-5.87-33.46,8.88-44.07
			c0.05-0.03,0.09-0.06,0.14-0.09c1.59-1.01,3.38-2.07,5.34-3.15c12.76-7.02,35.65-15.16,55.27-17.05
			c6.39-0.59,17.69-0.28,17.69-0.28s2.39,1.41,2.01,2.81c-1.42,5.19-3.35,10.79-5.96,16.65c-9.1,20.4-23.19,37.02-33.95,46.84
			C130.39,86.31,128.82,87.66,127.35,88.84z"/>
		<path class="st31" d="M107.25,101.59c0.05-0.02,0.1-0.05,0.15-0.08c15.84-8.89,22-28.04,13.76-42.8
			c-8.24-14.76-27.77-19.56-43.65-10.75c-0.05,0.03-0.1,0.06-0.14,0.09c-1.59,1.01-3.31,2.17-5.13,3.49
			c-11.79,8.55-28.9,25.79-38.98,42.74c-3.25,5.53-7.79,15.88-7.79,15.88s0.25,2.77,1.68,3.01c5.3,0.92,11.19,1.57,17.61,1.7
			c22.34,0.46,43.37-5.21,56.84-10.76C103.66,103.27,105.56,102.42,107.25,101.59z"/>
		<path class="st32" d="M138.73,72.25c-0.02,0.05-0.04,0.1-0.06,0.16c-7.32,16.62-28.47,23.43-47.27,15.21S63.25,59.25,70.48,42.59
			c0.02-0.05,0.05-0.1,0.07-0.15c0.87-1.67,1.9-3.48,3.08-5.39c7.71-12.41,24.52-30.54,42.35-41.37c5.82-3.5,17.02-8.43,17.02-8.43
			s3.27,0.2,3.84,1.68c2.1,5.48,3.98,11.57,5.37,18.22c4.83,23.15,2.27,45.09-1.61,59.18C140,68.5,139.37,70.48,138.73,72.25z"/>
		<path class="st32" d="M90.23,103.86c0.06,0.01,0.11,0.01,0.17,0.01c18.16,0.46,33.33-15.77,33.9-36.28
			c0.57-20.51-13.67-37.56-31.82-38.12c-0.06,0-0.11,0-0.17,0c-1.88,0.07-3.96,0.23-6.19,0.49c-14.51,1.68-38.08,9.17-55.47,20.69
			C25,54.43,15.77,62.46,15.77,62.46s-1.21,3.05-0.12,4.19c4.06,4.23,8.77,8.53,14.2,12.62c18.89,14.23,39.83,21.26,54.23,23.75
			C86.29,103.4,88.36,103.68,90.23,103.86z"/>
		<path class="st33" d="M73.73,96.36c0.05,0.03,0.09,0.06,0.14,0.08c15.96,8.67,36.85,1.12,46.7-16.89s4.91-39.67-11-48.42
			c-0.05-0.03-0.1-0.05-0.15-0.08c-1.71-0.79-3.63-1.59-5.74-2.38c-13.69-5.1-38.08-9.15-58.81-6.81
			c-6.74,0.8-18.62,3.75-18.62,3.75s-2.47,2.16-2.01,3.68c1.69,5.62,3.93,11.59,6.9,17.7c10.35,21.27,25.8,37.05,37.49,45.82
			C70.43,94.16,72.14,95.34,73.73,96.36z"/>
		<path class="st33" d="M142.8,52.54c0.01,0.06,0.01,0.11,0.02,0.17c1.04,18.13-14.69,33.82-35.17,35.05S69.67,75.3,68.52,57.17
			c0-0.06-0.01-0.11,0-0.17c0.01-1.88,0.11-3.96,0.29-6.21c1.22-14.56,7.94-38.35,18.9-56.1c3.59-5.76,11.32-15.25,11.32-15.25
			s3.01-1.31,4.18-0.25c4.36,3.93,8.81,8.49,13.07,13.78c14.83,18.42,22.53,39.13,25.48,53.44
			C142.22,48.62,142.56,50.67,142.8,52.54z"/>
		<path class="st34" d="M131.42,38.2c0.03,0.05,0.06,0.09,0.09,0.14c9.69,15.36,3.52,36.7-13.81,47.7s-39.26,7.49-49.03-7.82
			c-0.03-0.05-0.06-0.09-0.08-0.14c-0.9-1.66-1.83-3.52-2.75-5.57c-5.98-13.33-11.61-37.4-10.62-58.24
			c0.36-6.78,2.53-18.83,2.53-18.83s2-2.6,3.54-2.24c5.72,1.32,11.82,3.17,18.11,5.74c21.89,8.94,38.65,23.33,48.16,34.42
			C129.01,35.05,130.3,36.68,131.42,38.2z"/>
	</g>
	<g>
		<path class="st31" d="M158.89,339.74c-0.07-0.05-0.14-0.1-0.21-0.15c-22.82-17.18-26.85-47.74-8.97-68.31s50.89-23.39,73.8-6.32
			c0.07,0.05,0.14,0.11,0.21,0.16c2.26,1.9,4.67,4.07,7.2,6.49c16.39,15.73,38.68,45.91,49.71,74.03
			c3.54,9.16,7.67,25.96,7.67,25.96s-1.27,4.15-3.65,4.2c-8.85,0.19-18.55-0.19-28.95-1.46c-36.2-4.44-68.41-17.9-88.44-29.44
			C164.17,343.12,161.37,341.39,158.89,339.74z"/>
		<path class="st31" d="M130.39,315.71c0.06,0.06,0.12,0.12,0.18,0.18c20.62,19.45,53.62,20.1,73.77,1.44
			c20.14-18.66,19.82-49.59-0.7-69.13c-0.06-0.06-0.13-0.12-0.19-0.17c-2.25-1.9-4.81-3.93-7.65-6.03
			c-18.43-13.62-52.86-31.27-83.97-38.67c-10.13-2.36-28.47-4.5-28.47-4.5s-4.3,1.59-4.11,3.81c0.69,8.23,2.07,17.2,4.48,26.72
			c8.39,33.15,25.99,61.69,40.32,79.11C126.25,311.16,128.38,313.58,130.39,315.71z"/>
		<path class="st32" d="M189.96,349.23c-0.09,0-0.18-0.01-0.27-0.02c-29.46-3.48-48.93-31.67-43.51-63.03
			c5.42-31.36,33.68-54.03,63.17-50.7c0.09,0.01,0.18,0.02,0.27,0.04c3.02,0.54,6.32,1.27,9.85,2.17
			c22.91,5.9,58.64,22.72,83.15,44.25c7.94,7.05,20.37,21.39,20.37,21.39s1.01,4.92-1.11,6.4c-7.87,5.51-16.8,10.97-26.82,15.94
			c-34.9,17.32-70.88,23.21-94.89,23.69C196.46,349.44,193.04,349.39,189.96,349.23z"/>
		<path class="st32" d="M119.84,291.6c0.01,0.08,0.03,0.17,0.05,0.25c6.68,26.99,38.71,42.22,71.61,34.03
			c32.9-8.19,54.23-36.71,47.71-63.73c-0.02-0.08-0.04-0.16-0.07-0.25c-0.88-2.75-1.99-5.74-3.31-8.92
			c-8.6-20.67-30.14-52.13-55.58-72.71c-8.32-6.66-24.87-16.75-24.87-16.75s-5.35-0.45-6.72,1.67c-5.08,7.86-10.01,16.7-14.3,26.5
			c-14.95,34.13-17.6,68.12-15.7,90.46C118.96,285.59,119.36,288.76,119.84,291.6z"/>
		<path class="st33" d="M125.05,263.96c-0.03,0.08-0.05,0.17-0.08,0.25c-7.29,27.37,13.26,54.86,45.95,61.44
			c32.69,6.59,65.17-10.22,72.62-37.56c0.02-0.08,0.04-0.17,0.06-0.25c0.56-2.87,1.05-6.06,1.45-9.52
			c2.54-22.44-0.96-60.21-13.16-89.75c-4.02-9.6-13.56-25.82-13.56-25.82s-4.45-2.68-6.68-1.34c-8.25,4.97-16.85,10.9-25.36,17.98
			c-29.64,24.63-48.48,54.38-57.67,75.48C127.2,258.12,126.01,261.17,125.05,263.96z"/>
		<path class="st33" d="M223.01,346.55c-0.09,0.03-0.17,0.07-0.26,0.1c-28.45,9.52-59.85-6.77-70.17-36.45s4.34-61.51,32.74-71.18
			c0.09-0.03,0.17-0.06,0.26-0.08c3.01-0.81,6.36-1.59,10-2.3c23.68-4.62,64.31-5.17,97.05,3.16c10.64,2.76,28.9,9.99,28.9,9.99
			s3.31,3.86,2.11,6.06c-4.47,8.16-9.93,16.74-16.62,25.35c-23.28,29.99-53.11,50.47-74.69,61.13
			C229.02,343.96,225.89,345.37,223.01,346.55z"/>
		<path class="st34" d="M241.19,323.44c-0.06,0.07-0.12,0.13-0.18,0.2c-20.51,21.06-57.01,21.35-81.59,0.63s-27.94-54.62-7.55-75.78
			c0.06-0.07,0.13-0.13,0.19-0.19c2.27-2.06,4.86-4.24,7.75-6.51c18.78-14.7,54.82-33.61,88.41-41.32
			c10.94-2.46,31.01-4.57,31.01-4.57s4.96,1.8,5.02,4.23c0.22,9.01-0.22,18.83-1.74,29.24c-5.31,36.24-21.38,67.3-35.16,86.21
			C245.22,318.5,243.16,321.13,241.19,323.44z"/>
	</g>
	<g>
		<path class="st31" d="M388.56,144.61c-0.02-0.02-0.04-0.03-0.07-0.05c-7.1-5.35-8.35-14.86-2.79-21.26
			c5.56-6.4,15.84-7.28,22.97-1.97c0.02,0.02,0.04,0.03,0.06,0.05c0.7,0.59,1.45,1.27,2.24,2.02c5.1,4.89,12.04,14.29,15.47,23.04
			c1.1,2.85,2.39,8.08,2.39,8.08s-0.39,1.29-1.14,1.31c-2.75,0.06-5.77-0.06-9.01-0.45c-11.27-1.38-21.29-5.57-27.52-9.16
			C390.2,145.66,389.33,145.12,388.56,144.61z"/>
		<path class="st31" d="M379.69,137.13c0.02,0.02,0.04,0.04,0.06,0.06c6.42,6.05,16.69,6.26,22.96,0.45
			c6.27-5.81,6.17-15.43-0.22-21.51c-0.02-0.02-0.04-0.04-0.06-0.05c-0.7-0.59-1.5-1.22-2.38-1.88
			c-5.73-4.24-16.45-9.73-26.13-12.03c-3.15-0.74-8.86-1.4-8.86-1.4s-1.34,0.5-1.28,1.19c0.22,2.56,0.64,5.35,1.39,8.32
			c2.61,10.32,8.09,19.2,12.55,24.62C378.4,135.72,379.07,136.47,379.69,137.13z"/>
		<path class="st32" d="M398.23,147.56c-0.03,0-0.06,0-0.08-0.01c-9.17-1.08-15.23-9.86-13.54-19.61
			c1.69-9.76,10.48-16.81,19.66-15.78c0.03,0,0.06,0.01,0.08,0.01c0.94,0.17,1.97,0.39,3.06,0.68c7.13,1.84,18.25,7.07,25.88,13.77
			c2.47,2.19,6.34,6.66,6.34,6.66s0.32,1.53-0.34,1.99c-2.45,1.71-5.23,3.41-8.35,4.96c-10.86,5.39-22.06,7.22-29.53,7.37
			C400.25,147.63,399.19,147.61,398.23,147.56z"/>
		<path class="st32" d="M376.41,129.63c0,0.03,0.01,0.05,0.02,0.08c2.08,8.4,12.05,13.14,22.28,10.59
			c10.24-2.55,16.88-11.42,14.85-19.83c-0.01-0.03-0.01-0.05-0.02-0.08c-0.28-0.85-0.62-1.78-1.03-2.78
			c-2.68-6.43-9.38-16.22-17.3-22.63c-2.59-2.07-7.74-5.21-7.74-5.21s-1.66-0.14-2.09,0.52c-1.58,2.45-3.11,5.2-4.45,8.25
			c-4.65,10.62-5.48,21.2-4.88,28.15C376.13,127.76,376.26,128.74,376.41,129.63z"/>
		<path class="st33" d="M378.03,121.03c-0.01,0.03-0.02,0.05-0.02,0.08c-2.27,8.52,4.13,17.07,14.3,19.12
			c10.17,2.05,20.28-3.18,22.6-11.69c0.01-0.03,0.01-0.05,0.02-0.08c0.18-0.89,0.33-1.89,0.45-2.96c0.79-6.98-0.3-18.74-4.09-27.93
			c-1.25-2.99-4.22-8.03-4.22-8.03s-1.39-0.84-2.08-0.42c-2.57,1.55-5.24,3.39-7.89,5.59c-9.22,7.67-15.09,16.92-17.95,23.49
			C378.7,119.21,378.33,120.16,378.03,121.03z"/>
		<path class="st33" d="M408.51,146.73c-0.03,0.01-0.05,0.02-0.08,0.03c-8.85,2.96-18.62-2.11-21.84-11.34
			c-3.21-9.23,1.35-19.14,10.19-22.15c0.03-0.01,0.05-0.02,0.08-0.03c0.94-0.25,1.98-0.49,3.11-0.72c7.37-1.44,20.01-1.61,30.2,0.98
			c3.31,0.86,9,3.11,9,3.11s1.03,1.2,0.66,1.89c-1.39,2.54-3.09,5.21-5.17,7.89c-7.25,9.33-16.53,15.71-23.24,19.02
			C410.38,145.93,409.41,146.36,408.51,146.73z"/>
		<path class="st34" d="M414.17,139.54c-0.02,0.02-0.04,0.04-0.06,0.06c-6.38,6.55-17.74,6.64-25.39,0.2
			c-7.65-6.45-8.69-17-2.35-23.58c0.02-0.02,0.04-0.04,0.06-0.06c0.71-0.64,1.51-1.32,2.41-2.03c5.85-4.57,17.06-10.46,27.51-12.86
			c3.41-0.77,9.65-1.42,9.65-1.42s1.54,0.56,1.56,1.32c0.07,2.81-0.07,5.86-0.54,9.1c-1.65,11.28-6.65,20.94-10.94,26.83
			C415.43,138,414.78,138.82,414.17,139.54z"/>
	</g>
	<g>
		<path class="st31" d="M628.56,352.61c-0.02-0.02-0.04-0.03-0.07-0.05c-7.1-5.35-8.35-14.86-2.79-21.26s15.84-7.28,22.97-1.97
			c0.02,0.02,0.04,0.03,0.06,0.05c0.7,0.59,1.45,1.27,2.24,2.02c5.1,4.89,12.04,14.29,15.47,23.04c1.1,2.85,2.39,8.08,2.39,8.08
			s-0.39,1.29-1.14,1.31c-2.75,0.06-5.77-0.06-9.01-0.45c-11.27-1.38-21.29-5.57-27.52-9.16
			C630.2,353.66,629.33,353.12,628.56,352.61z"/>
		<path class="st31" d="M619.69,345.13c0.02,0.02,0.04,0.04,0.06,0.06c6.42,6.05,16.69,6.26,22.96,0.45
			c6.27-5.81,6.17-15.43-0.22-21.51c-0.02-0.02-0.04-0.04-0.06-0.05c-0.7-0.59-1.5-1.22-2.38-1.88
			c-5.73-4.24-16.45-9.73-26.13-12.04c-3.15-0.74-8.86-1.4-8.86-1.4s-1.34,0.5-1.28,1.19c0.22,2.56,0.64,5.35,1.39,8.32
			c2.61,10.32,8.09,19.2,12.55,24.62C618.4,343.72,619.07,344.47,619.69,345.13z"/>
		<path class="st32" d="M638.23,355.56c-0.03,0-0.06,0-0.08-0.01c-9.17-1.08-15.23-9.86-13.54-19.61s10.48-16.81,19.66-15.78
			c0.03,0,0.06,0.01,0.08,0.01c0.94,0.17,1.97,0.39,3.06,0.68c7.13,1.84,18.25,7.07,25.88,13.77c2.47,2.19,6.34,6.66,6.34,6.66
			s0.32,1.53-0.34,1.99c-2.45,1.71-5.23,3.41-8.35,4.96c-10.86,5.39-22.06,7.22-29.53,7.37
			C640.25,355.63,639.19,355.61,638.23,355.56z"/>
		<path class="st32" d="M616.41,337.63c0,0.03,0.01,0.05,0.02,0.08c2.08,8.4,12.05,13.14,22.28,10.59
			c10.24-2.55,16.88-11.42,14.85-19.83c-0.01-0.03-0.01-0.05-0.02-0.08c-0.28-0.85-0.62-1.78-1.03-2.78
			c-2.68-6.43-9.38-16.22-17.3-22.63c-2.59-2.07-7.74-5.21-7.74-5.21s-1.66-0.14-2.09,0.52c-1.58,2.45-3.11,5.2-4.45,8.25
			c-4.65,10.62-5.48,21.2-4.88,28.15C616.13,335.76,616.26,336.74,616.41,337.63z"/>
		<path class="st33" d="M618.03,329.03c-0.01,0.03-0.02,0.05-0.02,0.08c-2.27,8.52,4.13,17.07,14.3,19.12
			c10.17,2.05,20.28-3.18,22.6-11.69c0.01-0.03,0.01-0.05,0.02-0.08c0.18-0.89,0.33-1.89,0.45-2.96c0.79-6.98-0.3-18.74-4.09-27.93
			c-1.25-2.99-4.22-8.03-4.22-8.03s-1.39-0.84-2.08-0.42c-2.57,1.55-5.24,3.39-7.89,5.59c-9.22,7.67-15.09,16.92-17.95,23.49
			C618.7,327.21,618.33,328.16,618.03,329.03z"/>
		<path class="st33" d="M648.51,354.73c-0.03,0.01-0.05,0.02-0.08,0.03c-8.85,2.96-18.62-2.11-21.84-11.34
			c-3.21-9.23,1.35-19.14,10.19-22.15c0.03-0.01,0.05-0.02,0.08-0.03c0.94-0.25,1.98-0.49,3.11-0.72c7.37-1.44,20.01-1.61,30.2,0.98
			c3.31,0.86,9,3.11,9,3.11s1.03,1.2,0.66,1.89c-1.39,2.54-3.09,5.21-5.17,7.89c-7.25,9.33-16.53,15.71-23.24,19.02
			C650.38,353.93,649.41,354.36,648.51,354.73z"/>
		<path class="st34" d="M654.17,347.54c-0.02,0.02-0.04,0.04-0.06,0.06c-6.38,6.55-17.74,6.64-25.39,0.2
			c-7.65-6.45-8.69-17-2.35-23.58c0.02-0.02,0.04-0.04,0.06-0.06c0.71-0.64,1.51-1.32,2.41-2.03c5.85-4.57,17.06-10.46,27.51-12.86
			c3.41-0.77,9.65-1.42,9.65-1.42s1.54,0.56,1.56,1.32c0.07,2.81-0.07,5.86-0.54,9.1c-1.65,11.28-6.65,20.94-10.94,26.83
			C655.43,346,654.78,346.82,654.17,347.54z"/>
	</g>
	<g>
		<path class="st31" d="M54.56,605.61c-0.02-0.02-0.05-0.03-0.07-0.05c-7.1-5.35-8.35-14.86-2.79-21.26
			c5.56-6.4,15.84-7.28,22.97-1.97c0.02,0.02,0.04,0.03,0.06,0.05c0.7,0.59,1.45,1.27,2.24,2.02c5.1,4.89,12.04,14.29,15.47,23.04
			c1.1,2.85,2.39,8.08,2.39,8.08s-0.39,1.29-1.14,1.31c-2.75,0.06-5.77-0.06-9.01-0.45c-11.27-1.38-21.29-5.57-27.52-9.16
			C56.2,606.66,55.33,606.12,54.56,605.61z"/>
		<path class="st31" d="M45.69,598.13c0.02,0.02,0.04,0.04,0.06,0.06c6.42,6.05,16.69,6.26,22.96,0.45s6.17-15.43-0.22-21.51
			c-0.02-0.02-0.04-0.04-0.06-0.05c-0.7-0.59-1.5-1.22-2.38-1.88c-5.73-4.24-16.45-9.73-26.13-12.04c-3.15-0.74-8.86-1.4-8.86-1.4
			s-1.34,0.5-1.28,1.19c0.22,2.56,0.64,5.35,1.39,8.32c2.61,10.32,8.09,19.2,12.55,24.62C44.4,596.72,45.07,597.47,45.69,598.13z"/>
		<path class="st32" d="M64.23,608.56c-0.03,0-0.06,0-0.08-0.01c-9.17-1.08-15.23-9.86-13.54-19.61
			c1.69-9.76,10.48-16.81,19.66-15.78c0.03,0,0.06,0.01,0.08,0.01c0.94,0.17,1.97,0.39,3.06,0.68c7.13,1.84,18.25,7.07,25.88,13.77
			c2.47,2.19,6.34,6.66,6.34,6.66s0.32,1.53-0.34,1.99c-2.45,1.71-5.23,3.41-8.35,4.96c-10.86,5.39-22.06,7.22-29.53,7.37
			C66.25,608.63,65.19,608.61,64.23,608.56z"/>
		<path class="st32" d="M42.41,590.63c0,0.03,0.01,0.05,0.02,0.08c2.08,8.4,12.05,13.14,22.28,10.59s16.88-11.42,14.85-19.83
			c-0.01-0.03-0.01-0.05-0.02-0.08c-0.28-0.85-0.62-1.78-1.03-2.78c-2.68-6.43-9.38-16.22-17.3-22.63
			c-2.59-2.07-7.74-5.21-7.74-5.21s-1.66-0.14-2.09,0.52c-1.58,2.45-3.11,5.2-4.45,8.25c-4.65,10.62-5.48,21.2-4.88,28.15
			C42.13,588.76,42.26,589.74,42.41,590.63z"/>
		<path class="st33" d="M44.03,582.03c-0.01,0.03-0.02,0.05-0.02,0.08c-2.27,8.52,4.13,17.07,14.3,19.12
			c10.17,2.05,20.28-3.18,22.6-11.69c0.01-0.03,0.01-0.05,0.02-0.08c0.18-0.89,0.33-1.89,0.45-2.96c0.79-6.98-0.3-18.74-4.09-27.93
			c-1.25-2.99-4.22-8.03-4.22-8.03s-1.39-0.84-2.08-0.42c-2.57,1.55-5.24,3.39-7.89,5.59c-9.22,7.67-15.09,16.92-17.95,23.49
			C44.7,580.21,44.33,581.16,44.03,582.03z"/>
		<path class="st33" d="M74.51,607.73c-0.03,0.01-0.05,0.02-0.08,0.03c-8.85,2.96-18.62-2.11-21.84-11.34
			c-3.21-9.23,1.35-19.14,10.19-22.15c0.03-0.01,0.05-0.02,0.08-0.03c0.94-0.25,1.98-0.49,3.11-0.72c7.37-1.44,20.01-1.61,30.2,0.98
			c3.31,0.86,9,3.11,9,3.11s1.03,1.2,0.66,1.89c-1.39,2.54-3.09,5.21-5.17,7.89c-7.25,9.33-16.53,15.71-23.24,19.02
			C76.38,606.93,75.41,607.36,74.51,607.73z"/>
		<path class="st34" d="M80.17,600.54c-0.02,0.02-0.04,0.04-0.06,0.06c-6.38,6.55-17.74,6.65-25.39,0.2
			c-7.65-6.45-8.69-17-2.35-23.58c0.02-0.02,0.04-0.04,0.06-0.06c0.71-0.64,1.51-1.32,2.41-2.03c5.85-4.57,17.06-10.46,27.51-12.86
			c3.41-0.77,9.65-1.42,9.65-1.42s1.54,0.56,1.56,1.32c0.07,2.81-0.07,5.86-0.54,9.1c-1.65,11.28-6.65,20.94-10.94,26.83
			C81.43,599,80.78,599.82,80.17,600.54z"/>
	</g>
	<g>
		<path class="st31" d="M169.35,1084.84c-0.04,0.03-0.09,0.07-0.13,0.1c-14.79,10.54-34.74,7.96-44.58-5.79s-5.87-33.46,8.88-44.07
			c0.05-0.03,0.09-0.06,0.14-0.09c1.59-1.01,3.38-2.07,5.34-3.15c12.76-7.02,35.65-15.16,55.27-17.05
			c6.39-0.59,17.69-0.28,17.69-0.28s2.39,1.41,2.01,2.81c-1.42,5.19-3.35,10.79-5.96,16.65c-9.1,20.4-23.19,37.02-33.95,46.84
			C172.39,1082.31,170.82,1083.66,169.35,1084.84z"/>
		<path class="st31" d="M149.25,1097.59c0.05-0.02,0.1-0.05,0.15-0.08c15.84-8.89,22-28.04,13.76-42.8s-27.77-19.56-43.65-10.75
			c-0.05,0.03-0.1,0.06-0.14,0.09c-1.59,1.01-3.31,2.17-5.13,3.49c-11.79,8.55-28.9,25.79-38.98,42.74
			c-3.25,5.53-7.79,15.88-7.79,15.88s0.25,2.77,1.68,3.01c5.3,0.92,11.19,1.57,17.61,1.7c22.34,0.46,43.37-5.21,56.84-10.76
			C145.66,1099.27,147.56,1098.42,149.25,1097.59z"/>
		<path class="st32" d="M180.73,1068.25c-0.02,0.05-0.04,0.1-0.06,0.16c-7.32,16.62-28.47,23.43-47.27,15.21
			s-28.16-28.37-20.93-45.03c0.02-0.05,0.05-0.1,0.07-0.15c0.87-1.67,1.9-3.48,3.08-5.39c7.71-12.41,24.52-30.54,42.35-41.37
			c5.82-3.5,17.02-8.43,17.02-8.43s3.27,0.2,3.84,1.68c2.1,5.48,3.98,11.57,5.37,18.22c4.83,23.15,2.27,45.09-1.61,59.18
			C182,1064.49,181.37,1066.48,180.73,1068.25z"/>
		<path class="st32" d="M132.23,1099.86c0.06,0.01,0.11,0.01,0.17,0.01c18.16,0.46,33.33-15.77,33.9-36.28
			c0.57-20.51-13.67-37.56-31.82-38.12c-0.06,0-0.11,0-0.17,0c-1.88,0.07-3.96,0.23-6.19,0.49c-14.51,1.68-38.08,9.17-55.47,20.69
			c-5.64,3.78-14.88,11.81-14.88,11.81s-1.21,3.05-0.12,4.19c4.06,4.23,8.77,8.53,14.2,12.62c18.89,14.23,39.83,21.26,54.23,23.75
			C128.29,1099.4,130.36,1099.68,132.23,1099.86z"/>
		<path class="st33" d="M115.73,1092.36c0.05,0.03,0.09,0.06,0.14,0.08c15.96,8.67,36.85,1.12,46.7-16.89
			c9.84-18.01,4.91-39.67-11-48.42c-0.05-0.03-0.1-0.05-0.15-0.08c-1.71-0.79-3.63-1.59-5.74-2.38c-13.69-5.1-38.08-9.15-58.81-6.81
			c-6.74,0.8-18.62,3.75-18.62,3.75s-2.47,2.16-2.01,3.68c1.69,5.62,3.93,11.59,6.9,17.7c10.35,21.27,25.8,37.05,37.49,45.82
			C112.43,1090.16,114.14,1091.34,115.73,1092.36z"/>
		<path class="st33" d="M184.8,1048.54c0.01,0.06,0.01,0.11,0.02,0.17c1.04,18.13-14.69,33.82-35.17,35.05
			c-20.48,1.23-37.98-12.45-39.12-30.58c0-0.06-0.01-0.11,0-0.17c0.01-1.88,0.11-3.96,0.29-6.21c1.22-14.56,7.94-38.35,18.9-56.1
			c3.59-5.76,11.32-15.25,11.32-15.25s3.01-1.31,4.18-0.25c4.36,3.93,8.81,8.49,13.07,13.78c14.83,18.42,22.53,39.13,25.48,53.44
			C184.22,1044.62,184.56,1046.67,184.8,1048.54z"/>
		<path class="st34" d="M173.42,1034.2c0.03,0.05,0.06,0.09,0.09,0.14c9.69,15.36,3.52,36.7-13.81,47.7s-39.26,7.49-49.03-7.82
			c-0.03-0.05-0.06-0.09-0.08-0.14c-0.9-1.66-1.83-3.52-2.75-5.57c-5.98-13.33-11.61-37.4-10.62-58.24
			c0.36-6.78,2.53-18.83,2.53-18.83s2-2.6,3.54-2.24c5.72,1.32,11.82,3.17,18.11,5.74c21.89,8.94,38.65,23.33,48.16,34.42
			C171.01,1031.05,172.3,1032.68,173.42,1034.2z"/>
	</g>
	<g>
		<path class="st31" d="M173.56,1190.61c-0.02-0.02-0.05-0.03-0.07-0.05c-7.1-5.35-8.35-14.86-2.79-21.26
			c5.56-6.4,15.84-7.28,22.97-1.97c0.02,0.02,0.04,0.03,0.06,0.05c0.7,0.59,1.45,1.27,2.24,2.02c5.1,4.89,12.04,14.29,15.47,23.04
			c1.1,2.85,2.39,8.08,2.39,8.08s-0.39,1.29-1.14,1.31c-2.75,0.06-5.77-0.06-9.01-0.45c-11.27-1.38-21.29-5.57-27.52-9.16
			C175.2,1191.66,174.33,1191.12,173.56,1190.61z"/>
		<path class="st31" d="M164.69,1183.13c0.02,0.02,0.04,0.04,0.06,0.06c6.42,6.05,16.69,6.26,22.96,0.45
			c6.27-5.81,6.17-15.43-0.22-21.51c-0.02-0.02-0.04-0.04-0.06-0.05c-0.7-0.59-1.5-1.22-2.38-1.88
			c-5.73-4.24-16.45-9.73-26.13-12.03c-3.15-0.74-8.86-1.4-8.86-1.4s-1.34,0.5-1.28,1.19c0.22,2.56,0.64,5.35,1.39,8.32
			c2.61,10.32,8.09,19.2,12.55,24.62C163.4,1181.72,164.07,1182.47,164.69,1183.13z"/>
		<path class="st32" d="M183.23,1193.56c-0.03,0-0.06,0-0.08-0.01c-9.17-1.08-15.23-9.86-13.54-19.61
			c1.69-9.76,10.48-16.81,19.66-15.78c0.03,0,0.06,0.01,0.08,0.01c0.94,0.17,1.97,0.39,3.06,0.68c7.13,1.84,18.25,7.07,25.88,13.77
			c2.47,2.19,6.34,6.66,6.34,6.66s0.32,1.53-0.34,1.99c-2.45,1.71-5.23,3.41-8.35,4.96c-10.86,5.39-22.06,7.22-29.53,7.37
			C185.25,1193.63,184.19,1193.61,183.23,1193.56z"/>
		<path class="st32" d="M161.41,1175.63c0,0.03,0.01,0.05,0.02,0.08c2.08,8.4,12.05,13.14,22.28,10.59
			c10.24-2.55,16.88-11.42,14.85-19.83c-0.01-0.03-0.01-0.05-0.02-0.08c-0.28-0.85-0.62-1.78-1.03-2.78
			c-2.68-6.43-9.38-16.22-17.3-22.63c-2.59-2.07-7.74-5.21-7.74-5.21s-1.66-0.14-2.09,0.52c-1.58,2.45-3.11,5.2-4.45,8.25
			c-4.65,10.62-5.48,21.2-4.88,28.15C161.13,1173.76,161.26,1174.74,161.41,1175.63z"/>
		<path class="st33" d="M163.03,1167.03c-0.01,0.03-0.02,0.05-0.02,0.08c-2.27,8.52,4.13,17.07,14.3,19.12
			c10.17,2.05,20.28-3.18,22.6-11.69c0.01-0.03,0.01-0.05,0.02-0.08c0.18-0.89,0.33-1.89,0.45-2.96c0.79-6.98-0.3-18.74-4.09-27.93
			c-1.25-2.99-4.22-8.03-4.22-8.03s-1.39-0.84-2.08-0.42c-2.57,1.55-5.24,3.39-7.89,5.59c-9.22,7.67-15.09,16.92-17.95,23.49
			C163.7,1165.21,163.33,1166.16,163.03,1167.03z"/>
		<path class="st33" d="M193.51,1192.73c-0.03,0.01-0.05,0.02-0.08,0.03c-8.85,2.96-18.62-2.11-21.84-11.34
			c-3.21-9.23,1.35-19.14,10.19-22.15c0.03-0.01,0.05-0.02,0.08-0.03c0.94-0.25,1.98-0.49,3.11-0.72c7.37-1.44,20.01-1.61,30.2,0.98
			c3.31,0.86,9,3.11,9,3.11s1.03,1.2,0.66,1.89c-1.39,2.54-3.09,5.21-5.17,7.89c-7.25,9.33-16.53,15.71-23.24,19.02
			C195.38,1191.93,194.41,1192.36,193.51,1192.73z"/>
		<path class="st34" d="M199.17,1185.54c-0.02,0.02-0.04,0.04-0.06,0.06c-6.38,6.55-17.74,6.64-25.39,0.2
			c-7.65-6.45-8.69-17-2.35-23.58c0.02-0.02,0.04-0.04,0.06-0.06c0.71-0.64,1.51-1.32,2.41-2.03c5.85-4.57,17.06-10.46,27.51-12.86
			c3.41-0.77,9.65-1.42,9.65-1.42s1.54,0.56,1.56,1.32c0.07,2.81-0.07,5.86-0.54,9.1c-1.65,11.28-6.65,20.94-10.94,26.83
			C200.43,1184,199.78,1184.82,199.17,1185.54z"/>
	</g>
	<g>
		<path class="st31" d="M548.23,1205.9c-0.05-0.03-0.1-0.05-0.15-0.08c-15.7-9.14-21.56-28.38-13.09-43.01
			c8.47-14.63,28.07-19.13,43.82-10.06c0.05,0.03,0.1,0.06,0.14,0.09c1.58,1.03,3.28,2.22,5.07,3.57
			c11.65,8.74,28.49,26.24,38.31,43.34c3.17,5.58,7.54,16,7.54,16s-0.3,2.76-1.73,2.99c-5.32,0.84-11.22,1.39-17.63,1.42
			c-22.34,0.11-43.28-5.88-56.66-11.64C551.79,1207.63,549.9,1206.75,548.23,1205.9z"/>
		<path class="st31" d="M528.33,1192.83c0.04,0.04,0.09,0.07,0.13,0.1c14.63,10.77,34.61,8.5,44.67-5.09
			c10.06-13.59,6.39-33.37-8.19-44.2c-0.04-0.03-0.09-0.06-0.14-0.1c-1.57-1.04-3.34-2.12-5.29-3.23
			c-12.65-7.22-35.4-15.71-55-17.92c-6.38-0.69-17.68-0.56-17.68-0.56s-2.42,1.37-2.05,2.78c1.34,5.21,3.18,10.85,5.7,16.74
			c8.78,20.54,22.61,37.38,33.21,47.36C525.32,1190.26,526.88,1191.63,528.33,1192.83z"/>
		<path class="st32" d="M568.03,1209.44c-0.06,0-0.11,0.01-0.17,0.01c-18.16,0.17-33.08-16.29-33.33-36.81
			c-0.25-20.52,14.25-37.34,32.42-37.62c0.06,0,0.11,0,0.17,0c1.88,0.1,3.95,0.3,6.19,0.59c14.49,1.91,37.93,9.77,55.14,21.55
			c5.58,3.86,14.69,12.04,14.69,12.04s1.16,3.07,0.05,4.19c-4.13,4.17-8.9,8.39-14.39,12.4c-19.11,13.93-40.16,20.64-54.59,22.9
			C571.98,1209.05,569.91,1209.29,568.03,1209.44z"/>
		<path class="st32" d="M519.26,1178.26c0.02,0.05,0.04,0.1,0.06,0.16c7.06,16.73,28.1,23.88,47.02,15.95
			c18.93-7.93,28.6-27.92,21.63-44.7c-0.02-0.05-0.04-0.1-0.07-0.15c-0.84-1.69-1.84-3.51-3-5.44
			c-7.51-12.53-24.04-30.92-41.7-42.02c-5.77-3.59-16.89-8.7-16.89-8.7s-3.28,0.15-3.87,1.62c-2.18,5.45-4.16,11.51-5.65,18.13
			c-5.19,23.07-2.97,45.05,0.69,59.2C518.05,1174.48,518.65,1176.48,519.26,1178.26z"/>
		<path class="st33" d="M519.3,1160.14c-0.01,0.06-0.01,0.11-0.02,0.17c-1.32,18.12,14.16,34.04,34.62,35.6
			c20.46,1.55,38.17-11.86,39.59-29.97c0-0.06,0.01-0.11,0.01-0.17c0.02-1.88-0.04-3.96-0.2-6.21
			c-0.99-14.58-7.34-38.47-18.02-56.39c-3.5-5.82-11.08-15.43-11.08-15.43s-2.99-1.36-4.18-0.32c-4.42,3.86-8.94,8.35-13.28,13.58
			c-15.12,18.19-23.14,38.77-26.31,53.03C519.94,1156.22,519.56,1158.27,519.3,1160.14z"/>
		<path class="st33" d="M587.67,1205.03c-0.05,0.03-0.1,0.06-0.15,0.08c-16.1,8.42-36.87,0.54-46.43-17.62
			c-9.56-18.16-4.29-39.74,11.76-48.24c0.05-0.03,0.1-0.05,0.15-0.07c1.72-0.77,3.66-1.54,5.78-2.29
			c13.77-4.89,38.22-8.56,58.91-5.89c6.73,0.9,18.56,4.04,18.56,4.04s2.43,2.2,1.95,3.71c-1.78,5.59-4.11,11.53-7.18,17.59
			c-10.68,21.1-26.37,36.65-38.2,45.23C591.01,1202.88,589.28,1204.04,587.67,1205.03z"/>
		<path class="st34" d="M596.05,1188.75c-0.03,0.05-0.06,0.1-0.09,0.14c-10.01,15.16-32,18.32-49.15,7.06
			c-17.15-11.26-22.99-32.69-13.07-47.91c0.03-0.05,0.06-0.09,0.1-0.14c1.14-1.5,2.46-3.11,3.95-4.8
			c9.68-10.94,29.3-25.99,48.7-33.67c6.33-2.47,18.19-5.45,18.19-5.45s3.19,0.75,3.5,2.3c1.15,5.75,1.98,12.08,2.23,18.86
			c0.87,23.63-5.34,44.83-11.53,58.07C597.93,1185.26,596.97,1187.11,596.05,1188.75z"/>
	</g>
	<g>
		<path class="st31" d="M483.53,1267.19c-0.02,0.02-0.04,0.04-0.06,0.06c-6.44,6.12-16.03,5.79-21.43-0.75
			c-5.4-6.54-4.57-16.82,1.85-22.98c0.02-0.02,0.04-0.04,0.06-0.05c0.7-0.6,1.49-1.23,2.36-1.88c5.67-4.22,16.08-9.51,25.27-11.46
			c2.99-0.62,8.36-1.02,8.36-1.02s1.21,0.6,1.1,1.34c-0.4,2.73-1.01,5.69-1.94,8.81c-3.22,10.88-9.01,20.08-13.58,25.63
			C484.84,1265.74,484.17,1266.51,483.53,1267.19z"/>
		<path class="st31" d="M474.69,1274.7c0.02-0.02,0.04-0.03,0.07-0.05c7.03-5.33,8.92-15.43,4.23-22.57
			c-4.69-7.14-14.2-8.63-21.25-3.34c-0.02,0.02-0.04,0.03-0.06,0.05c-0.7,0.59-1.45,1.28-2.24,2.04
			c-5.13,4.96-12.31,14.62-16.18,23.79c-1.25,2.99-2.84,8.51-2.84,8.51s0.27,1.4,0.96,1.46c2.56,0.21,5.39,0.25,8.43,0
			c10.61-0.87,20.27-4.81,26.35-8.31C473.08,1275.74,473.94,1275.21,474.69,1274.7z"/>
		<path class="st32" d="M488.04,1258.14c-0.01,0.03-0.01,0.06-0.02,0.08c-2.58,8.86-12.23,13.39-21.58,10.12
			c-9.35-3.27-14.85-13.11-12.32-21.99c0.01-0.03,0.02-0.05,0.03-0.08c0.32-0.9,0.71-1.87,1.17-2.91
			c2.99-6.73,9.98-16.83,17.85-23.25c2.57-2.08,7.61-5.15,7.61-5.15s1.56-0.06,1.91,0.67c1.29,2.7,2.5,5.72,3.52,9.05
			c3.52,11.6,3.48,22.95,2.4,30.34C488.44,1256.16,488.25,1257.2,488.04,1258.14z"/>
		<path class="st32" d="M466.75,1276.7c0.03,0,0.05,0,0.08,0c8.63-0.67,14.95-9.71,14.12-20.23c-0.82-10.52-8.48-18.53-17.11-17.92
			c-0.03,0-0.05,0-0.08,0.01c-0.89,0.13-1.86,0.32-2.91,0.56c-6.79,1.58-17.55,6.57-25.17,13.32c-2.47,2.21-6.42,6.77-6.42,6.77
			s-0.41,1.62,0.17,2.15c2.15,1.96,4.61,3.93,7.4,5.75c9.71,6.34,20,8.9,26.96,9.46C464.86,1276.66,465.86,1276.7,466.75,1276.7z"/>
		<path class="st33" d="M458.54,1273.68c0.02,0.01,0.05,0.03,0.07,0.04c8.03,3.64,17.52-1.25,21.22-10.95
			c3.7-9.69,0.21-20.53-7.8-24.22c-0.02-0.01-0.05-0.02-0.07-0.03c-0.85-0.32-1.81-0.63-2.85-0.93c-6.76-1.93-18.53-2.8-28.22-0.57
			c-3.15,0.74-8.62,2.84-8.62,2.84s-1.05,1.23-0.76,1.98c1.1,2.79,2.48,5.73,4.21,8.71c6.04,10.36,14.2,17.67,20.21,21.58
			C456.86,1272.72,457.73,1273.24,458.54,1273.68z"/>
		<path class="st33" d="M488.92,1247.86c0.01,0.03,0.01,0.06,0.02,0.08c1.46,9.22-5.15,18.02-14.79,19.66
			c-9.64,1.64-18.66-4.49-20.17-13.7c0-0.03-0.01-0.06-0.01-0.09c-0.1-0.96-0.16-2.03-0.19-3.19c-0.2-7.51,1.72-20,5.96-29.63
			c1.39-3.12,4.55-8.36,4.55-8.36s1.36-0.82,1.97-0.34c2.28,1.79,4.63,3.91,6.93,6.4c8.01,8.69,12.76,18.89,14.93,26.06
			C488.43,1245.88,488.7,1246.91,488.92,1247.86z"/>
		<path class="st34" d="M482.76,1241.09c0.02,0.02,0.04,0.04,0.05,0.07c5.41,7.38,3.63,18.6-4,25.07
			c-7.62,6.48-18.2,5.77-23.65-1.58c-0.02-0.02-0.03-0.05-0.05-0.07c-0.52-0.8-1.05-1.71-1.6-2.71c-3.55-6.52-7.5-18.55-8.14-29.26
			c-0.19-3.49,0.19-9.75,0.19-9.75s0.81-1.43,1.56-1.32c2.78,0.39,5.77,1.04,8.88,2.04c10.85,3.49,19.56,10.02,24.66,15.22
			C481.45,1239.6,482.15,1240.37,482.76,1241.09z"/>
	</g>
</g>
<g id="Text">
	<text transform="matrix(1 0 0 1 141.6777 447.936)"><tspan x="0" y="0" class="st18 st35 st36">way to go, </tspan><tspan x="117.49" y="106.8" class="st18 st35 st36">guru!</tspan></text>
	<text transform="matrix(1 0 0 1 145.1025 941.3828)" class="st18 st35 st36">+ 10 petals</text>
</g>
<g id="Layer_7">
	<path class="st37" d="M383.83,795.82c-0.08,0.01-0.16,0.02-0.24,0.02c-25.78,1.39-47.75-16.9-49.1-40.89
		c-1.35-23.99,18.43-44.62,44.21-46.13c0.08,0,0.16-0.01,0.24-0.01c2.68,0,5.63,0.09,8.81,0.29c20.66,1.29,54.32,8.95,79.32,21.62
		c8.11,4.16,21.44,13.13,21.44,13.13s1.8,3.51,0.28,4.9c-5.66,5.15-12.24,10.4-19.83,15.44c-26.46,17.55-56.02,26.77-76.4,30.37
		C389.42,795.1,386.49,795.52,383.83,795.82z"/>
	<path class="st37" d="M350.01,795.82c0.08,0.01,0.16,0.02,0.24,0.02c25.78,1.39,47.75-16.9,49.1-40.89
		c1.35-23.99-18.43-44.62-44.21-46.13c-0.08,0-0.16-0.01-0.24-0.01c-2.68,0-5.63,0.09-8.81,0.29c-20.66,1.29-54.32,8.95-79.32,21.62
		c-8.11,4.16-21.44,13.13-21.44,13.13s-1.8,3.51-0.28,4.9c5.66,5.15,12.24,10.4,19.83,15.44c26.46,17.55,56.02,26.77,76.4,30.37
		C344.42,795.1,347.35,795.52,350.01,795.82z"/>
	<path class="st38" d="M410.13,784.58c-0.06,0.05-0.13,0.09-0.19,0.14c-21.44,14.37-52,6.45-68.31-17.73
		c-16.3-24.18-12.19-55.48,9.17-69.97c0.07-0.04,0.13-0.09,0.2-0.13c2.32-1.35,4.93-2.73,7.81-4.12
		c18.7-9.03,52.68-17.98,82.32-17.4c9.65,0.24,26.85,2.84,26.85,2.84s3.78,2.74,3.33,4.94c-1.65,8.17-4.03,16.92-7.43,25.95
		c-11.84,31.46-31.61,55.84-46.99,69.79C414.51,781.03,412.25,782.93,410.13,784.58z"/>
	<path class="st38" d="M327.86,785.58c0.06,0.05,0.13,0.09,0.19,0.14c21.44,14.37,52,6.45,68.31-17.73
		c16.3-24.18,12.19-55.48-9.17-69.97c-0.07-0.04-0.13-0.09-0.2-0.13c-2.32-1.35-4.93-2.73-7.81-4.12
		c-18.7-9.03-52.68-17.98-82.32-17.4c-9.65,0.24-26.85,2.84-26.85,2.84s-3.78,2.74-3.33,4.94c1.65,8.17,4.03,16.92,7.43,25.95
		c11.84,31.46,31.61,55.84,46.99,69.79C323.48,782.03,325.74,783.93,327.86,785.58z"/>
	<path class="st17" d="M313.77,764.01c0.03,0.07,0.07,0.14,0.11,0.21c12.56,22.55,43.38,29.4,68.9,15.28
		c25.52-14.12,36.1-43.86,23.66-66.49c-0.04-0.07-0.08-0.14-0.12-0.2c-1.45-2.25-3.15-4.68-5.08-7.23
		c-12.55-16.55-38.73-39.98-65.39-52.95c-8.7-4.18-25.2-9.68-25.2-9.68s-4.61,0.72-5.21,2.88c-2.24,8.03-4.11,16.9-5.19,26.49
		c-3.77,33.4,2.75,64.11,10.1,83.53C311.48,758.86,312.63,761.59,313.77,764.01z"/>
	<path class="st17" d="M430.02,764.01c-0.03,0.07-0.07,0.14-0.11,0.21c-12.56,22.55-43.38,29.4-68.9,15.28
		c-25.52-14.12-36.1-43.86-23.66-66.49c0.04-0.07,0.08-0.14,0.12-0.2c1.45-2.25,3.15-4.68,5.08-7.23
		c12.55-16.55,38.73-39.98,65.39-52.95c8.7-4.18,25.2-9.68,25.2-9.68s4.61,0.72,5.21,2.88c2.24,8.03,4.11,16.9,5.19,26.49
		c3.77,33.4-2.75,64.11-10.1,83.53C432.31,758.86,431.16,761.59,430.02,764.01z"/>
	<path class="st39" d="M427.27,738.14c0.01,0.08,0.01,0.16,0.01,0.24c-0.07,25.82-23.73,46.72-52.89,46.72s-52.82-20.91-52.89-46.72
		c0-0.08,0-0.16,0.01-0.24c0.18-2.67,0.49-5.61,0.95-8.78c2.97-20.55,14.54-53.73,31.59-77.98c5.59-7.87,17.36-20.67,17.36-20.67
		s4.38-1.6,5.96,0c5.85,5.94,11.77,12.8,17.36,20.67c19.47,27.4,28.63,57.43,31.59,77.98C426.78,732.53,427.09,735.47,427.27,738.14
		z"/>
</g>
</svg>
