<?xml version="1.0" encoding="utf-8"?>
<!-- Generator: Adobe Illustrator 23.0.2, SVG Export Plug-In . SVG Version: 6.00 Build 0)  -->
<svg version="1.1" xmlns="http://www.w3.org/2000/svg" xmlns:xlink="http://www.w3.org/1999/xlink" x="0px" y="0px"
	 viewBox="0 0 750 1334" style="enable-background:new 0 0 750 1334;" xml:space="preserve">
<style type="text/css">
	.st0{fill:#FFCC99;}
	.st1{fill:#CCCCFF;}
	.st2{fill:#D7D7FF;}
	.st3{fill:#E1E1FF;}
	.st4{fill:#EBEBFF;}
	.st5{fill:#F5F5FF;}
	.st6{fill:#FFCC66;stroke:#FBDD3B;stroke-width:2;stroke-miterlimit:10;}
	.st7{fill:#FFEE96;stroke:#FBDD3B;stroke-width:2;stroke-miterlimit:10;}
	.st8{fill:#FFF4CD;stroke:#FBDD3B;stroke-width:2;stroke-miterlimit:10;}
	.st9{fill:#FFCC66;}
	.st10{fill:none;stroke:#FFCC66;stroke-width:6;stroke-miterlimit:10;}
	.st11{fill:none;stroke:#FFF4CD;stroke-width:6;stroke-miterlimit:10;}
	.st12{opacity:0.49;}
	.st13{fill:#CC99FF;stroke:#CC99FF;stroke-width:2;stroke-miterlimit:10;}
	.st14{fill:#CC99FF;stroke:#CC99FF;stroke-miterlimit:10;}
	.st15{fill:#CC99FF;stroke:#CC99FF;stroke-width:6;stroke-miterlimit:10;}
	.st16{fill:#FFEE96;stroke:#FFCC66;stroke-width:2;stroke-miterlimit:10;}
	.st17{fill:#9966FF;}
	.st18{fill:#7F47DD;}
	.st19{font-family:'ErasITC-Light';}
	.st20{font-size:60px;}
	.st21{fill:#FFFFF5;}
	.st22{fill:#ED5E9F;stroke:#ED1E79;stroke-width:2;stroke-miterlimit:10;}
	.st23{fill:#C0145A;stroke:#ED1E79;stroke-width:2;stroke-miterlimit:10;}
	.st24{fill:#FFF4CD;stroke:#ED1E79;stroke-width:2;stroke-miterlimit:10;}
	.st25{fill:#C0145A;stroke:#ED1E79;stroke-miterlimit:10;}
	.st26{fill:none;stroke:#ED1E79;stroke-width:6;stroke-miterlimit:10;}
	.st27{fill:#FF9966;stroke:#FF6633;stroke-width:2;stroke-miterlimit:10;}
	.st28{fill:#CC6633;stroke:#FF6633;stroke-width:2;stroke-miterlimit:10;}
	.st29{fill:#FFF4CD;stroke:#FF6633;stroke-width:2;stroke-miterlimit:10;}
	.st30{fill:#CC6633;stroke:#FF6633;stroke-miterlimit:10;}
	.st31{fill:#FF9966;stroke:#FF6633;stroke-width:6;stroke-miterlimit:10;}
	.st32{fill:none;stroke:#FF6633;stroke-width:6;stroke-miterlimit:10;}
	.st33{opacity:0.4;fill:#FFCCFF;}
	.st34{opacity:0.4;fill:#CC99FF;}
	.st35{opacity:0.4;fill:#9966FF;}
	.st36{opacity:0.4;fill:#7F47DD;}
	.st37{display:none;}
	.st38{display:inline;fill:#FBAE17;}
	.st39{font-family:'ErasITC-Demi';}
	.st40{font-size:72px;}
	.st41{display:inline;fill:#9E005D;}
	.st42{display:inline;fill:#CC6633;}
	.st43{display:inline;fill:#7F47DD;}
	.st44{font-size:89px;}
	.st45{display:inline;fill:#FFCCFF;}
	.st46{display:inline;fill:#CC99FF;}
	.st47{display:inline;fill:#9966FF;}
	.st48{display:inline;fill:#CC99FF;stroke:#7F47DD;stroke-width:8;stroke-miterlimit:10;}
	.st49{display:inline;fill:none;stroke:#EBB885;stroke-width:8;stroke-miterlimit:10;}
</style>
<g id="Layer_1">
</g>
<g id="Layer_10" class="st12">
</g>
<g id="Layer_11">
</g>
<g id="Layer_8">
	<rect class="st3" width="750" height="1332"/>
	<g>
		<path class="st17" d="M192.39,133.4c0,0.91,0,1.83-0.01,2.77c1.56-1.96,2.53-3.15,2.53-3.15s0.11-0.04,0.3-0.12
			C194.29,133.06,193.35,133.23,192.39,133.4z"/>
		<path class="st17" d="M276.24,154.36c-1.77-5.38-4.48-10.11-8.15-14.19c-3.67-4.08-8.56-6.98-14.68-8.72
			c-6.11-1.74-12.84-2.61-20.18-2.61c-5.59,0-11.22,0.3-16.87,0.89c-4.1,0.43-9.42,1.2-15.97,2.29c-1.65,0.27-3.37,0.57-5.18,0.88
			c-0.19,0.08-0.3,0.12-0.3,0.12s-0.97,1.19-2.53,3.15c-4.62,5.82-14.49,18.45-19.88,27.04c-22,35.42-36.94,83.88-40.77,113.9
			c-0.59,4.63-0.99,8.92-1.22,12.83c-0.01,0.11-0.01,0.23-0.01,0.34c0.09,37.71,30.62,68.25,68.25,68.25s68.16-30.54,68.25-68.25
			c0-0.11,0-0.23-0.01-0.34c-0.23-3.91-0.63-8.2-1.22-12.83c-2.21-17.31-7.07-39.22-15.62-62.35c2.2-0.49,4.33-1.17,6.37-2.06
			c4.59-1.98,8.63-5.16,12.1-9.54c3.48-4.37,6.06-9.31,7.74-14.8c1.69-5.49,2.53-11.19,2.53-17.12
			C278.89,165.37,278.01,159.74,276.24,154.36z M253.52,185.45c-1.85,4.56-4.48,8.02-7.88,10.38c-0.83,0.57-1.68,1.08-2.55,1.51
			c-5.06-11.42-11.06-22.92-18.09-34.13c-3.28-5.24-6.67-10.17-10.09-14.81c6.63-2.17,12.78-3.25,18.44-3.25
			c4.35,0,8.25,0.89,11.68,2.68c3.43,1.79,6.17,4.66,8.21,8.59c2.04,3.94,3.06,8.76,3.06,14.46
			C256.3,176.03,255.38,180.89,253.52,185.45z"/>
		<path class="st17" d="M619.78,144.04c-1.11-3.28-3.18-6.15-6.2-8.6c-3.02-2.44-6.6-4.18-10.76-5.22
			c-4.16-1.03-8.5-1.55-13.01-1.55c-2.61,0-5.17,0.17-7.67,0.49c-2.5,0.33-4.77,0.79-6.81,1.39c-2.04,0.6-3.82,1.28-5.34,2.04
			s-3,1.7-4.44,2.81c-1.44,1.12-2.75,2.33-3.92,3.63s-2.62,3.26-4.36,5.87c0.54-10.6,0.98-18.29,1.31-23.08l1.47-19.4
			c-3.76,0.11-7.7,0.16-11.84,0.16c-3.15,0-7.13-0.05-11.92-0.16l-1.13,46.88l-1.95,37.92l-0.72,9.78h-48.56
			c-0.92-0.35-1.8-0.76-2.67-1.22c-3.91-2.06-6.66-4.98-8.26-8.76c-1.6-3.78-2.4-8.25-2.4-13.42c0-3.69,0.5-7.31,1.5-10.84
			c1.01-3.53,2.69-6.65,5.05-9.34s5.18-4.66,8.47-5.91c3.28-1.25,6.77-1.87,10.46-1.87c6.02,0,13.08,1.38,21.16,4.15l-1.22-17.85
			c-5.11-1.25-9.54-2.08-13.29-2.49c-3.75-0.41-7.4-0.61-10.93-0.61c-6.36,0-12.14,0.72-17.33,2.16s-9.91,4.16-14.15,8.15
			c-4.24,4-7.46,9.15-9.66,15.45c-2.2,6.31-3.3,12.89-3.3,19.74c0,5.16,0.66,10.18,2,15.04c0.76,2.78,1.73,5.31,2.94,7.62h-32.15
			c-1.15-0.81-2.01-1.95-2.6-3.42c-0.73-1.85-1.1-4.45-1.1-7.83c0-3.47,0.57-16.28,1.72-38.4h20.79c0-3.15,0.19-8.4,0.57-15.74
			H418.8c0.06-6.41,0.28-13.29,0.67-20.63c-5.77,1.41-9.67,2.31-11.68,2.69l-9.64,1.88c-0.32,7.55-0.65,12.91-0.97,16.06H384.9
			c-0.22,7.23-0.47,12.48-0.74,15.74h11.74l-1.87,33.92c-0.38,6.52-0.6,10.38-0.65,11.58c-0.06,1.19-0.08,2.15-0.08,2.85
			c0,0.44,0.01,0.87,0.03,1.3h-25.72c0.26-7.69,0.65-15.23,1.15-22.62c0.86-12.69,1.3-20.59,1.3-23.69c0-5.71-1.42-10.08-4.24-13.13
			c-2.83-3.04-6.75-5.26-11.75-6.64c-5-1.39-10.49-2.08-16.47-2.08c-5.27,0-10.74,0.35-16.39,1.06c-5.65,0.7-12.18,1.93-19.57,3.67
			c-0.49,3.2-0.83,5.6-1.02,7.17c-0.19,1.58-0.66,4.32-1.43,8.24c11.97-4.73,22.91-7.1,32.81-7.1c2.66,0,5.1,0.29,7.3,0.86
			c2.21,0.57,4,1.59,5.39,3.06c1.39,1.47,2.08,3.26,2.08,5.38c0,1.09-0.23,2.15-0.69,3.18c-0.47,1.03-1.19,2.03-2.17,2.98
			c-0.98,0.95-2.13,1.72-3.46,2.32c-1.34,0.6-3.12,1.21-5.35,1.84c-2.23,0.62-4.38,1.15-6.44,1.59c-7.78,1.68-14.04,3.35-18.77,5.01
			c-4.73,1.66-8.35,3.37-10.85,5.14c-2.5,1.76-4.54,3.6-6.12,5.5c-1.58,1.91-2.78,4-3.59,6.28c-0.82,2.28-1.23,4.59-1.23,6.93
			c0,4.08,1.05,8.13,3.14,12.15c2.1,4.02,5.35,6.96,9.75,8.81c0.64,0.27,1.31,0.52,2.01,0.75c0.35,0.12,0.71,0.23,1.08,0.34H555
			v-11.71c0.21-7.41,0.42-12.7,0.61-15.88c0.54-9.57,1.41-16.64,2.6-21.2c1.14-4.35,2.55-7.7,4.23-10.03
			c2.06-2.83,4.62-4.95,7.66-6.36c3.14-1.47,6.78-2.21,10.9-2.21c3.2,0,6.15,0.59,8.83,1.76c2.69,1.17,4.73,2.96,6.11,5.38
			c1.38,2.42,2.07,5.78,2.07,10.07c0,4.68-0.36,12.56-1.08,23.65c-0.73,11.09-1.47,19.84-2.22,26.25c4.67-0.1,8.82-0.16,12.46-0.16
			c3.36,0,7.25,0.06,11.65,0.16c0-4.83,0.08-9.1,0.24-12.8l1.98-35.63c0.27-4.95,0.41-8.59,0.41-10.93
			C621.45,150.77,620.89,147.33,619.78,144.04z M345.86,190.89c-0.11,2.1-0.22,4.14-0.35,6.11h-34.37c-0.73-1.35-1.1-2.87-1.1-4.56
			c0-1.41,0.26-2.73,0.77-3.95c0.52-1.23,1.35-2.4,2.49-3.51c1.15-1.11,2.55-2.12,4.21-3.02c1.66-0.89,3.52-1.7,5.59-2.4
			c2.07-0.71,4.81-1.54,8.24-2.49c3.43-0.95,5.82-1.66,7.18-2.12c1.36-0.46,2.59-0.96,3.68-1.51c1.08-0.54,2.66-1.49,4.73-2.85
			L345.86,190.89z"/>
	</g>
	<text transform="matrix(1 0 0 1 192.6807 101.9785)" class="st18 st19 st20">pocket</text>
</g>
<g id="Layer_9">
	<path class="st21" d="M141.56,1296h481.87c56.96,0,103.56-46.6,103.56-103.56v-24.87c0-56.96-46.6-103.56-103.56-103.56H141.56
		C84.6,1064,38,1110.6,38,1167.56v24.87C38,1249.4,84.6,1296,141.56,1296z"/>
	<path class="st21" d="M141.56,1027h481.87C680.4,1027,727,980.4,727,923.44v-24.87C727,841.6,680.4,795,623.44,795H141.56
		C84.6,795,38,841.6,38,898.56v24.87C38,980.4,84.6,1027,141.56,1027z"/>
	<path class="st21" d="M141.56,759h481.87C680.4,759,727,712.4,727,655.44v-24.87C727,573.6,680.4,527,623.44,527H141.56
		C84.6,527,38,573.6,38,630.56v24.87C38,712.4,84.6,759,141.56,759z"/>
	<g>
		
			<ellipse transform="matrix(0.7632 -0.6461 0.6461 0.7632 -259.4455 481.0427)" class="st7" cx="526.63" cy="594.52" rx="40.82" ry="33.1"/>
		
			<ellipse transform="matrix(0.6461 -0.7632 0.7632 0.6461 -220.4024 713.6708)" class="st7" cx="659.43" cy="594.52" rx="33.1" ry="40.82"/>
		
			<ellipse transform="matrix(0.7632 -0.6461 0.6461 0.7632 -261.0085 483.7932)" class="st6" cx="529.6" cy="598.03" rx="29.52" ry="23.94"/>
		
			<ellipse transform="matrix(0.6461 -0.7632 0.7632 0.6461 -224.0364 712.8485)" class="st6" cx="656.72" cy="598.03" rx="23.94" ry="29.52"/>
		<ellipse class="st7" cx="593.19" cy="658.81" rx="84.16" ry="75.19"/>
		
			<ellipse transform="matrix(0.7626 -0.6468 0.6468 0.7626 -292.5765 515.5705)" class="st6" cx="556.19" cy="656.43" rx="33.84" ry="32.15"/>
		
			<ellipse transform="matrix(0.6468 -0.7626 0.7626 0.6468 -277.0916 715.0659)" class="st6" cx="633.5" cy="656.71" rx="31.79" ry="33.84"/>
		<ellipse class="st8" cx="593.64" cy="688.03" rx="43.98" ry="40.29"/>
		<path class="st9" d="M604.94,685.38L604.94,685.38c7.96-9.53,1.19-24.02-11.23-24.02h0c-12.42,0-19.19,14.49-11.23,24.02l0,0
			C588.33,692.38,599.09,692.38,604.94,685.38z"/>
		<line class="st10" x1="593.92" y1="692.57" x2="593.92" y2="711.87"/>
		<path class="st11" d="M561,640.93c-2.14,0.53-8.94,2.49-14.19,9.08c-5.48,6.88-5.69,14.31-5.68,16.46"/>
		<path class="st11" d="M627.4,642.06c2.14,0.53,8.94,2.49,14.19,9.08c5.48,6.88,5.69,14.31,5.68,16.46"/>
		<line class="st10" x1="584.27" y1="711.87" x2="604.13" y2="711.87"/>
	</g>
	<g>
		
			<ellipse transform="matrix(0.7632 -0.6461 0.6461 0.7632 -432.3727 545.1449)" class="st22" cx="527.63" cy="862.52" rx="40.82" ry="33.1"/>
		
			<ellipse transform="matrix(0.6461 -0.7632 0.7632 0.6461 -424.5925 809.27)" class="st22" cx="660.43" cy="862.52" rx="33.1" ry="40.82"/>
		
			<ellipse transform="matrix(0.7632 -0.6461 0.6461 0.7632 -433.9358 547.8953)" class="st23" cx="530.6" cy="866.03" rx="29.52" ry="23.94"/>
		
			<ellipse transform="matrix(0.6461 -0.7632 0.7632 0.6461 -428.2265 808.4477)" class="st23" cx="657.72" cy="866.03" rx="23.94" ry="29.52"/>
		<ellipse class="st22" cx="594.19" cy="926.81" rx="84.16" ry="75.19"/>
		
			<ellipse transform="matrix(0.7626 -0.6468 0.6468 0.7626 -465.688 579.8301)" class="st23" cx="557.19" cy="924.43" rx="33.84" ry="32.15"/>
		
			<ellipse transform="matrix(0.6468 -0.7626 0.7626 0.6468 -481.1257 810.4796)" class="st23" cx="634.5" cy="924.71" rx="31.79" ry="33.84"/>
		<ellipse class="st24" cx="594.64" cy="956.03" rx="43.98" ry="40.29"/>
		<path class="st25" d="M605.94,953.38L605.94,953.38c7.96-9.53,1.19-24.02-11.23-24.02h0c-12.42,0-19.19,14.49-11.23,24.02l0,0
			C589.33,960.38,600.09,960.38,605.94,953.38z"/>
		<line class="st26" x1="594.92" y1="960.57" x2="594.92" y2="979.87"/>
		<path class="st11" d="M562,908.93c-2.14,0.53-8.94,2.49-14.19,9.08c-5.48,6.88-5.69,14.31-5.68,16.46"/>
		<path class="st11" d="M628.4,910.06c2.14,0.53,8.94,2.49,14.19,9.08c5.48,6.88,5.69,14.31,5.68,16.46"/>
		<line class="st26" x1="585.27" y1="979.87" x2="605.13" y2="979.87"/>
	</g>
	<g>
		
			<ellipse transform="matrix(0.7632 -0.6461 0.6461 0.7632 -608.3581 608.9019)" class="st27" cx="526.63" cy="1134.52" rx="40.82" ry="33.1"/>
		
			<ellipse transform="matrix(0.6461 -0.7632 0.7632 0.6461 -632.5432 904.7582)" class="st27" cx="659.43" cy="1134.52" rx="33.1" ry="40.82"/>
		
			<ellipse transform="matrix(0.7632 -0.6461 0.6461 0.7632 -608.7291 612.9445)" class="st28" cx="531.96" cy="1137.05" rx="28.43" ry="23.05"/>
		
			<ellipse transform="matrix(0.6461 -0.7632 0.7632 0.6461 -636.2638 901.7886)" class="st28" cx="654.36" cy="1137.05" rx="23.05" ry="28.43"/>
		<ellipse class="st27" cx="593.19" cy="1198.81" rx="84.16" ry="75.19"/>
		
			<ellipse transform="matrix(0.7626 -0.6468 0.6468 0.7626 -641.8616 643.7455)" class="st28" cx="556.19" cy="1196.43" rx="33.84" ry="32.15"/>
		
			<ellipse transform="matrix(0.6468 -0.7626 0.7626 0.6468 -687.0369 903.5235)" class="st28" cx="632.01" cy="1193.55" rx="30.61" ry="32.58"/>
		<ellipse class="st29" cx="593.64" cy="1228.03" rx="43.98" ry="40.29"/>
		<path class="st30" d="M604.94,1225.38L604.94,1225.38c7.96-9.53,1.19-24.02-11.23-24.02h0c-12.42,0-19.19,14.49-11.23,24.02h0
			C588.33,1232.38,599.09,1232.38,604.94,1225.38z"/>
		<line class="st31" x1="593.92" y1="1232.57" x2="593.92" y2="1251.87"/>
		<path class="st32" d="M561,1180.93c-2.14,0.53-8.94,2.48-14.19,9.08c-5.48,6.88-5.69,14.31-5.68,16.46"/>
		<path class="st32" d="M627.4,1182.06c2.14,0.53,8.94,2.48,14.19,9.08c5.48,6.88,5.69,14.31,5.68,16.46"/>
		<line class="st31" x1="584.27" y1="1251.87" x2="604.13" y2="1251.87"/>
	</g>
</g>
<g id="Layer_5">
</g>
<g id="Layer_6">
</g>
<g id="Text" class="st37">
	<text transform="matrix(1 0 0 1 107.6597 666.4253)" class="st38 st39 st40">ok</text>
	<text transform="matrix(1 0 0 1 91.6597 935.4253)" class="st41 st39 st40">wound up</text>
	<text transform="matrix(1 0 0 1 106.6597 1198.4253)" class="st42 st39 st40">upset</text>
	<text transform="matrix(1 0 0 1 91.6807 507.9785)" class="st43 st39 st44">I feel...</text>
</g>
<g id="Layer_7" class="st37">
</g>
</svg>
