<?xml version="1.0" encoding="utf-8"?>
<!-- Generator: Adobe Illustrator 23.0.2, SVG Export Plug-In . SVG Version: 6.00 Build 0)  -->
<svg version="1.1" xmlns="http://www.w3.org/2000/svg" xmlns:xlink="http://www.w3.org/1999/xlink" x="0px" y="0px"
	 viewBox="0 0 750 1334" style="enable-background:new 0 0 750 1334;" xml:space="preserve">
<style type="text/css">
	.st0{fill:#FFCC99;}
	.st1{fill:#CCCCFF;}
	.st2{fill:#D7D7FF;}
	.st3{fill:#E1E1FF;}
	.st4{fill:#EBEBFF;}
	.st5{fill:#F5F5FF;}
	.st6{fill:#FFCC66;stroke:#FBDD3B;stroke-width:2;stroke-miterlimit:10;}
	.st7{fill:#FFEE96;stroke:#FBDD3B;stroke-width:2;stroke-miterlimit:10;}
	.st8{fill:#FFF4CD;stroke:#FBDD3B;stroke-width:2;stroke-miterlimit:10;}
	.st9{fill:#FFCC66;}
	.st10{fill:none;stroke:#FFCC66;stroke-width:6;stroke-miterlimit:10;}
	.st11{fill:none;stroke:#FFF4CD;stroke-width:6;stroke-miterlimit:10;}
	.st12{opacity:0.49;}
	.st13{fill:#CC99FF;stroke:#CC99FF;stroke-width:2;stroke-miterlimit:10;}
	.st14{fill:#CC99FF;stroke:#CC99FF;stroke-miterlimit:10;}
	.st15{fill:#CC99FF;stroke:#CC99FF;stroke-width:6;stroke-miterlimit:10;}
	.st16{fill:#FFEE96;stroke:#FFCC66;stroke-width:2;stroke-miterlimit:10;}
	.st17{fill:#9966FF;}
	.st18{fill:#7F47DD;}
	.st19{fill:#FFFFF5;}
	.st20{fill:#ED5E9F;stroke:#ED1E79;stroke-width:2;stroke-miterlimit:10;}
	.st21{fill:#C0145A;stroke:#ED1E79;stroke-width:2;stroke-miterlimit:10;}
	.st22{fill:#FFF4CD;stroke:#ED1E79;stroke-width:2;stroke-miterlimit:10;}
	.st23{fill:#C0145A;stroke:#ED1E79;stroke-miterlimit:10;}
	.st24{fill:none;stroke:#ED1E79;stroke-width:6;stroke-miterlimit:10;}
	.st25{fill:#FF9966;stroke:#FF6633;stroke-width:2;stroke-miterlimit:10;}
	.st26{fill:#CC6633;stroke:#FF6633;stroke-width:2;stroke-miterlimit:10;}
	.st27{fill:#FFF4CD;stroke:#FF6633;stroke-width:2;stroke-miterlimit:10;}
	.st28{fill:#CC6633;stroke:#FF6633;stroke-miterlimit:10;}
	.st29{fill:#FF9966;stroke:#FF6633;stroke-width:6;stroke-miterlimit:10;}
	.st30{fill:none;stroke:#FF6633;stroke-width:6;stroke-miterlimit:10;}
	.st31{opacity:0.4;fill:#FFCCFF;}
	.st32{opacity:0.4;fill:#CC99FF;}
	.st33{opacity:0.4;fill:#9966FF;}
	.st34{opacity:0.4;fill:#7F47DD;}
	.st35{fill:#FFCCFF;}
	.st36{fill:#CC99FF;}
	.st37{fill:#CC99FF;stroke:#7F47DD;stroke-width:8;stroke-miterlimit:10;}
	.st38{fill:none;stroke:#EBB885;stroke-width:8;stroke-miterlimit:10;}
</style>
<g id="Layer_1">
	<rect x="0.5" y="2" class="st0" width="750" height="1331.5"/>
	<path class="st1" d="M698.95,854.48c0.03,0.48,0.05,0.96,0.05,1.45c-0.44,157.78-145,285.57-323.25,285.57
		S52.94,1013.71,52.5,855.93c0-0.48,0.01-0.97,0.05-1.45c1.09-16.34,2.99-34.31,5.78-53.66c18.14-125.62,88.88-328.39,193.09-476.61
		c34.17-48.09,106.13-126.33,106.13-126.33s26.76-9.78,36.4,0c35.76,36.31,71.96,78.24,106.13,126.33
		c118.98,167.47,174.96,351,193.09,476.61C695.96,820.17,697.87,838.14,698.95,854.48z"/>
	<path class="st2" d="M662.67,868.02c0.03,0.43,0.04,0.86,0.04,1.29c-0.39,139.89-128.57,253.19-286.6,253.19
		S89.89,1009.2,89.5,869.31c0-0.43,0.01-0.86,0.04-1.29c0.96-14.49,2.65-30.42,5.13-47.58c16.08-111.38,78.8-291.16,171.2-422.58
		c30.29-42.64,94.1-112.01,94.1-112.01s23.73-8.67,32.27,0c31.7,32.19,63.8,69.37,94.1,112.01
		c105.49,148.49,155.12,311.2,171.2,422.58C660.01,837.6,661.7,853.53,662.67,868.02z"/>
	<path class="st3" d="M621.83,888.35c0.02,0.37,0.04,0.73,0.04,1.1c-0.34,119.92-110.21,217.05-245.68,217.05
		s-245.35-97.13-245.68-217.05c0-0.37,0.01-0.73,0.04-1.1c0.83-12.42,2.27-26.08,4.39-40.79c13.79-95.47,67.55-249.59,146.76-362.25
		c25.97-36.55,80.66-96.01,80.66-96.01s20.34-7.44,27.67,0c27.18,27.6,54.69,59.47,80.66,96.01
		c90.43,127.29,132.97,266.77,146.76,362.25C619.56,862.27,621.01,875.94,621.83,888.35z"/>
	<path class="st3" d="M621.83,888.35c0.02,0.37,0.04,0.73,0.04,1.1c-0.34,119.92-110.21,217.05-245.68,217.05
		s-245.35-97.13-245.68-217.05c0-0.37,0.01-0.73,0.04-1.1c0.83-12.42,2.27-26.08,4.39-40.79c13.79-95.47,67.55-249.59,146.76-362.25
		c25.97-36.55,80.66-96.01,80.66-96.01s20.34-7.44,27.67,0c27.18,27.6,54.69,59.47,80.66,96.01
		c90.43,127.29,132.97,266.77,146.76,362.25C619.56,862.27,621.01,875.94,621.83,888.35z"/>
	<path class="st4" d="M590.78,896.9c0.02,0.32,0.03,0.64,0.03,0.96c-0.29,104.77-96.29,189.63-214.65,189.63
		S161.8,1002.64,161.5,897.87c0-0.32,0.01-0.64,0.03-0.96c0.72-10.85,1.99-22.78,3.84-35.64c12.04-83.42,59.02-218.07,128.22-316.49
		c22.69-31.93,70.47-83.89,70.47-83.89s17.77-6.5,24.17,0c23.75,24.11,47.79,51.95,70.47,83.89
		c79.01,111.21,116.18,233.08,128.22,316.49C588.79,874.12,590.06,886.06,590.78,896.9z"/>
	<ellipse class="st5" cx="376" cy="904.5" rx="183" ry="163.5"/>
	
		<ellipse transform="matrix(0.3028 -0.9531 0.9531 0.3028 -577.3887 1135.7452)" class="st6" cx="487.56" cy="962.5" rx="67.51" ry="128.08"/>
	
		<ellipse transform="matrix(0.9531 -0.3028 0.3028 0.9531 -279.485 122.2601)" class="st6" cx="254.56" cy="962.5" rx="128.08" ry="67.51"/>
	<path class="st6" d="M256.74,853.7c-20.63,31.41-46.23,54.5-68.92,64.53c-8.75,3.86-17.06,5.79-24.49,5.51
		c-8.02-2.79-16.89-8.65-25.72-16.95c-10.15-9.53-20.25-22.25-28.98-37.21c-23.25-39.84-27.9-80.42-10.4-90.63
		c13.64-7.97,36.73,4.88,57.27,29.81c2.84-5.15,5.95-10.31,9.32-15.43c34.67-52.79,83.35-82.07,108.73-65.4
		C298.93,744.61,291.4,800.91,256.74,853.7z"/>
	<path class="st6" d="M630.02,869.58c-23.25,39.85-56.29,63.87-73.79,53.66c-0.35-0.2-0.68-0.42-1.01-0.65
		c-25.37-5.72-57.07-31.38-81.71-68.89c-34.67-52.79-42.24-109.07-16.9-125.71c25.33-16.64,73.98,12.66,108.65,65.45
		c4.77,7.27,9.03,14.6,12.76,21.89c21.7-29.18,47.6-45.02,62.4-36.38C657.92,789.16,653.27,829.74,630.02,869.58z"/>
	<path class="st6" d="M160.99,784.18c-2.67,4.09-22.1,33.83-49.14,25.05c-15.22-4.94-25.32-18.35-26.79-33.32
		c-3.28-7.52-4.33-21.87-2.25-37.99c2.98-23.1,11.25-41.07,18.48-40.15c6.65,0.86,10.1,17.43,8.29,38.08
		c8.13-3.22,17.39-3.72,26.36-0.81c4.9,1.59,9.77,4.76,10.3,5.11c8.88,6.01,15.55,15.45,13.92,17.47c-0.32,0.02-0.61,0.14-0.87,0.33
		c-1.72-0.08-5.51-2.34-12.75-3.7c-6.87-1.27-13.73-2.55-19.28,1.1c-6.15,4.05-9.84,13.61-6.82,17.76
		c4.91,6.74,29.68,2.36,35.66-9.45c1-1.99,1.78-4.78,3.19-5.71c0.39,0.01,0.68-0.08,0.87-0.33c2.35-0.16,4.87,4.46,5.76,8.18
		C167.76,773.62,163.15,780.87,160.99,784.18z"/>
	<path class="st6" d="M579.09,789.18c2.67,4.09,22.1,33.83,49.14,25.05c15.22-4.94,25.32-18.35,26.79-33.32
		c3.28-7.52,4.33-21.87,2.25-37.99c-2.98-23.1-11.25-41.07-18.48-40.15c-6.65,0.86-10.1,17.43-8.29,38.08
		c-8.13-3.22-17.39-3.72-26.36-0.81c-4.9,1.59-9.77,4.76-10.3,5.11c-8.88,6.01-15.55,15.45-13.92,17.47
		c0.32,0.02,0.61,0.14,0.87,0.33c1.72-0.08,5.51-2.34,12.75-3.7c6.87-1.27,13.73-2.55,19.28,1.1c6.15,4.05,9.84,13.61,6.82,17.76
		c-4.91,6.74-29.68,2.36-35.66-9.45c-1-1.99-1.78-4.78-3.19-5.71c-0.39,0.01-0.68-0.08-0.87-0.33c-2.35-0.16-4.87,4.46-5.76,8.18
		C572.31,778.62,576.92,785.87,579.09,789.18z"/>
	<ellipse transform="matrix(0.9627 -0.2705 0.2705 0.9627 -256.9186 169.929)" class="st6" cx="488" cy="1017" rx="128" ry="63"/>
	<path class="st6" d="M419,1060c0,28.72-20.37,52-45.5,52c-17.63,0-32.91-11.45-40.47-28.21c-25.77,5.42-59.71,3.79-95.07-6.14
		c-68.06-19.12-115.6-61.78-106.19-95.28c9.41-33.49,72.22-45.14,140.27-26.02c40.78,11.46,74.19,31.36,92.4,52.68
		c2.93-0.68,5.96-1.03,9.06-1.03C398.63,1008,419,1031.28,419,1060z"/>
	<ellipse class="st7" cx="370.97" cy="859.31" rx="177.97" ry="157.31"/>
	<ellipse class="st8" cx="370.56" cy="859.31" rx="148.56" ry="131.31"/>
	
		<ellipse transform="matrix(0.7632 -0.6461 0.6461 0.7632 -279.4655 291.8149)" class="st7" cx="258.43" cy="527.22" rx="71.93" ry="58.32"/>
	
		<ellipse transform="matrix(0.6461 -0.7632 0.7632 0.6461 -228.1334 562.4008)" class="st7" cx="492.43" cy="527.22" rx="58.32" ry="71.93"/>
	
		<ellipse transform="matrix(0.7632 -0.6461 0.6461 0.7632 -282.2197 296.6614)" class="st6" cx="263.67" cy="533.4" rx="52.02" ry="42.18"/>
	
		<ellipse transform="matrix(0.6461 -0.7632 0.7632 0.6461 -234.537 560.9519)" class="st6" cx="487.67" cy="533.4" rx="42.18" ry="52.02"/>
	<ellipse class="st7" cx="375.72" cy="640.5" rx="148.29" ry="132.5"/>
	
		<ellipse transform="matrix(0.7626 -0.6468 0.6468 0.7626 -337.8779 351.89)" class="st6" cx="310.52" cy="636.31" rx="59.63" ry="56.66"/>
	
		<ellipse transform="matrix(0.6468 -0.7626 0.7626 0.6468 -327.8676 565.6097)" class="st6" cx="446.75" cy="636.8" rx="56.02" ry="59.63"/>
	<ellipse class="st8" cx="376.5" cy="692" rx="77.5" ry="71"/>
	<path class="st9" d="M392.1,692.49l12.02-14.38c10.98-13.13,1.64-33.11-15.48-33.11h-24.04c-17.12,0-26.45,19.97-15.48,33.11
		l12.02,14.38C369.21,702.13,384.04,702.13,392.1,692.49z"/>
	<line class="st10" x1="377" y1="700" x2="377" y2="734"/>
	<line class="st10" x1="360" y1="734" x2="395" y2="734"/>
	<path class="st11" d="M319,609c-3.76,0.93-15.75,4.38-25,16c-9.66,12.13-10.03,25.22-10,29"/>
	<path class="st11" d="M436,611c3.76,0.93,15.75,4.38,25,16c9.66,12.13,10.03,25.22,10,29"/>
</g>
<g id="Layer_10" class="st12">
	<g>
		
			<ellipse transform="matrix(0.3028 -0.9531 0.9531 0.3028 -569.871 1156.4935)" class="st13" cx="505.5" cy="967.74" rx="79.14" ry="150.15"/>
		
			<ellipse transform="matrix(0.9531 -0.3028 0.3028 0.9531 -282.1132 115.7794)" class="st13" cx="232.35" cy="967.74" rx="150.15" ry="79.14"/>
		<path class="st13" d="M234.9,840.18c-24.19,36.82-54.2,63.89-80.8,75.65c-10.26,4.53-20,6.79-28.71,6.46
			c-9.4-3.27-19.8-10.14-30.15-19.87c-11.9-11.17-23.74-26.08-33.97-43.62c-27.26-46.71-32.71-94.28-12.19-106.25
			c15.99-9.34,43.06,5.72,67.14,34.95c3.33-6.04,6.98-12.09,10.93-18.09c40.65-61.89,97.71-96.21,127.47-76.67
			C284.36,712.29,275.53,778.3,234.9,840.18z"/>
		<path class="st13" d="M672.51,858.8c-27.26,46.72-65.99,74.88-86.51,62.91c-0.41-0.23-0.8-0.49-1.18-0.76
			c-29.74-6.71-66.91-36.79-95.79-80.76c-40.64-61.89-49.52-127.87-19.81-147.37c29.7-19.51,86.73,14.84,127.37,76.73
			c5.59,8.52,10.59,17.12,14.96,25.66c25.44-34.21,55.8-52.78,73.15-42.65C705.22,764.52,699.77,812.1,672.51,858.8z"/>
		<path class="st13" d="M122.64,758.69c-3.14,4.8-25.9,39.66-57.6,29.37c-17.84-5.79-29.69-21.51-31.41-39.06
			c-3.84-8.82-5.07-25.64-2.64-44.54c3.49-27.08,13.19-48.15,21.66-47.06c7.79,1.01,11.84,20.43,9.72,44.64
			c9.53-3.77,20.39-4.36,30.9-0.95c5.74,1.86,11.45,5.58,12.07,5.99c10.41,7.05,18.23,18.11,16.31,20.48
			c-0.38,0.03-0.72,0.16-1.02,0.38c-2.02-0.09-6.45-2.75-14.95-4.34c-8.06-1.49-16.1-3-22.6,1.29c-7.21,4.75-11.54,15.95-7.99,20.82
			c5.75,7.91,34.8,2.77,41.81-11.08c1.18-2.33,2.09-5.61,3.74-6.7c0.45,0.01,0.8-0.1,1.02-0.38c2.75-0.19,5.71,5.23,6.75,9.59
			C130.58,746.3,125.19,754.8,122.64,758.69z"/>
		<path class="st13" d="M612.8,764.55c3.14,4.8,25.9,39.66,57.6,29.37c17.84-5.79,29.69-21.51,31.41-39.06
			c3.84-8.82,5.07-25.64,2.64-44.54c-3.49-27.08-13.19-48.15-21.66-47.06c-7.79,1.01-11.84,20.43-9.72,44.64
			c-9.53-3.77-20.39-4.36-30.9-0.95c-5.74,1.86-11.45,5.58-12.07,5.99c-10.41,7.05-18.23,18.11-16.31,20.48
			c0.38,0.03,0.72,0.16,1.02,0.38c2.02-0.09,6.45-2.75,14.95-4.34c8.06-1.49,16.1-3,22.6,1.29c7.21,4.75,11.54,15.95,7.99,20.82
			c-5.75,7.91-34.8,2.77-41.81-11.08c-1.18-2.33-2.09-5.61-3.74-6.7c-0.45,0.01-0.8-0.1-1.02-0.38c-2.75-0.19-5.71,5.23-6.75,9.59
			C604.86,752.16,610.26,760.67,612.8,764.55z"/>
		
			<ellipse transform="matrix(0.9627 -0.2705 0.2705 0.9627 -260.204 175.3478)" class="st13" cx="506.02" cy="1031.63" rx="150.06" ry="73.86"/>
		<path class="st13" d="M425.12,1082.04c0,33.67-23.88,60.96-53.34,60.96c-20.67,0-38.58-13.42-47.44-33.07
			c-30.21,6.35-70,4.44-111.45-7.2c-79.79-22.41-135.52-72.43-124.49-111.7c11.03-39.26,84.67-52.92,164.44-30.5
			c47.81,13.44,86.98,36.76,108.32,61.76c3.44-0.8,6.99-1.21,10.62-1.21C401.24,1021.08,425.12,1048.37,425.12,1082.04z"/>
		<ellipse class="st13" cx="368.82" cy="846.76" rx="208.65" ry="184.42"/>
		<ellipse class="st13" cx="368.33" cy="846.76" rx="174.16" ry="153.94"/>
		
			<ellipse transform="matrix(0.7632 -0.6461 0.6461 0.7632 -239.4799 261.3691)" class="st13" cx="236.88" cy="457.44" rx="84.32" ry="68.37"/>
		
			<ellipse transform="matrix(0.6461 -0.7632 0.7632 0.6461 -168.2298 552.0403)" class="st13" cx="511.21" cy="457.44" rx="68.37" ry="84.32"/>
		<path class="st13" d="M211.07,426.95c25.71-21.76,60.85-22.51,78.49-1.67"/>
		
			<ellipse transform="matrix(0.6461 -0.7632 0.7632 0.6461 -175.7369 550.3417)" class="st13" cx="505.62" cy="464.69" rx="49.45" ry="60.98"/>
		<ellipse class="st13" cx="374.38" cy="590.24" rx="173.85" ry="155.34"/>
		
			<ellipse transform="matrix(0.7626 -0.6468 0.6468 0.7626 -307.8869 331.658)" class="st13" cx="297.95" cy="585.33" rx="69.91" ry="66.42"/>
		
			<ellipse transform="matrix(0.6468 -0.7626 0.7626 0.6468 -285.2005 555.9517)" class="st13" cx="457.65" cy="585.9" rx="65.68" ry="69.91"/>
		<ellipse class="st13" cx="375.3" cy="650.62" rx="90.86" ry="83.24"/>
		<path class="st14" d="M390.92,654.38l21.53-25.75c10.98-13.13,1.64-33.11-15.48-33.11h-43.06c-17.12,0-26.45,19.97-15.48,33.11
			l21.53,25.75C368.03,664.02,382.86,664.02,390.92,654.38z"/>
		<line class="st15" x1="375.89" y1="660" x2="375.89" y2="699.86"/>
		<path class="st15" d="M307.89,553.31c-4.41,1.09-18.46,5.13-29.31,18.76c-11.32,14.22-11.76,29.57-11.72,34"/>
		<path class="st15" d="M445.05,555.66c4.41,1.09,18.46,5.13,29.31,18.76c11.32,14.22,11.76,29.57,11.72,34"/>
		<line class="st15" x1="355.96" y1="699.86" x2="396.99" y2="699.86"/>
	</g>
</g>
<g id="Layer_11">
	
		<ellipse transform="matrix(0.3028 -0.9531 0.9531 0.3028 -577.3887 1135.7452)" class="st6" cx="487.56" cy="962.5" rx="67.51" ry="128.08"/>
	
		<ellipse transform="matrix(0.9531 -0.3028 0.3028 0.9531 -279.485 122.2601)" class="st6" cx="254.56" cy="962.5" rx="128.08" ry="67.51"/>
	<path class="st6" d="M256.74,853.7c-20.63,31.41-46.23,54.5-68.92,64.53c-8.75,3.86-17.06,5.79-24.49,5.51
		c-8.02-2.79-16.89-8.65-25.72-16.95c-10.15-9.53-20.25-22.25-28.98-37.21c-23.25-39.84-27.9-80.42-10.4-90.63
		c13.64-7.97,36.73,4.88,57.27,29.81c2.84-5.15,5.95-10.31,9.32-15.43c34.67-52.79,83.35-82.07,108.73-65.4
		C298.93,744.61,291.4,800.91,256.74,853.7z"/>
	<path class="st6" d="M630.02,869.58c-23.25,39.85-56.29,63.87-73.79,53.66c-0.35-0.2-0.68-0.42-1.01-0.65
		c-25.37-5.72-57.07-31.38-81.71-68.89c-34.67-52.79-42.24-109.07-16.9-125.71c25.33-16.64,73.98,12.66,108.65,65.45
		c4.77,7.27,9.03,14.6,12.76,21.89c21.7-29.18,47.6-45.02,62.4-36.38C657.92,789.16,653.27,829.74,630.02,869.58z"/>
	<path class="st6" d="M160.99,784.18c-2.67,4.09-22.1,33.83-49.14,25.05c-15.22-4.94-25.32-18.35-26.79-33.32
		c-3.28-7.52-4.33-21.87-2.25-37.99c2.98-23.1,11.25-41.07,18.48-40.15c6.65,0.86,10.1,17.43,8.29,38.08
		c8.13-3.22,17.39-3.72,26.36-0.81c4.9,1.59,9.77,4.76,10.3,5.11c8.88,6.01,15.55,15.45,13.92,17.47c-0.32,0.02-0.61,0.14-0.87,0.33
		c-1.72-0.08-5.51-2.34-12.75-3.7c-6.87-1.27-13.73-2.55-19.28,1.1c-6.15,4.05-9.84,13.61-6.82,17.76
		c4.91,6.74,29.68,2.36,35.66-9.45c1-1.99,1.78-4.78,3.19-5.71c0.39,0.01,0.68-0.08,0.87-0.33c2.35-0.16,4.87,4.46,5.76,8.18
		C167.76,773.62,163.15,780.87,160.99,784.18z"/>
	<path class="st6" d="M579.09,789.18c2.67,4.09,22.1,33.83,49.14,25.05c15.22-4.94,25.32-18.35,26.79-33.32
		c3.28-7.52,4.33-21.87,2.25-37.99c-2.98-23.1-11.25-41.07-18.48-40.15c-6.65,0.86-10.1,17.43-8.29,38.08
		c-8.13-3.22-17.39-3.72-26.36-0.81c-4.9,1.59-9.77,4.76-10.3,5.11c-8.88,6.01-15.55,15.45-13.92,17.47
		c0.32,0.02,0.61,0.14,0.87,0.33c1.72-0.08,5.51-2.34,12.75-3.7c6.87-1.27,13.73-2.55,19.28,1.1c6.15,4.05,9.84,13.61,6.82,17.76
		c-4.91,6.74-29.68,2.36-35.66-9.45c-1-1.99-1.78-4.78-3.19-5.71c-0.39,0.01-0.68-0.08-0.87-0.33c-2.35-0.16-4.87,4.46-5.76,8.18
		C572.31,778.62,576.92,785.87,579.09,789.18z"/>
	<ellipse transform="matrix(0.9627 -0.2705 0.2705 0.9627 -256.9186 169.929)" class="st6" cx="488" cy="1017" rx="128" ry="63"/>
	<path class="st6" d="M419,1060c0,28.72-20.37,52-45.5,52c-17.63,0-32.91-11.45-40.47-28.21c-25.77,5.42-59.71,3.79-95.07-6.14
		c-68.06-19.12-115.6-61.78-106.19-95.28c9.41-33.49,72.22-45.14,140.27-26.02c40.78,11.46,74.19,31.36,92.4,52.68
		c2.93-0.68,5.96-1.03,9.06-1.03C398.63,1008,419,1031.28,419,1060z"/>
	<ellipse class="st7" cx="370.97" cy="859.31" rx="177.97" ry="157.31"/>
	<ellipse class="st8" cx="370.56" cy="859.31" rx="148.56" ry="131.31"/>
	
		<ellipse transform="matrix(0.7632 -0.6461 0.6461 0.7632 -279.4655 291.8149)" class="st7" cx="258.43" cy="527.22" rx="71.93" ry="58.32"/>
	
		<ellipse transform="matrix(0.6461 -0.7632 0.7632 0.6461 -228.1334 562.4008)" class="st7" cx="492.43" cy="527.22" rx="58.32" ry="71.93"/>
	
		<ellipse transform="matrix(0.7632 -0.6461 0.6461 0.7632 -282.2197 296.6614)" class="st6" cx="263.67" cy="533.4" rx="52.02" ry="42.18"/>
	
		<ellipse transform="matrix(0.6461 -0.7632 0.7632 0.6461 -234.537 560.9519)" class="st6" cx="487.67" cy="533.4" rx="42.18" ry="52.02"/>
	<ellipse class="st16" cx="375.72" cy="640.5" rx="148.29" ry="132.5"/>
	
		<ellipse transform="matrix(0.7626 -0.6468 0.6468 0.7626 -337.8779 351.89)" class="st6" cx="310.52" cy="636.31" rx="59.63" ry="56.66"/>
	
		<ellipse transform="matrix(0.6468 -0.7626 0.7626 0.6468 -327.8676 565.6097)" class="st6" cx="446.75" cy="636.8" rx="56.02" ry="59.63"/>
	<ellipse class="st8" cx="376.5" cy="692" rx="77.5" ry="71"/>
	<path class="st9" d="M392.1,692.49l12.02-14.38c10.98-13.13,1.64-33.11-15.48-33.11h-24.04c-17.12,0-26.45,19.97-15.48,33.11
		l12.02,14.38C369.21,702.13,384.04,702.13,392.1,692.49z"/>
	<line class="st10" x1="377" y1="700" x2="377" y2="734"/>
	<path class="st11" d="M319,609c-3.76,0.93-15.75,4.38-25,16c-9.66,12.13-10.03,25.22-10,29"/>
	<path class="st11" d="M436,611c3.76,0.93,15.75,4.38,25,16c9.66,12.13,10.03,25.22,10,29"/>
	<line class="st10" x1="360" y1="734" x2="395" y2="734"/>
</g>
<g id="Layer_8">
</g>
<g id="Layer_9">
</g>
<g id="Layer_5">
</g>
<g id="Layer_6">
</g>
<g id="Text">
</g>
<g id="Layer_7">
	<path class="st37" d="M84,84.8c0,0.04,0,0.08,0,0.12c-0.04,12.81-11.78,23.19-26.25,23.19S31.54,97.73,31.5,84.92
		c0-0.04,0-0.08,0-0.12c0.09-1.33,0.24-2.79,0.47-4.36c1.47-10.2,7.22-26.67,15.68-38.7c2.77-3.9,8.62-10.26,8.62-10.26
		s2.17-0.79,2.96,0c2.9,2.95,5.84,6.35,8.62,10.26c9.66,13.6,14.21,28.5,15.68,38.7C83.75,82.01,83.91,83.47,84,84.8z"/>
	<path class="st37" d="M155,84.8c0,0.04,0,0.08,0,0.12c-0.04,12.81-11.78,23.19-26.25,23.19c-14.47,0-26.21-10.38-26.25-23.19
		c0-0.04,0-0.08,0-0.12c0.09-1.33,0.24-2.79,0.47-4.36c1.47-10.2,7.22-26.67,15.68-38.7c2.77-3.9,8.62-10.26,8.62-10.26
		s2.17-0.79,2.96,0c2.9,2.95,5.84,6.35,8.62,10.26c9.66,13.6,14.21,28.5,15.68,38.7C154.75,82.01,154.91,83.47,155,84.8z"/>
	<path class="st37" d="M225,84.8c0,0.04,0,0.08,0,0.12c-0.04,12.81-11.78,23.19-26.25,23.19c-14.47,0-26.21-10.38-26.25-23.19
		c0-0.04,0-0.08,0-0.12c0.09-1.33,0.24-2.79,0.47-4.36c1.47-10.2,7.22-26.67,15.68-38.7c2.77-3.9,8.62-10.26,8.62-10.26
		s2.17-0.79,2.96,0c2.9,2.95,5.84,6.35,8.62,10.26c9.66,13.6,14.21,28.5,15.68,38.7C224.75,82.01,224.91,83.47,225,84.8z"/>
	<path class="st37" d="M296,84.8c0,0.04,0,0.08,0,0.12c-0.04,12.81-11.78,23.19-26.25,23.19c-14.47,0-26.21-10.38-26.25-23.19
		c0-0.04,0-0.08,0-0.12c0.09-1.33,0.24-2.79,0.47-4.36c1.47-10.2,7.22-26.67,15.68-38.7c2.77-3.9,8.62-10.26,8.62-10.26
		s2.17-0.79,2.96,0c2.9,2.95,5.84,6.35,8.62,10.26c9.66,13.6,14.21,28.5,15.68,38.7C295.75,82.01,295.91,83.47,296,84.8z"/>
	<path class="st37" d="M366,85.8c0,0.04,0,0.08,0,0.12c-0.04,12.81-11.78,23.19-26.25,23.19s-26.21-10.38-26.25-23.19
		c0-0.04,0-0.08,0-0.12c0.09-1.33,0.24-2.79,0.47-4.36c1.47-10.2,7.22-26.67,15.68-38.7c2.77-3.9,8.62-10.26,8.62-10.26
		s2.17-0.79,2.96,0c2.9,2.95,5.84,6.35,8.62,10.26c9.66,13.6,14.21,28.5,15.68,38.7C365.75,83.01,365.91,84.47,366,85.8z"/>
	<path class="st37" d="M439,84.8c0,0.04,0,0.08,0,0.12c-0.04,12.81-11.78,23.19-26.25,23.19s-26.21-10.38-26.25-23.19
		c0-0.04,0-0.08,0-0.12c0.09-1.33,0.24-2.79,0.47-4.36c1.47-10.2,7.22-26.67,15.68-38.7c2.77-3.9,8.62-10.26,8.62-10.26
		s2.17-0.79,2.96,0c2.9,2.95,5.84,6.35,8.62,10.26c9.66,13.6,14.21,28.5,15.68,38.7C438.75,82.01,438.91,83.47,439,84.8z"/>
	<path class="st38" d="M510,84.8c0,0.04,0,0.08,0,0.12c-0.04,12.81-11.78,23.19-26.25,23.19s-26.21-10.38-26.25-23.19
		c0-0.04,0-0.08,0-0.12c0.09-1.33,0.24-2.79,0.47-4.36c1.47-10.2,7.22-26.67,15.68-38.7c2.77-3.9,8.62-10.26,8.62-10.26
		s2.17-0.79,2.96,0c2.9,2.95,5.84,6.35,8.62,10.26c9.66,13.6,14.21,28.5,15.68,38.7C509.75,82.01,509.91,83.47,510,84.8z"/>
	<path class="st38" d="M580,84.8c0,0.04,0,0.08,0,0.12c-0.04,12.81-11.78,23.19-26.25,23.19s-26.21-10.38-26.25-23.19
		c0-0.04,0-0.08,0-0.12c0.09-1.33,0.24-2.79,0.47-4.36c1.47-10.2,7.22-26.67,15.68-38.7c2.77-3.9,8.62-10.26,8.62-10.26
		s2.17-0.79,2.96,0c2.9,2.95,5.84,6.35,8.62,10.26c9.66,13.6,14.21,28.5,15.68,38.7C579.75,82.01,579.91,83.47,580,84.8z"/>
	<path class="st38" d="M651,84.8c0,0.04,0,0.08,0,0.12c-0.04,12.81-11.78,23.19-26.25,23.19s-26.21-10.38-26.25-23.19
		c0-0.04,0-0.08,0-0.12c0.09-1.33,0.24-2.79,0.47-4.36c1.47-10.2,7.22-26.67,15.68-38.7c2.77-3.9,8.62-10.26,8.62-10.26
		s2.17-0.79,2.96,0c2.9,2.95,5.84,6.35,8.62,10.26c9.66,13.6,14.21,28.5,15.68,38.7C650.75,82.01,650.91,83.47,651,84.8z"/>
	<path class="st38" d="M721,85.8c0,0.04,0,0.08,0,0.12c-0.04,12.81-11.78,23.19-26.25,23.19s-26.21-10.38-26.25-23.19
		c0-0.04,0-0.08,0-0.12c0.09-1.33,0.24-2.79,0.47-4.36c1.47-10.2,7.22-26.67,15.68-38.7c2.77-3.9,8.62-10.26,8.62-10.26
		s2.17-0.79,2.96,0c2.9,2.95,5.84,6.35,8.62,10.26c9.66,13.6,14.21,28.5,15.68,38.7C720.75,83.01,720.91,84.47,721,85.8z"/>
</g>
</svg>
