<?xml version="1.0" encoding="utf-8"?>
<!-- Generator: Adobe Illustrator 23.0.2, SVG Export Plug-In . SVG Version: 6.00 Build 0)  -->
<svg version="1.1" xmlns="http://www.w3.org/2000/svg" xmlns:xlink="http://www.w3.org/1999/xlink" x="0px" y="0px"
	 viewBox="0 0 750 1334" style="enable-background:new 0 0 750 1334;" xml:space="preserve">
<style type="text/css">
	.st0{fill:#FFCC99;}
	.st1{fill:#CCCCFF;}
	.st2{fill:#D7D7FF;}
	.st3{fill:#E1E1FF;}
	.st4{fill:#EBEBFF;}
	.st5{fill:#F5F5FF;}
	.st6{fill:#FFCC66;stroke:#FBDD3B;stroke-width:2;stroke-miterlimit:10;}
	.st7{fill:#7F47DD;stroke:#BB83FF;stroke-width:2;stroke-miterlimit:10;}
	.st8{fill:#CC6633;stroke:#FF6633;stroke-width:2;stroke-miterlimit:10;}
	.st9{fill:#FFEE96;stroke:#FBDD3B;stroke-width:2;stroke-miterlimit:10;}
	.st10{fill:#FFF4CD;stroke:#FBDD3B;stroke-width:2;stroke-miterlimit:10;}
	.st11{fill:#CC99FF;stroke:#BB83FF;stroke-width:2;stroke-miterlimit:10;}
	.st12{fill:#FFF4CD;stroke:#BB83FF;stroke-width:2;stroke-miterlimit:10;}
	.st13{fill:#FF9966;stroke:#FF6633;stroke-width:2;stroke-miterlimit:10;}
	.st14{fill:#FFF4CD;stroke:#FF6633;stroke-width:2;stroke-miterlimit:10;}
	.st15{fill:#FFCC66;}
	.st16{fill:none;stroke:#FFCC66;stroke-width:6;stroke-miterlimit:10;}
	.st17{fill:none;stroke:#FFF4CD;stroke-width:6;stroke-miterlimit:10;}
</style>
<g id="Layer_8">
	<g id="Layer_1">
		<rect x="-769.5" y="0.5" class="st0" width="750" height="1334"/>
		<path class="st1" d="M-71.05,853.48c0.03,0.48,0.05,0.96,0.05,1.45c-0.44,157.78-145,285.57-323.25,285.57
			s-322.81-127.79-323.25-285.57c0-0.48,0.01-0.97,0.05-1.45c1.09-16.34,2.99-34.31,5.78-53.66
			c18.14-125.62,88.88-328.39,193.09-476.61c34.17-48.09,106.13-126.33,106.13-126.33s26.76-9.78,36.4,0
			c35.76,36.31,71.96,78.24,106.13,126.33c118.98,167.47,174.96,351,193.09,476.61C-74.04,819.17-72.13,837.14-71.05,853.48z"/>
		<rect x="-769.5" y="0.5" class="st0" width="750" height="1334"/>
		<path class="st1" d="M-71.05,853.48c0.03,0.48,0.05,0.96,0.05,1.45c-0.44,157.78-145,285.57-323.25,285.57
			s-322.81-127.79-323.25-285.57c0-0.48,0.01-0.97,0.05-1.45c1.09-16.34,2.99-34.31,5.78-53.66
			c18.14-125.62,88.88-328.39,193.09-476.61c34.17-48.09,106.13-126.33,106.13-126.33s26.76-9.78,36.4,0
			c35.76,36.31,71.96,78.24,106.13,126.33c118.98,167.47,174.96,351,193.09,476.61C-74.04,819.17-72.13,837.14-71.05,853.48z"/>
		<rect x="-0.5" y="0.5" class="st0" width="750" height="1334"/>
		<path class="st1" d="M697.95,853.48c0.03,0.48,0.05,0.96,0.05,1.45c-0.44,157.78-145,285.57-323.25,285.57
			S51.94,1012.71,51.5,854.93c0-0.48,0.01-0.97,0.05-1.45c1.09-16.34,2.99-34.31,5.78-53.66
			c18.14-125.62,88.88-328.39,193.09-476.61c34.17-48.09,106.13-126.33,106.13-126.33s26.76-9.78,36.4,0
			c35.76,36.31,71.96,78.24,106.13,126.33c118.98,167.47,174.96,351,193.09,476.61C694.96,819.17,696.87,837.14,697.95,853.48z"/>
		<rect x="770" y="1354" class="st0" width="750" height="1334"/>
		<path class="st1" d="M1468.45,2206.98c0.03,0.48,0.05,0.96,0.05,1.45c-0.44,157.78-145,285.57-323.25,285.57
			S822.44,2366.21,822,2208.43c0-0.48,0.01-0.97,0.05-1.45c1.09-16.34,2.99-34.31,5.78-53.66
			c18.14-125.62,88.88-328.39,193.09-476.61c34.17-48.09,106.13-126.33,106.13-126.33s26.76-9.78,36.4,0
			c35.76,36.31,71.96,78.24,106.13,126.33c118.98,167.47,174.96,351,193.09,476.61C1465.46,2172.67,1467.37,2190.64,1468.45,2206.98
			z"/>
		<rect x="2310" y="1354" class="st0" width="750" height="1334"/>
		<path class="st1" d="M3008.45,2206.98c0.03,0.48,0.05,0.96,0.05,1.45c-0.44,157.78-145,285.57-323.25,285.57
			s-322.81-127.79-323.25-285.57c0-0.48,0.01-0.97,0.05-1.45c1.09-16.34,2.99-34.31,5.78-53.66
			c18.14-125.62,88.88-328.39,193.09-476.61c34.17-48.09,106.13-126.33,106.13-126.33s26.76-9.78,36.4,0
			c35.76,36.31,71.96,78.24,106.13,126.33c118.98,167.47,174.96,351,193.09,476.61C3005.46,2172.67,3007.37,2190.64,3008.45,2206.98
			z"/>
		<rect x="769.5" y="0.5" class="st0" width="750" height="1334"/>
		<path class="st1" d="M1467.95,853.48c0.03,0.48,0.05,0.96,0.05,1.45c-0.44,157.78-145,285.57-323.25,285.57
			S821.94,1012.71,821.5,854.93c0-0.48,0.01-0.97,0.05-1.45c1.09-16.34,2.99-34.31,5.78-53.66
			c18.14-125.62,88.88-328.39,193.09-476.61c34.17-48.09,106.13-126.33,106.13-126.33s26.76-9.78,36.4,0
			c35.76,36.31,71.96,78.24,106.13,126.33c118.98,167.47,174.96,351,193.09,476.61C1464.96,819.17,1466.87,837.14,1467.95,853.48z"
			/>
		<rect x="0.5" y="1354" class="st0" width="750" height="1334"/>
		<path class="st1" d="M698.95,2206.98c0.03,0.48,0.05,0.96,0.05,1.45C698.56,2366.21,554,2494,375.75,2494
			S52.94,2366.21,52.5,2208.43c0-0.48,0.01-0.97,0.05-1.45c1.09-16.34,2.99-34.31,5.78-53.66
			c18.14-125.62,88.88-328.39,193.09-476.61c34.17-48.09,106.13-126.33,106.13-126.33s26.76-9.78,36.4,0
			c35.76,36.31,71.96,78.24,106.13,126.33c118.98,167.47,174.96,351,193.09,476.61C695.96,2172.67,697.87,2190.64,698.95,2206.98z"
			/>
		<rect x="2304" y="2" class="st0" width="750" height="1334"/>
		<path class="st1" d="M3006.95,854.48c0.03,0.48,0.05,0.96,0.05,1.45c-0.44,157.78-145,285.57-323.25,285.57
			s-322.81-127.79-323.25-285.57c0-0.48,0.01-0.97,0.05-1.45c1.09-16.34,2.99-34.31,5.78-53.66
			c18.14-125.62,88.88-328.39,193.09-476.61c34.17-48.09,106.13-126.33,106.13-126.33s26.76-9.78,36.4,0
			c35.76,36.31,71.96,78.24,106.13,126.33c118.98,167.47,174.96,351,193.09,476.61C3003.96,820.17,3005.87,838.14,3006.95,854.48z"
			/>
		<rect x="1540" class="st0" width="750" height="1334"/>
		<path class="st1" d="M2238.45,852.98c0.03,0.48,0.05,0.96,0.05,1.45c-0.44,157.78-145,285.57-323.25,285.57
			S1592.44,1012.21,1592,854.43c0-0.48,0.01-0.97,0.05-1.45c1.09-16.34,2.99-34.31,5.78-53.66
			c18.14-125.62,88.88-328.39,193.09-476.61c34.17-48.09,106.13-126.33,106.13-126.33s26.76-9.78,36.4,0
			c35.76,36.31,71.96,78.24,106.13,126.33c118.98,167.47,174.96,351,193.09,476.61C2235.46,818.67,2237.37,836.64,2238.45,852.98z"
			/>
		<rect x="1540" y="1354" class="st0" width="750" height="1334"/>
		<path class="st1" d="M2238.45,2206.98c0.03,0.48,0.05,0.96,0.05,1.45c-0.44,157.78-145,285.57-323.25,285.57
			s-322.81-127.79-323.25-285.57c0-0.48,0.01-0.97,0.05-1.45c1.09-16.34,2.99-34.31,5.78-53.66
			c18.14-125.62,88.88-328.39,193.09-476.61c34.17-48.09,106.13-126.33,106.13-126.33s26.76-9.78,36.4,0
			c35.76,36.31,71.96,78.24,106.13,126.33c118.98,167.47,174.96,351,193.09,476.61C2235.46,2172.67,2237.37,2190.64,2238.45,2206.98
			z"/>
		<rect x="-770" y="1354" class="st0" width="750" height="1334"/>
		<path class="st1" d="M-71.55,2206.98c0.03,0.48,0.05,0.96,0.05,1.45c-0.44,157.78-145,285.57-323.25,285.57
			S-717.56,2366.21-718,2208.43c0-0.48,0.01-0.97,0.05-1.45c1.09-16.34,2.99-34.31,5.78-53.66
			c18.14-125.62,88.88-328.39,193.09-476.61c34.17-48.09,106.13-126.33,106.13-126.33s26.76-9.78,36.4,0
			c35.76,36.31,71.96,78.24,106.13,126.33c118.98,167.47,174.96,351,193.09,476.61C-74.54,2172.67-72.63,2190.64-71.55,2206.98z"/>
	</g>
	<g id="Layer_11">
	</g>
	<g id="Layer_12">
	</g>
	<g id="Layer_2">
		<path class="st2" d="M-107.33,869.02c0.03,0.43,0.04,0.86,0.04,1.29c-0.39,139.89-128.57,253.19-286.6,253.19
			s-286.21-113.3-286.6-253.19c0-0.43,0.01-0.86,0.04-1.29c0.96-14.49,2.65-30.42,5.13-47.58c16.08-111.38,78.8-291.16,171.2-422.58
			c30.29-42.64,94.1-112.01,94.1-112.01s23.73-8.67,32.27,0c31.7,32.19,63.8,69.37,94.1,112.01
			c105.49,148.49,155.12,311.2,171.2,422.58C-109.99,838.6-108.3,854.53-107.33,869.02z"/>
		<path class="st2" d="M-107.33,869.02c0.03,0.43,0.04,0.86,0.04,1.29c-0.39,139.89-128.57,253.19-286.6,253.19
			s-286.21-113.3-286.6-253.19c0-0.43,0.01-0.86,0.04-1.29c0.96-14.49,2.65-30.42,5.13-47.58c16.08-111.38,78.8-291.16,171.2-422.58
			c30.29-42.64,94.1-112.01,94.1-112.01s23.73-8.67,32.27,0c31.7,32.19,63.8,69.37,94.1,112.01
			c105.49,148.49,155.12,311.2,171.2,422.58C-109.99,838.6-108.3,854.53-107.33,869.02z"/>
		<path class="st2" d="M661.67,869.02c0.03,0.43,0.04,0.86,0.04,1.29c-0.39,139.89-128.57,253.19-286.6,253.19
			S88.89,1010.2,88.5,870.31c0-0.43,0.01-0.86,0.04-1.29c0.96-14.49,2.65-30.42,5.13-47.58c16.08-111.38,78.8-291.16,171.2-422.58
			c30.29-42.64,94.1-112.01,94.1-112.01s23.73-8.67,32.27,0c31.7,32.19,63.8,69.37,94.1,112.01
			c105.49,148.49,155.12,311.2,171.2,422.58C659.01,838.6,660.7,854.53,661.67,869.02z"/>
		<path class="st2" d="M1432.17,2222.52c0.03,0.43,0.04,0.86,0.04,1.29c-0.39,139.89-128.57,253.19-286.6,253.19
			S859.39,2363.7,859,2223.81c0-0.43,0.01-0.86,0.04-1.29c0.96-14.49,2.65-30.42,5.13-47.58c16.08-111.38,78.8-291.16,171.2-422.58
			c30.29-42.64,94.1-112.01,94.1-112.01s23.73-8.67,32.27,0c31.7,32.19,63.8,69.37,94.1,112.01
			c105.49,148.49,155.12,311.2,171.2,422.58C1429.51,2192.1,1431.2,2208.03,1432.17,2222.52z"/>
		<path class="st2" d="M2972.17,2222.52c0.03,0.43,0.04,0.86,0.04,1.29c-0.39,139.89-128.57,253.19-286.6,253.19
			c-158.04,0-286.21-113.3-286.6-253.19c0-0.43,0.01-0.86,0.04-1.29c0.96-14.49,2.65-30.42,5.13-47.58
			c16.08-111.38,78.8-291.16,171.2-422.58c30.29-42.64,94.1-112.01,94.1-112.01s23.73-8.67,32.27,0
			c31.7,32.19,63.8,69.37,94.1,112.01c105.49,148.49,155.12,311.2,171.2,422.58C2969.51,2192.1,2971.2,2208.03,2972.17,2222.52z"/>
		<path class="st2" d="M1431.67,869.02c0.03,0.43,0.04,0.86,0.04,1.29c-0.39,139.89-128.57,253.19-286.6,253.19
			s-286.21-113.3-286.6-253.19c0-0.43,0.01-0.86,0.04-1.29c0.96-14.49,2.65-30.42,5.13-47.58c16.08-111.38,78.8-291.16,171.2-422.58
			c30.29-42.64,94.1-112.01,94.1-112.01s23.73-8.67,32.27,0c31.7,32.19,63.8,69.37,94.1,112.01
			c105.49,148.49,155.12,311.2,171.2,422.58C1429.01,838.6,1430.7,854.53,1431.67,869.02z"/>
		<path class="st2" d="M662.67,2222.52c0.03,0.43,0.04,0.86,0.04,1.29C662.31,2363.7,534.14,2477,376.1,2477
			S89.89,2363.7,89.5,2223.81c0-0.43,0.01-0.86,0.04-1.29c0.96-14.49,2.65-30.42,5.13-47.58c16.08-111.38,78.8-291.16,171.2-422.58
			c30.29-42.64,94.1-112.01,94.1-112.01s23.73-8.67,32.27,0c31.7,32.19,63.8,69.37,94.1,112.01
			c105.49,148.49,155.12,311.2,171.2,422.58C660.01,2192.1,661.7,2208.03,662.67,2222.52z"/>
		<path class="st2" d="M2970.67,870.02c0.03,0.43,0.04,0.86,0.04,1.29c-0.39,139.89-128.57,253.19-286.6,253.19
			c-158.04,0-286.21-113.3-286.6-253.19c0-0.43,0.01-0.86,0.04-1.29c0.96-14.49,2.65-30.42,5.13-47.58
			c16.08-111.38,78.8-291.16,171.2-422.58c30.29-42.64,94.1-112.01,94.1-112.01s23.73-8.67,32.27,0
			c31.7,32.19,63.8,69.37,94.1,112.01c105.49,148.49,155.12,311.2,171.2,422.58C2968.01,839.6,2969.7,855.53,2970.67,870.02z"/>
		<path class="st2" d="M2202.17,868.52c0.03,0.43,0.04,0.86,0.04,1.29c-0.39,139.89-128.57,253.19-286.6,253.19
			s-286.21-113.3-286.6-253.19c0-0.43,0.01-0.86,0.04-1.29c0.96-14.49,2.65-30.42,5.13-47.58c16.08-111.38,78.8-291.16,171.2-422.58
			c30.29-42.64,94.1-112.01,94.1-112.01s23.73-8.67,32.27,0c31.7,32.19,63.8,69.37,94.1,112.01
			c105.49,148.49,155.12,311.2,171.2,422.58C2199.51,838.1,2201.2,854.03,2202.17,868.52z"/>
		<path class="st2" d="M2202.17,2222.52c0.03,0.43,0.04,0.86,0.04,1.29c-0.39,139.89-128.57,253.19-286.6,253.19
			s-286.21-113.3-286.6-253.19c0-0.43,0.01-0.86,0.04-1.29c0.96-14.49,2.65-30.42,5.13-47.58c16.08-111.38,78.8-291.16,171.2-422.58
			c30.29-42.64,94.1-112.01,94.1-112.01s23.73-8.67,32.27,0c31.7,32.19,63.8,69.37,94.1,112.01
			c105.49,148.49,155.12,311.2,171.2,422.58C2199.51,2192.1,2201.2,2208.03,2202.17,2222.52z"/>
		<path class="st2" d="M-107.83,2222.52c0.03,0.43,0.04,0.86,0.04,1.29C-108.19,2363.7-236.36,2477-394.4,2477
			s-286.21-113.3-286.6-253.19c0-0.43,0.01-0.86,0.04-1.29c0.96-14.49,2.65-30.42,5.13-47.58c16.08-111.38,78.8-291.16,171.2-422.58
			c30.29-42.64,94.1-112.01,94.1-112.01s23.73-8.67,32.27,0c31.7,32.19,63.8,69.37,94.1,112.01
			c105.49,148.49,155.12,311.2,171.2,422.58C-110.49,2192.1-108.8,2208.03-107.83,2222.52z"/>
	</g>
	<g id="Layer_3">
		<path class="st3" d="M-148.17,889.35c0.02,0.37,0.04,0.73,0.04,1.1c-0.34,119.92-110.21,217.05-245.68,217.05
			s-245.35-97.13-245.68-217.05c0-0.37,0.01-0.73,0.04-1.1c0.83-12.42,2.27-26.08,4.39-40.79
			c13.79-95.47,67.55-249.59,146.76-362.25c25.97-36.55,80.66-96.01,80.66-96.01s20.34-7.44,27.67,0
			c27.18,27.6,54.69,59.47,80.66,96.01c90.43,127.29,132.97,266.77,146.76,362.25C-150.44,863.27-148.99,876.94-148.17,889.35z"/>
		<path class="st3" d="M-148.17,889.35c0.02,0.37,0.04,0.73,0.04,1.1c-0.34,119.92-110.21,217.05-245.68,217.05
			s-245.35-97.13-245.68-217.05c0-0.37,0.01-0.73,0.04-1.1c0.83-12.42,2.27-26.08,4.39-40.79
			c13.79-95.47,67.55-249.59,146.76-362.25c25.97-36.55,80.66-96.01,80.66-96.01s20.34-7.44,27.67,0
			c27.18,27.6,54.69,59.47,80.66,96.01c90.43,127.29,132.97,266.77,146.76,362.25C-150.44,863.27-148.99,876.94-148.17,889.35z"/>
		<path class="st3" d="M620.83,889.35c0.02,0.37,0.04,0.73,0.04,1.1c-0.34,119.92-110.21,217.05-245.68,217.05
			s-245.35-97.13-245.68-217.05c0-0.37,0.01-0.73,0.04-1.1c0.83-12.42,2.27-26.08,4.39-40.79
			c13.79-95.47,67.55-249.59,146.76-362.25c25.97-36.55,80.66-96.01,80.66-96.01s20.34-7.44,27.67,0
			c27.18,27.6,54.69,59.47,80.66,96.01c90.43,127.29,132.97,266.77,146.76,362.25C618.56,863.27,620.01,876.94,620.83,889.35z"/>
		<path class="st3" d="M1391.33,2242.85c0.02,0.37,0.04,0.73,0.04,1.1c-0.34,119.92-110.21,217.05-245.68,217.05
			S900.34,2363.87,900,2243.95c0-0.37,0.01-0.73,0.04-1.1c0.83-12.42,2.27-26.08,4.39-40.79c13.79-95.47,67.55-249.59,146.76-362.25
			c25.97-36.55,80.66-96.01,80.66-96.01s20.34-7.44,27.67,0c27.18,27.6,54.69,59.47,80.66,96.01
			c90.43,127.29,132.97,266.77,146.76,362.25C1389.06,2216.77,1390.51,2230.44,1391.33,2242.85z"/>
		<path class="st3" d="M621.83,2242.85c0.02,0.37,0.04,0.73,0.04,1.1C621.53,2363.87,511.66,2461,376.19,2461
			s-245.35-97.13-245.68-217.05c0-0.37,0.01-0.73,0.04-1.1c0.83-12.42,2.27-26.08,4.39-40.79
			c13.79-95.47,67.55-249.59,146.76-362.25c25.97-36.55,80.66-96.01,80.66-96.01s20.34-7.44,27.67,0
			c27.18,27.6,54.69,59.47,80.66,96.01c90.43,127.29,132.97,266.77,146.76,362.25C619.56,2216.77,621.01,2230.44,621.83,2242.85z"/>
		<path class="st3" d="M-148.17,889.35c0.02,0.37,0.04,0.73,0.04,1.1c-0.34,119.92-110.21,217.05-245.68,217.05
			s-245.35-97.13-245.68-217.05c0-0.37,0.01-0.73,0.04-1.1c0.83-12.42,2.27-26.08,4.39-40.79
			c13.79-95.47,67.55-249.59,146.76-362.25c25.97-36.55,80.66-96.01,80.66-96.01s20.34-7.44,27.67,0
			c27.18,27.6,54.69,59.47,80.66,96.01c90.43,127.29,132.97,266.77,146.76,362.25C-150.44,863.27-148.99,876.94-148.17,889.35z"/>
		<path class="st3" d="M620.83,889.35c0.02,0.37,0.04,0.73,0.04,1.1c-0.34,119.92-110.21,217.05-245.68,217.05
			s-245.35-97.13-245.68-217.05c0-0.37,0.01-0.73,0.04-1.1c0.83-12.42,2.27-26.08,4.39-40.79
			c13.79-95.47,67.55-249.59,146.76-362.25c25.97-36.55,80.66-96.01,80.66-96.01s20.34-7.44,27.67,0
			c27.18,27.6,54.69,59.47,80.66,96.01c90.43,127.29,132.97,266.77,146.76,362.25C618.56,863.27,620.01,876.94,620.83,889.35z"/>
		<path class="st3" d="M1391.33,2242.85c0.02,0.37,0.04,0.73,0.04,1.1c-0.34,119.92-110.21,217.05-245.68,217.05
			S900.34,2363.87,900,2243.95c0-0.37,0.01-0.73,0.04-1.1c0.83-12.42,2.27-26.08,4.39-40.79c13.79-95.47,67.55-249.59,146.76-362.25
			c25.97-36.55,80.66-96.01,80.66-96.01s20.34-7.44,27.67,0c27.18,27.6,54.69,59.47,80.66,96.01
			c90.43,127.29,132.97,266.77,146.76,362.25C1389.06,2216.77,1390.51,2230.44,1391.33,2242.85z"/>
		<path class="st3" d="M2931.33,2242.85c0.02,0.37,0.04,0.73,0.04,1.1c-0.34,119.92-110.21,217.05-245.68,217.05
			c-135.48,0-245.35-97.13-245.68-217.05c0-0.37,0.01-0.73,0.04-1.1c0.83-12.42,2.27-26.08,4.39-40.79
			c13.79-95.47,67.55-249.59,146.76-362.25c25.97-36.55,80.66-96.01,80.66-96.01s20.34-7.44,27.67,0
			c27.18,27.6,54.69,59.47,80.66,96.01c90.43,127.29,132.97,266.77,146.76,362.25C2929.06,2216.77,2930.51,2230.44,2931.33,2242.85z
			"/>
		<path class="st3" d="M2931.33,2242.85c0.02,0.37,0.04,0.73,0.04,1.1c-0.34,119.92-110.21,217.05-245.68,217.05
			c-135.48,0-245.35-97.13-245.68-217.05c0-0.37,0.01-0.73,0.04-1.1c0.83-12.42,2.27-26.08,4.39-40.79
			c13.79-95.47,67.55-249.59,146.76-362.25c25.97-36.55,80.66-96.01,80.66-96.01s20.34-7.44,27.67,0
			c27.18,27.6,54.69,59.47,80.66,96.01c90.43,127.29,132.97,266.77,146.76,362.25C2929.06,2216.77,2930.51,2230.44,2931.33,2242.85z
			"/>
		<path class="st3" d="M1390.83,889.35c0.02,0.37,0.04,0.73,0.04,1.1c-0.34,119.92-110.21,217.05-245.68,217.05
			s-245.35-97.13-245.68-217.05c0-0.37,0.01-0.73,0.04-1.1c0.83-12.42,2.27-26.08,4.39-40.79
			c13.79-95.47,67.55-249.59,146.76-362.25c25.97-36.55,80.66-96.01,80.66-96.01s20.34-7.44,27.67,0
			c27.18,27.6,54.69,59.47,80.66,96.01c90.43,127.29,132.97,266.77,146.76,362.25C1388.56,863.27,1390.01,876.94,1390.83,889.35z"/>
		<path class="st3" d="M1390.83,889.35c0.02,0.37,0.04,0.73,0.04,1.1c-0.34,119.92-110.21,217.05-245.68,217.05
			s-245.35-97.13-245.68-217.05c0-0.37,0.01-0.73,0.04-1.1c0.83-12.42,2.27-26.08,4.39-40.79
			c13.79-95.47,67.55-249.59,146.76-362.25c25.97-36.55,80.66-96.01,80.66-96.01s20.34-7.44,27.67,0
			c27.18,27.6,54.69,59.47,80.66,96.01c90.43,127.29,132.97,266.77,146.76,362.25C1388.56,863.27,1390.01,876.94,1390.83,889.35z"/>
		<path class="st3" d="M621.83,2242.85c0.02,0.37,0.04,0.73,0.04,1.1C621.53,2363.87,511.66,2461,376.19,2461
			s-245.35-97.13-245.68-217.05c0-0.37,0.01-0.73,0.04-1.1c0.83-12.42,2.27-26.08,4.39-40.79
			c13.79-95.47,67.55-249.59,146.76-362.25c25.97-36.55,80.66-96.01,80.66-96.01s20.34-7.44,27.67,0
			c27.18,27.6,54.69,59.47,80.66,96.01c90.43,127.29,132.97,266.77,146.76,362.25C619.56,2216.77,621.01,2230.44,621.83,2242.85z"/>
		<path class="st3" d="M2929.83,890.35c0.02,0.37,0.04,0.73,0.04,1.1c-0.34,119.92-110.21,217.05-245.68,217.05
			c-135.48,0-245.35-97.13-245.68-217.05c0-0.37,0.01-0.73,0.04-1.1c0.83-12.42,2.27-26.08,4.39-40.79
			c13.79-95.47,67.55-249.59,146.76-362.25c25.97-36.55,80.66-96.01,80.66-96.01s20.34-7.44,27.67,0
			c27.18,27.6,54.69,59.47,80.66,96.01c90.43,127.29,132.97,266.77,146.76,362.25C2927.56,864.27,2929.01,877.94,2929.83,890.35z"/>
		<path class="st3" d="M2929.83,890.35c0.02,0.37,0.04,0.73,0.04,1.1c-0.34,119.92-110.21,217.05-245.68,217.05
			c-135.48,0-245.35-97.13-245.68-217.05c0-0.37,0.01-0.73,0.04-1.1c0.83-12.42,2.27-26.08,4.39-40.79
			c13.79-95.47,67.55-249.59,146.76-362.25c25.97-36.55,80.66-96.01,80.66-96.01s20.34-7.44,27.67,0
			c27.18,27.6,54.69,59.47,80.66,96.01c90.43,127.29,132.97,266.77,146.76,362.25C2927.56,864.27,2929.01,877.94,2929.83,890.35z"/>
		<path class="st3" d="M2161.33,888.85c0.02,0.37,0.04,0.73,0.04,1.1c-0.34,119.92-110.21,217.05-245.68,217.05
			s-245.35-97.13-245.68-217.05c0-0.37,0.01-0.73,0.04-1.1c0.83-12.42,2.27-26.08,4.39-40.79
			c13.79-95.47,67.55-249.59,146.76-362.25c25.97-36.55,80.66-96.01,80.66-96.01s20.34-7.44,27.67,0
			c27.18,27.6,54.69,59.47,80.66,96.01c90.43,127.29,132.97,266.77,146.76,362.25C2159.06,862.77,2160.51,876.44,2161.33,888.85z"/>
		<path class="st3" d="M2161.33,888.85c0.02,0.37,0.04,0.73,0.04,1.1c-0.34,119.92-110.21,217.05-245.68,217.05
			s-245.35-97.13-245.68-217.05c0-0.37,0.01-0.73,0.04-1.1c0.83-12.42,2.27-26.08,4.39-40.79
			c13.79-95.47,67.55-249.59,146.76-362.25c25.97-36.55,80.66-96.01,80.66-96.01s20.34-7.44,27.67,0
			c27.18,27.6,54.69,59.47,80.66,96.01c90.43,127.29,132.97,266.77,146.76,362.25C2159.06,862.77,2160.51,876.44,2161.33,888.85z"/>
		<path class="st3" d="M2161.33,2242.85c0.02,0.37,0.04,0.73,0.04,1.1c-0.34,119.92-110.21,217.05-245.68,217.05
			s-245.35-97.13-245.68-217.05c0-0.37,0.01-0.73,0.04-1.1c0.83-12.42,2.27-26.08,4.39-40.79
			c13.79-95.47,67.55-249.59,146.76-362.25c25.97-36.55,80.66-96.01,80.66-96.01s20.34-7.44,27.67,0
			c27.18,27.6,54.69,59.47,80.66,96.01c90.43,127.29,132.97,266.77,146.76,362.25C2159.06,2216.77,2160.51,2230.44,2161.33,2242.85z
			"/>
		<path class="st3" d="M2161.33,2242.85c0.02,0.37,0.04,0.73,0.04,1.1c-0.34,119.92-110.21,217.05-245.68,217.05
			s-245.35-97.13-245.68-217.05c0-0.37,0.01-0.73,0.04-1.1c0.83-12.42,2.27-26.08,4.39-40.79
			c13.79-95.47,67.55-249.59,146.76-362.25c25.97-36.55,80.66-96.01,80.66-96.01s20.34-7.44,27.67,0
			c27.18,27.6,54.69,59.47,80.66,96.01c90.43,127.29,132.97,266.77,146.76,362.25C2159.06,2216.77,2160.51,2230.44,2161.33,2242.85z
			"/>
		<path class="st3" d="M-148.67,2242.85c0.02,0.37,0.04,0.73,0.04,1.1C-148.97,2363.87-258.84,2461-394.31,2461
			s-245.35-97.13-245.68-217.05c0-0.37,0.01-0.73,0.04-1.1c0.83-12.42,2.27-26.08,4.39-40.79
			c13.79-95.47,67.55-249.59,146.76-362.25c25.97-36.55,80.66-96.01,80.66-96.01s20.34-7.44,27.67,0
			c27.18,27.6,54.69,59.47,80.66,96.01c90.43,127.29,132.97,266.77,146.76,362.25C-150.94,2216.77-149.49,2230.44-148.67,2242.85z"
			/>
		<path class="st3" d="M-148.67,2242.85c0.02,0.37,0.04,0.73,0.04,1.1C-148.97,2363.87-258.84,2461-394.31,2461
			s-245.35-97.13-245.68-217.05c0-0.37,0.01-0.73,0.04-1.1c0.83-12.42,2.27-26.08,4.39-40.79
			c13.79-95.47,67.55-249.59,146.76-362.25c25.97-36.55,80.66-96.01,80.66-96.01s20.34-7.44,27.67,0
			c27.18,27.6,54.69,59.47,80.66,96.01c90.43,127.29,132.97,266.77,146.76,362.25C-150.94,2216.77-149.49,2230.44-148.67,2242.85z"
			/>
	</g>
	<g id="Layer_4">
		<path class="st4" d="M-179.22,897.9c0.02,0.32,0.03,0.64,0.03,0.96c-0.29,104.77-96.29,189.63-214.65,189.63
			s-214.36-84.86-214.65-189.63c0-0.32,0.01-0.64,0.03-0.96c0.72-10.85,1.99-22.78,3.84-35.64
			c12.04-83.42,59.02-218.07,128.22-316.49c22.69-31.93,70.47-83.89,70.47-83.89s17.77-6.5,24.17,0
			c23.75,24.11,47.79,51.95,70.47,83.89c79.01,111.21,116.18,233.08,128.22,316.49C-181.21,875.12-179.94,887.06-179.22,897.9z"/>
		<path class="st4" d="M-179.22,897.9c0.02,0.32,0.03,0.64,0.03,0.96c-0.29,104.77-96.29,189.63-214.65,189.63
			s-214.36-84.86-214.65-189.63c0-0.32,0.01-0.64,0.03-0.96c0.72-10.85,1.99-22.78,3.84-35.64
			c12.04-83.42,59.02-218.07,128.22-316.49c22.69-31.93,70.47-83.89,70.47-83.89s17.77-6.5,24.17,0
			c23.75,24.11,47.79,51.95,70.47,83.89c79.01,111.21,116.18,233.08,128.22,316.49C-181.21,875.12-179.94,887.06-179.22,897.9z"/>
		<path class="st4" d="M589.78,897.9c0.02,0.32,0.03,0.64,0.03,0.96c-0.29,104.77-96.29,189.63-214.65,189.63
			S160.8,1003.64,160.5,898.87c0-0.32,0.01-0.64,0.03-0.96c0.72-10.85,1.99-22.78,3.84-35.64
			c12.04-83.42,59.02-218.07,128.22-316.49c22.69-31.93,70.47-83.89,70.47-83.89s17.77-6.5,24.17,0
			c23.75,24.11,47.79,51.95,70.47,83.89c79.01,111.21,116.18,233.08,128.22,316.49C587.79,875.12,589.06,887.06,589.78,897.9z"/>
		<path class="st4" d="M1360.28,2251.4c0.02,0.32,0.03,0.64,0.03,0.96c-0.29,104.77-96.29,189.63-214.65,189.63
			c-118.36,0-214.36-84.86-214.65-189.63c0-0.32,0.01-0.64,0.03-0.96c0.72-10.85,1.99-22.78,3.84-35.64
			c12.04-83.42,59.02-218.07,128.22-316.49c22.69-31.93,70.47-83.89,70.47-83.89s17.77-6.5,24.17,0
			c23.75,24.11,47.79,51.95,70.47,83.89c79.01,111.21,116.18,233.08,128.22,316.49C1358.29,2228.62,1359.56,2240.56,1360.28,2251.4z
			"/>
		<path class="st4" d="M2900.28,2251.4c0.02,0.32,0.03,0.64,0.03,0.96c-0.29,104.77-96.29,189.63-214.65,189.63
			s-214.36-84.86-214.65-189.63c0-0.32,0.01-0.64,0.03-0.96c0.72-10.85,1.99-22.78,3.84-35.64
			c12.04-83.42,59.02-218.07,128.22-316.49c22.69-31.93,70.47-83.89,70.47-83.89s17.77-6.5,24.17,0
			c23.75,24.11,47.79,51.95,70.47,83.89c79.01,111.21,116.18,233.08,128.22,316.49C2898.29,2228.62,2899.56,2240.56,2900.28,2251.4z
			"/>
		<path class="st4" d="M1359.78,897.9c0.02,0.32,0.03,0.64,0.03,0.96c-0.29,104.77-96.29,189.63-214.65,189.63
			c-118.36,0-214.36-84.86-214.65-189.63c0-0.32,0.01-0.64,0.03-0.96c0.72-10.85,1.99-22.78,3.84-35.64
			c12.04-83.42,59.02-218.07,128.22-316.49c22.69-31.93,70.47-83.89,70.47-83.89s17.77-6.5,24.17,0
			c23.75,24.11,47.79,51.95,70.47,83.89c79.01,111.21,116.18,233.08,128.22,316.49C1357.79,875.12,1359.06,887.06,1359.78,897.9z"/>
		<path class="st4" d="M590.78,2251.4c0.02,0.32,0.03,0.64,0.03,0.96C590.51,2357.14,494.52,2442,376.16,2442
			s-214.36-84.86-214.65-189.63c0-0.32,0.01-0.64,0.03-0.96c0.72-10.85,1.99-22.78,3.84-35.64
			c12.04-83.42,59.02-218.07,128.22-316.49c22.69-31.93,70.47-83.89,70.47-83.89s17.77-6.5,24.17,0
			c23.75,24.11,47.79,51.95,70.47,83.89c79.01,111.21,116.18,233.08,128.22,316.49C588.79,2228.62,590.06,2240.56,590.78,2251.4z"/>
		<path class="st4" d="M2898.78,898.9c0.02,0.32,0.03,0.64,0.03,0.96c-0.29,104.77-96.29,189.63-214.65,189.63
			s-214.36-84.86-214.65-189.63c0-0.32,0.01-0.64,0.03-0.96c0.72-10.85,1.99-22.78,3.84-35.64
			c12.04-83.42,59.02-218.07,128.22-316.49c22.69-31.93,70.47-83.89,70.47-83.89s17.77-6.5,24.17,0
			c23.75,24.11,47.79,51.95,70.47,83.89c79.01,111.21,116.18,233.08,128.22,316.49C2896.79,876.12,2898.06,888.06,2898.78,898.9z"/>
		<path class="st4" d="M2130.28,897.4c0.02,0.32,0.03,0.64,0.03,0.96c-0.29,104.77-96.29,189.63-214.65,189.63
			c-118.36,0-214.36-84.86-214.65-189.63c0-0.32,0.01-0.64,0.03-0.96c0.72-10.85,1.99-22.78,3.84-35.64
			c12.04-83.42,59.02-218.07,128.22-316.49c22.69-31.93,70.47-83.89,70.47-83.89s17.77-6.5,24.17,0
			c23.75,24.11,47.79,51.95,70.47,83.89c79.01,111.21,116.18,233.08,128.22,316.49C2128.29,874.62,2129.56,886.56,2130.28,897.4z"/>
		<path class="st4" d="M2130.28,2251.4c0.02,0.32,0.03,0.64,0.03,0.96c-0.29,104.77-96.29,189.63-214.65,189.63
			c-118.36,0-214.36-84.86-214.65-189.63c0-0.32,0.01-0.64,0.03-0.96c0.72-10.85,1.99-22.78,3.84-35.64
			c12.04-83.42,59.02-218.07,128.22-316.49c22.69-31.93,70.47-83.89,70.47-83.89s17.77-6.5,24.17,0
			c23.75,24.11,47.79,51.95,70.47,83.89c79.01,111.21,116.18,233.08,128.22,316.49C2128.29,2228.62,2129.56,2240.56,2130.28,2251.4z
			"/>
		<path class="st4" d="M-179.72,2251.4c0.02,0.32,0.03,0.64,0.03,0.96c-0.29,104.77-96.29,189.63-214.65,189.63
			S-608.7,2357.14-609,2252.37c0-0.32,0.01-0.64,0.03-0.96c0.72-10.85,1.99-22.78,3.84-35.64
			c12.04-83.42,59.02-218.07,128.22-316.49c22.69-31.93,70.47-83.89,70.47-83.89s17.77-6.5,24.17,0
			c23.75,24.11,47.79,51.95,70.47,83.89c79.01,111.21,116.18,233.08,128.22,316.49C-181.71,2228.62-180.44,2240.56-179.72,2251.4z"
			/>
	</g>
	<g id="Layer_5">
		<ellipse class="st5" cx="-394" cy="905.5" rx="183" ry="163.5"/>
		<ellipse class="st5" cx="-394" cy="905.5" rx="183" ry="163.5"/>
		<ellipse class="st5" cx="375" cy="905.5" rx="183" ry="163.5"/>
		<ellipse class="st5" cx="1145.5" cy="2259" rx="183" ry="163.5"/>
		<ellipse class="st5" cx="2685.5" cy="2259" rx="183" ry="163.5"/>
		<ellipse class="st5" cx="1145" cy="905.5" rx="183" ry="163.5"/>
		<ellipse class="st5" cx="376" cy="2259" rx="183" ry="163.5"/>
		<ellipse class="st5" cx="2684" cy="906.5" rx="183" ry="163.5"/>
		<ellipse class="st5" cx="1915.5" cy="905" rx="183" ry="163.5"/>
		<ellipse class="st5" cx="1915.5" cy="2259" rx="183" ry="163.5"/>
		<ellipse class="st5" cx="-394.5" cy="2259" rx="183" ry="163.5"/>
	</g>
</g>
<g id="Layer_10">
	
		<ellipse transform="matrix(0.3028 -0.9531 0.9531 0.3028 -579.0389 1135.4894)" class="st6" cx="486.56" cy="963.5" rx="67.51" ry="128.08"/>
	
		<ellipse transform="matrix(0.9531 -0.3028 0.3028 0.9531 -279.8347 122.0043)" class="st6" cx="253.56" cy="963.5" rx="128.08" ry="67.51"/>
	<path class="st6" d="M255.74,854.7c-20.63,31.41-46.23,54.5-68.92,64.53c-8.75,3.86-17.06,5.79-24.49,5.51
		c-8.02-2.79-16.89-8.65-25.72-16.95c-10.15-9.53-20.25-22.25-28.98-37.21c-23.25-39.84-27.9-80.42-10.4-90.63
		c13.64-7.97,36.73,4.88,57.27,29.81c2.84-5.15,5.95-10.31,9.32-15.43c34.67-52.79,83.35-82.07,108.73-65.4
		C297.93,745.61,290.4,801.91,255.74,854.7z"/>
	<path class="st6" d="M629.02,870.58c-23.25,39.85-56.29,63.87-73.79,53.66c-0.35-0.2-0.68-0.42-1.01-0.65
		c-25.37-5.72-57.07-31.38-81.71-68.89c-34.67-52.79-42.24-109.07-16.9-125.71c25.33-16.64,73.98,12.66,108.65,65.45
		c4.77,7.27,9.03,14.6,12.76,21.89c21.7-29.18,47.6-45.02,62.4-36.38C656.92,790.16,652.27,830.74,629.02,870.58z"/>
	<path class="st6" d="M159.99,785.18c-2.67,4.09-22.1,33.83-49.14,25.05c-15.22-4.94-25.32-18.35-26.79-33.32
		c-3.28-7.52-4.33-21.87-2.25-37.99c2.98-23.1,11.25-41.07,18.48-40.15c6.65,0.86,10.1,17.43,8.29,38.08
		c8.13-3.22,17.39-3.72,26.36-0.81c4.9,1.59,9.77,4.76,10.3,5.11c8.88,6.01,15.55,15.45,13.92,17.47c-0.32,0.02-0.61,0.14-0.87,0.33
		c-1.72-0.08-5.51-2.34-12.75-3.7c-6.87-1.27-13.73-2.55-19.28,1.1c-6.15,4.05-9.84,13.61-6.82,17.76
		c4.91,6.74,29.68,2.36,35.66-9.45c1-1.99,1.78-4.78,3.19-5.71c0.39,0.01,0.68-0.08,0.87-0.33c2.35-0.16,4.87,4.46,5.76,8.18
		C166.76,774.62,162.15,781.87,159.99,785.18z"/>
	<path class="st6" d="M578.09,790.18c2.67,4.09,22.1,33.83,49.14,25.05c15.22-4.94,25.32-18.35,26.79-33.32
		c3.28-7.52,4.33-21.87,2.25-37.99c-2.98-23.1-11.25-41.07-18.48-40.15c-6.65,0.86-10.1,17.43-8.29,38.08
		c-8.13-3.22-17.39-3.72-26.36-0.81c-4.9,1.59-9.77,4.76-10.3,5.11c-8.88,6.01-15.55,15.45-13.92,17.47
		c0.32,0.02,0.61,0.14,0.87,0.33c1.72-0.08,5.51-2.34,12.75-3.7c6.87-1.27,13.73-2.55,19.28,1.1c6.15,4.05,9.84,13.61,6.82,17.76
		c-4.91,6.74-29.68,2.36-35.66-9.45c-1-1.99-1.78-4.78-3.19-5.71c-0.39,0.01-0.68-0.08-0.87-0.33c-2.35-0.16-4.87,4.46-5.76,8.18
		C571.31,779.62,575.92,786.87,578.09,790.18z"/>
	<path class="st6" d="M1142,2082"/>
	<ellipse transform="matrix(0.9627 -0.2705 0.2705 0.9627 -257.2264 169.6958)" class="st6" cx="487" cy="1018" rx="128" ry="63"/>
	<path class="st6" d="M418,1061c0,28.72-20.37,52-45.5,52c-17.63,0-32.91-11.45-40.47-28.21c-25.77,5.42-59.71,3.79-95.07-6.14
		c-68.06-19.12-115.6-61.78-106.19-95.28c9.41-33.49,72.22-45.14,140.27-26.02c40.78,11.46,74.19,31.36,92.4,52.68
		c2.93-0.68,5.96-1.03,9.06-1.03C397.63,1009,418,1032.28,418,1061z"/>
	
		<ellipse transform="matrix(0.3028 -0.9531 0.9531 0.3028 -579.0389 1135.4894)" class="st6" cx="486.56" cy="963.5" rx="67.51" ry="128.08"/>
	
		<ellipse transform="matrix(0.9531 -0.3028 0.3028 0.9531 -279.8347 122.0043)" class="st6" cx="253.56" cy="963.5" rx="128.08" ry="67.51"/>
	<path class="st6" d="M255.74,854.7c-20.63,31.41-46.23,54.5-68.92,64.53c-8.75,3.86-17.06,5.79-24.49,5.51
		c-8.02-2.79-16.89-8.65-25.72-16.95c-10.15-9.53-20.25-22.25-28.98-37.21c-23.25-39.84-27.9-80.42-10.4-90.63
		c13.64-7.97,36.73,4.88,57.27,29.81c2.84-5.15,5.95-10.31,9.32-15.43c34.67-52.79,83.35-82.07,108.73-65.4
		C297.93,745.61,290.4,801.91,255.74,854.7z"/>
	<path class="st6" d="M629.02,870.58c-23.25,39.85-56.29,63.87-73.79,53.66c-0.35-0.2-0.68-0.42-1.01-0.65
		c-25.37-5.72-57.07-31.38-81.71-68.89c-34.67-52.79-42.24-109.07-16.9-125.71c25.33-16.64,73.98,12.66,108.65,65.45
		c4.77,7.27,9.03,14.6,12.76,21.89c21.7-29.18,47.6-45.02,62.4-36.38C656.92,790.16,652.27,830.74,629.02,870.58z"/>
	<path class="st6" d="M159.99,785.18c-2.67,4.09-22.1,33.83-49.14,25.05c-15.22-4.94-25.32-18.35-26.79-33.32
		c-3.28-7.52-4.33-21.87-2.25-37.99c2.98-23.1,11.25-41.07,18.48-40.15c6.65,0.86,10.1,17.43,8.29,38.08
		c8.13-3.22,17.39-3.72,26.36-0.81c4.9,1.59,9.77,4.76,10.3,5.11c8.88,6.01,15.55,15.45,13.92,17.47c-0.32,0.02-0.61,0.14-0.87,0.33
		c-1.72-0.08-5.51-2.34-12.75-3.7c-6.87-1.27-13.73-2.55-19.28,1.1c-6.15,4.05-9.84,13.61-6.82,17.76
		c4.91,6.74,29.68,2.36,35.66-9.45c1-1.99,1.78-4.78,3.19-5.71c0.39,0.01,0.68-0.08,0.87-0.33c2.35-0.16,4.87,4.46,5.76,8.18
		C166.76,774.62,162.15,781.87,159.99,785.18z"/>
	<path class="st6" d="M578.09,790.18c2.67,4.09,22.1,33.83,49.14,25.05c15.22-4.94,25.32-18.35,26.79-33.32
		c3.28-7.52,4.33-21.87,2.25-37.99c-2.98-23.1-11.25-41.07-18.48-40.15c-6.65,0.86-10.1,17.43-8.29,38.08
		c-8.13-3.22-17.39-3.72-26.36-0.81c-4.9,1.59-9.77,4.76-10.3,5.11c-8.88,6.01-15.55,15.45-13.92,17.47
		c0.32,0.02,0.61,0.14,0.87,0.33c1.72-0.08,5.51-2.34,12.75-3.7c6.87-1.27,13.73-2.55,19.28,1.1c6.15,4.05,9.84,13.61,6.82,17.76
		c-4.91,6.74-29.68,2.36-35.66-9.45c-1-1.99-1.78-4.78-3.19-5.71c-0.39,0.01-0.68-0.08-0.87-0.33c-2.35-0.16-4.87,4.46-5.76,8.18
		C571.31,779.62,575.92,786.87,578.09,790.18z"/>
	<ellipse transform="matrix(0.9627 -0.2705 0.2705 0.9627 -257.2264 169.6958)" class="st6" cx="487" cy="1018" rx="128" ry="63"/>
	<path class="st6" d="M418,1061c0,28.72-20.37,52-45.5,52c-17.63,0-32.91-11.45-40.47-28.21c-25.77,5.42-59.71,3.79-95.07-6.14
		c-68.06-19.12-115.6-61.78-106.19-95.28c9.41-33.49,72.22-45.14,140.27-26.02c40.78,11.46,74.19,31.36,92.4,52.68
		c2.93-0.68,5.96-1.03,9.06-1.03C397.63,1009,418,1032.28,418,1061z"/>
	
		<ellipse transform="matrix(0.3028 -0.9531 0.9531 0.3028 -1331.8009 2813.4976)" class="st7" cx="1257.06" cy="2317" rx="67.51" ry="128.08"/>
	
		<ellipse transform="matrix(0.9531 -0.3028 0.3028 0.9531 -653.4891 418.8382)" class="st7" cx="1024.06" cy="2317" rx="128.08" ry="67.51"/>
	<path class="st7" d="M1026.24,2208.2c-20.63,31.41-46.23,54.5-68.92,64.53c-8.75,3.86-17.06,5.79-24.49,5.51
		c-8.02-2.79-16.89-8.65-25.72-16.95c-10.15-9.53-20.25-22.25-28.98-37.21c-23.25-39.84-27.9-80.42-10.4-90.63
		c13.64-7.97,36.73,4.88,57.27,29.81c2.84-5.15,5.95-10.31,9.32-15.43c34.67-52.79,83.35-82.07,108.73-65.4
		C1068.43,2099.11,1060.9,2155.41,1026.24,2208.2z"/>
	<path class="st7" d="M1399.52,2224.08c-23.25,39.85-56.29,63.87-73.79,53.66c-0.35-0.2-0.68-0.42-1.01-0.65
		c-25.37-5.72-57.07-31.38-81.71-68.89c-34.67-52.79-42.24-109.07-16.9-125.71c25.33-16.64,73.98,12.66,108.65,65.45
		c4.77,7.27,9.03,14.6,12.76,21.89c21.7-29.18,47.6-45.02,62.4-36.38C1427.42,2143.66,1422.77,2184.24,1399.52,2224.08z"/>
	<path class="st7" d="M930.49,2138.68c-2.67,4.09-22.1,33.83-49.14,25.05c-15.22-4.94-25.32-18.34-26.79-33.32
		c-3.28-7.52-4.33-21.88-2.25-37.99c2.98-23.1,11.25-41.07,18.48-40.15c6.65,0.86,10.1,17.43,8.29,38.08
		c8.13-3.22,17.39-3.72,26.36-0.81c4.9,1.59,9.77,4.76,10.3,5.11c8.88,6.01,15.55,15.45,13.92,17.47c-0.32,0.02-0.61,0.14-0.87,0.33
		c-1.72-0.07-5.51-2.34-12.75-3.7c-6.87-1.27-13.73-2.55-19.28,1.1c-6.15,4.05-9.84,13.61-6.82,17.76
		c4.91,6.74,29.68,2.36,35.66-9.45c1-1.99,1.78-4.78,3.19-5.71c0.39,0.01,0.68-0.08,0.87-0.33c2.35-0.16,4.87,4.46,5.76,8.18
		C937.26,2128.12,932.65,2135.37,930.49,2138.68z"/>
	<path class="st7" d="M1348.59,2143.68c2.67,4.09,22.1,33.83,49.14,25.05c15.22-4.94,25.32-18.34,26.79-33.32
		c3.28-7.52,4.33-21.88,2.25-37.99c-2.98-23.1-11.25-41.07-18.48-40.15c-6.65,0.86-10.1,17.43-8.29,38.08
		c-8.13-3.22-17.39-3.72-26.36-0.81c-4.9,1.59-9.77,4.76-10.3,5.11c-8.88,6.01-15.55,15.45-13.92,17.47
		c0.32,0.02,0.61,0.14,0.87,0.33c1.72-0.07,5.51-2.34,12.75-3.7c6.87-1.27,13.73-2.55,19.28,1.1c6.15,4.05,9.84,13.61,6.82,17.76
		c-4.91,6.74-29.68,2.36-35.66-9.45c-1-1.99-1.78-4.78-3.19-5.71c-0.39,0.01-0.68-0.08-0.87-0.33c-2.35-0.16-4.87,4.46-5.76,8.18
		C1341.81,2133.12,1346.42,2140.37,1348.59,2143.68z"/>
	
		<ellipse transform="matrix(0.9627 -0.2705 0.2705 0.9627 -594.6405 428.5913)" class="st7" cx="1257.5" cy="2371.5" rx="128" ry="63"/>
	<path class="st7" d="M1188.5,2414.5c0,28.72-20.37,52-45.5,52c-17.63,0-32.91-11.45-40.47-28.21c-25.77,5.42-59.71,3.79-95.07-6.14
		c-68.06-19.12-115.6-61.78-106.19-95.28c9.41-33.49,72.22-45.14,140.27-26.02c40.78,11.46,74.19,31.36,92.4,52.68
		c2.93-0.68,5.96-1.03,9.06-1.03C1168.13,2362.5,1188.5,2385.78,1188.5,2414.5z"/>
	
		<ellipse transform="matrix(0.3028 -0.9531 0.9531 0.3028 -258.094 4281.207)" class="st8" cx="2797.06" cy="2317" rx="67.51" ry="128.08"/>
	
		<ellipse transform="matrix(0.9531 -0.3028 0.3028 0.9531 -581.1984 885.1312)" class="st8" cx="2564.06" cy="2317" rx="128.08" ry="67.51"/>
	<path class="st8" d="M2566.24,2208.2c-20.63,31.41-46.23,54.5-68.92,64.53c-8.75,3.86-17.06,5.79-24.49,5.51
		c-8.02-2.79-16.89-8.65-25.72-16.95c-10.15-9.53-20.25-22.25-28.98-37.21c-23.25-39.84-27.9-80.42-10.4-90.63
		c13.64-7.97,36.73,4.88,57.27,29.81c2.84-5.15,5.95-10.31,9.32-15.43c34.67-52.79,83.35-82.07,108.73-65.4
		C2608.43,2099.11,2600.9,2155.41,2566.24,2208.2z"/>
	<path class="st8" d="M2939.52,2224.08c-23.25,39.85-56.29,63.87-73.79,53.66c-0.35-0.2-0.68-0.42-1.01-0.65
		c-25.37-5.72-57.07-31.38-81.71-68.89c-34.67-52.79-42.24-109.07-16.9-125.71c25.33-16.64,73.98,12.66,108.65,65.45
		c4.77,7.27,9.03,14.6,12.76,21.89c21.7-29.18,47.6-45.02,62.4-36.38C2967.42,2143.66,2962.77,2184.24,2939.52,2224.08z"/>
	<path class="st8" d="M2470.49,2138.68c-2.67,4.09-22.1,33.83-49.14,25.05c-15.22-4.94-25.32-18.34-26.79-33.32
		c-3.28-7.52-4.33-21.88-2.25-37.99c2.98-23.1,11.25-41.07,18.48-40.15c6.65,0.86,10.1,17.43,8.29,38.08
		c8.13-3.22,17.39-3.72,26.36-0.81c4.9,1.59,9.77,4.76,10.3,5.11c8.88,6.01,15.55,15.45,13.92,17.47c-0.32,0.02-0.61,0.14-0.87,0.33
		c-1.72-0.07-5.51-2.34-12.75-3.7c-6.87-1.27-13.73-2.55-19.28,1.1c-6.15,4.05-9.84,13.61-6.82,17.76
		c4.91,6.74,29.68,2.36,35.66-9.45c1-1.99,1.78-4.78,3.19-5.71c0.39,0.01,0.68-0.08,0.87-0.33c2.35-0.16,4.87,4.46,5.76,8.18
		C2477.26,2128.12,2472.65,2135.37,2470.49,2138.68z"/>
	<path class="st8" d="M2888.59,2143.68c2.67,4.09,22.1,33.83,49.14,25.05c15.22-4.94,25.32-18.34,26.79-33.32
		c3.28-7.52,4.33-21.88,2.25-37.99c-2.98-23.1-11.25-41.07-18.48-40.15c-6.65,0.86-10.1,17.43-8.29,38.08
		c-8.13-3.22-17.39-3.72-26.36-0.81c-4.9,1.59-9.77,4.76-10.3,5.11c-8.88,6.01-15.55,15.45-13.92,17.47
		c0.32,0.02,0.61,0.14,0.87,0.33c1.72-0.07,5.51-2.34,12.75-3.7c6.87-1.27,13.73-2.55,19.28,1.1c6.15,4.05,9.84,13.61,6.82,17.76
		c-4.91,6.74-29.68,2.36-35.66-9.45c-1-1.99-1.78-4.78-3.19-5.71c-0.39,0.01-0.68-0.08-0.87-0.33c-2.34-0.16-4.87,4.46-5.76,8.18
		C2881.81,2133.12,2886.42,2140.37,2888.59,2143.68z"/>
	
		<ellipse transform="matrix(0.9627 -0.2705 0.2705 0.9627 -537.223 845.1837)" class="st8" cx="2797.5" cy="2371.5" rx="128" ry="63"/>
	<path class="st8" d="M2728.5,2414.5c0,28.72-20.37,52-45.5,52c-17.63,0-32.91-11.45-40.47-28.21c-25.77,5.42-59.71,3.79-95.07-6.14
		c-68.06-19.12-115.6-61.78-106.19-95.28c9.41-33.49,72.22-45.14,140.27-26.02c40.78,11.46,74.19,31.36,92.4,52.68
		c2.93-0.68,5.96-1.03,9.06-1.03C2708.13,2362.5,2728.5,2385.78,2728.5,2414.5z"/>
	
		<ellipse transform="matrix(0.3028 -0.9531 0.9531 0.3028 -42.1855 1869.3441)" class="st6" cx="1256.56" cy="963.5" rx="67.51" ry="128.08"/>
	
		<ellipse transform="matrix(0.9531 -0.3028 0.3028 0.9531 -243.6894 355.1508)" class="st6" cx="1023.56" cy="963.5" rx="128.08" ry="67.51"/>
	<path class="st6" d="M1025.74,854.7c-20.63,31.41-46.23,54.5-68.92,64.53c-8.75,3.86-17.06,5.79-24.49,5.51
		c-8.02-2.79-16.89-8.65-25.72-16.95c-10.15-9.53-20.25-22.25-28.98-37.21c-23.25-39.84-27.9-80.42-10.4-90.63
		c13.64-7.97,36.73,4.88,57.27,29.81c2.84-5.15,5.95-10.31,9.32-15.43c34.67-52.79,83.35-82.07,108.73-65.4
		C1067.93,745.61,1060.4,801.91,1025.74,854.7z"/>
	<path class="st6" d="M1399.02,870.58c-23.25,39.85-56.29,63.87-73.79,53.66c-0.35-0.2-0.68-0.42-1.01-0.65
		c-25.37-5.72-57.07-31.38-81.71-68.89c-34.67-52.79-42.24-109.07-16.9-125.71c25.33-16.64,73.98,12.66,108.65,65.45
		c4.77,7.27,9.03,14.6,12.76,21.89c21.7-29.18,47.6-45.02,62.4-36.38C1426.92,790.16,1422.27,830.74,1399.02,870.58z"/>
	<path class="st6" d="M929.99,785.18c-2.67,4.09-22.1,33.83-49.14,25.05c-15.22-4.94-25.32-18.35-26.79-33.32
		c-3.28-7.52-4.33-21.87-2.25-37.99c2.98-23.1,11.25-41.07,18.48-40.15c6.65,0.86,10.1,17.43,8.29,38.08
		c8.13-3.22,17.39-3.72,26.36-0.81c4.9,1.59,9.77,4.76,10.3,5.11c8.88,6.01,15.55,15.45,13.92,17.47c-0.32,0.02-0.61,0.14-0.87,0.33
		c-1.72-0.08-5.51-2.34-12.75-3.7c-6.87-1.27-13.73-2.55-19.28,1.1c-6.15,4.05-9.84,13.61-6.82,17.76
		c4.91,6.74,29.68,2.36,35.66-9.45c1-1.99,1.78-4.78,3.19-5.71c0.39,0.01,0.68-0.08,0.87-0.33c2.35-0.16,4.87,4.46,5.76,8.18
		C936.76,774.62,932.15,781.87,929.99,785.18z"/>
	<path class="st6" d="M1348.09,790.18c2.67,4.09,22.1,33.83,49.14,25.05c15.22-4.94,25.32-18.35,26.79-33.32
		c3.28-7.52,4.33-21.87,2.25-37.99c-2.98-23.1-11.25-41.07-18.48-40.15c-6.65,0.86-10.1,17.43-8.29,38.08
		c-8.13-3.22-17.39-3.72-26.36-0.81c-4.9,1.59-9.77,4.76-10.3,5.11c-8.88,6.01-15.55,15.45-13.92,17.47
		c0.32,0.02,0.61,0.14,0.87,0.33c1.72-0.08,5.51-2.34,12.75-3.7c6.87-1.27,13.73-2.55,19.28,1.1c6.15,4.05,9.84,13.61,6.82,17.76
		c-4.91,6.74-29.68,2.36-35.66-9.45c-1-1.99-1.78-4.78-3.19-5.71c-0.39,0.01-0.68-0.08-0.87-0.33c-2.35-0.16-4.87,4.46-5.76,8.18
		C1341.31,779.62,1345.92,786.87,1348.09,790.18z"/>
	<ellipse transform="matrix(0.9627 -0.2705 0.2705 0.9627 -228.5177 377.992)" class="st6" cx="1257" cy="1018" rx="128" ry="63"/>
	<path class="st6" d="M1188,1061c0,28.72-20.37,52-45.5,52c-17.63,0-32.91-11.45-40.47-28.21c-25.77,5.42-59.71,3.79-95.07-6.14
		c-68.06-19.12-115.6-61.78-106.19-95.28c9.41-33.49,72.22-45.14,140.27-26.02c40.78,11.46,74.19,31.36,92.4,52.68
		c2.93-0.68,5.96-1.03,9.06-1.03C1167.63,1009,1188,1032.28,1188,1061z"/>
	
		<ellipse transform="matrix(0.3028 -0.9531 0.9531 0.3028 -1848.7384 2107.1104)" class="st7" cx="515.79" cy="2317.13" rx="80.48" ry="152.68"/>
	
		<ellipse transform="matrix(0.9531 -0.3028 0.3028 0.9531 -690.4239 180.8425)" class="st7" cx="238.03" cy="2317.13" rx="152.68" ry="80.48"/>
	<path class="st7" d="M240.62,2187.42c-24.59,37.44-55.11,64.97-82.16,76.93c-10.43,4.6-20.34,6.9-29.2,6.57
		c-9.56-3.33-20.14-10.31-30.66-20.21c-12.1-11.36-24.14-26.52-34.55-44.36c-27.72-47.49-33.26-95.87-12.4-108.04
		c16.26-9.5,43.79,5.82,68.27,35.54c3.39-6.14,7.09-12.29,11.11-18.39c41.33-62.93,99.36-97.84,129.62-77.97
		C290.92,2057.37,281.94,2124.49,240.62,2187.42z"/>
	<path class="st7" d="M685.62,2206.35c-27.72,47.51-67.1,76.14-87.97,63.97c-0.42-0.24-0.81-0.5-1.2-0.77
		c-30.24-6.82-68.03-37.41-97.41-82.13c-41.33-62.93-50.36-130.03-20.15-149.86c30.2-19.84,88.19,15.09,129.52,78.02
		c5.69,8.67,10.76,17.41,15.21,26.1c25.87-34.79,56.75-53.67,74.39-43.37C718.88,2110.48,713.34,2158.85,685.62,2206.35z"/>
	<path class="st7" d="M126.47,2104.54c-3.19,4.88-26.34,40.33-58.58,29.87c-18.14-5.89-30.19-21.87-31.94-39.72
		c-3.91-8.96-5.16-26.08-2.68-45.29c3.55-27.54,13.41-48.96,22.03-47.86c7.93,1.03,12.04,20.78,9.88,45.4
		c9.69-3.83,20.73-4.44,31.42-0.97c5.84,1.9,11.64,5.67,12.27,6.09c10.58,7.17,18.54,18.41,16.59,20.83
		c-0.38,0.03-0.73,0.16-1.04,0.39c-2.05-0.09-6.56-2.79-15.2-4.41c-8.19-1.52-16.37-3.05-22.99,1.31
		c-7.33,4.83-11.73,16.22-8.13,21.18c5.85,8.04,35.38,2.81,42.51-11.27c1.2-2.37,2.13-5.7,3.8-6.81c0.46,0.01,0.81-0.1,1.04-0.39
		c2.8-0.2,5.81,5.32,6.86,9.75C134.55,2091.95,129.06,2100.6,126.47,2104.54z"/>
	<path class="st7" d="M624.9,2110.5c3.19,4.88,26.34,40.33,58.58,29.87c18.14-5.89,30.19-21.87,31.94-39.72
		c3.91-8.96,5.16-26.08,2.68-45.29c-3.55-27.54-13.41-48.96-22.03-47.86c-7.93,1.03-12.04,20.78-9.88,45.4
		c-9.69-3.83-20.73-4.44-31.42-0.97c-5.84,1.9-11.64,5.67-12.27,6.09c-10.58,7.17-18.54,18.41-16.59,20.83
		c0.38,0.03,0.73,0.16,1.04,0.39c2.05-0.09,6.56-2.79,15.2-4.41c8.19-1.52,16.37-3.05,22.99,1.31c7.33,4.83,11.73,16.22,8.13,21.18
		c-5.85,8.04-35.38,2.81-42.51-11.27c-1.2-2.37-2.13-5.7-3.8-6.81c-0.46,0.01-0.81-0.1-1.04-0.39c-2.8-0.2-5.81,5.32-6.86,9.75
		C616.83,2097.91,622.32,2106.56,624.9,2110.5z"/>
	
		<ellipse transform="matrix(0.9627 -0.2705 0.2705 0.9627 -625.1401 228.485)" class="st7" cx="516.32" cy="2382.09" rx="152.59" ry="75.1"/>
	<path class="st7" d="M434.06,2433.35c0,34.24-24.28,61.99-54.24,61.99c-21.02,0-39.23-13.65-48.25-33.63
		c-30.72,6.46-71.18,4.52-113.34-7.32c-81.14-22.79-137.81-73.65-126.59-113.59c11.22-39.92,86.1-53.81,167.22-31.02
		c48.61,13.66,88.44,37.39,110.15,62.8c3.49-0.81,7.11-1.23,10.8-1.23C409.78,2371.36,434.06,2399.12,434.06,2433.35z"/>
	
		<ellipse transform="matrix(0.3028 -0.9531 0.9531 0.3028 1049.4386 3363.7886)" class="st8" cx="2823.79" cy="964.63" rx="80.48" ry="152.68"/>
	
		<ellipse transform="matrix(0.9531 -0.3028 0.3028 0.9531 -172.5615 816.1874)" class="st8" cx="2546.03" cy="964.63" rx="152.68" ry="80.48"/>
	<path class="st8" d="M2548.62,834.92c-24.59,37.44-55.11,64.97-82.16,76.93c-10.43,4.6-20.34,6.9-29.2,6.57
		c-9.56-3.33-20.14-10.31-30.66-20.21c-12.1-11.36-24.14-26.52-34.55-44.36c-27.72-47.49-33.26-95.87-12.4-108.04
		c16.26-9.5,43.79,5.82,68.27,35.54c3.39-6.14,7.09-12.29,11.11-18.39c41.33-62.93,99.36-97.84,129.62-77.96
		C2598.92,704.87,2589.94,771.99,2548.62,834.92z"/>
	<path class="st8" d="M2993.62,853.85c-27.72,47.51-67.1,76.14-87.97,63.97c-0.42-0.24-0.81-0.5-1.2-0.77
		c-30.24-6.82-68.03-37.41-97.41-82.13c-41.33-62.93-50.36-130.03-20.15-149.86c30.2-19.84,88.19,15.09,129.52,78.02
		c5.69,8.67,10.76,17.41,15.21,26.1c25.87-34.79,56.75-53.67,74.39-43.37C3026.88,757.98,3021.34,806.35,2993.62,853.85z"/>
	<path class="st8" d="M2434.47,752.04c-3.19,4.88-26.34,40.33-58.58,29.87c-18.14-5.89-30.19-21.87-31.94-39.72
		c-3.91-8.96-5.16-26.08-2.68-45.29c3.55-27.54,13.41-48.96,22.03-47.86c7.93,1.03,12.04,20.78,9.88,45.4
		c9.69-3.83,20.73-4.44,31.42-0.97c5.84,1.9,11.64,5.67,12.27,6.09c10.58,7.17,18.54,18.41,16.59,20.83
		c-0.38,0.03-0.73,0.16-1.04,0.39c-2.05-0.09-6.56-2.79-15.2-4.41c-8.19-1.52-16.37-3.05-22.99,1.31
		c-7.33,4.83-11.73,16.22-8.13,21.18c5.85,8.04,35.38,2.81,42.51-11.27c1.2-2.37,2.13-5.7,3.8-6.81c0.46,0.01,0.81-0.1,1.04-0.39
		c2.8-0.2,5.81,5.32,6.86,9.75C2442.55,739.45,2437.06,748.1,2434.47,752.04z"/>
	<path class="st8" d="M2932.9,758.01c3.19,4.88,26.34,40.33,58.58,29.87c18.14-5.89,30.19-21.87,31.94-39.72
		c3.91-8.96,5.16-26.08,2.68-45.29c-3.55-27.54-13.41-48.96-22.03-47.86c-7.93,1.03-12.04,20.78-9.88,45.4
		c-9.69-3.83-20.73-4.44-31.42-0.97c-5.84,1.9-11.64,5.67-12.27,6.09c-10.58,7.17-18.54,18.41-16.59,20.83
		c0.38,0.03,0.73,0.16,1.04,0.39c2.05-0.09,6.56-2.79,15.2-4.41c8.19-1.52,16.37-3.05,22.99,1.31c7.33,4.83,11.73,16.22,8.13,21.18
		c-5.85,8.04-35.38,2.81-42.51-11.27c-1.2-2.37-2.13-5.7-3.8-6.81c-0.46,0.01-0.81-0.1-1.04-0.39c-2.8-0.2-5.81,5.32-6.86,9.75
		C2924.83,745.41,2930.32,754.06,2932.9,758.01z"/>
	
		<ellipse transform="matrix(0.9627 -0.2705 0.2705 0.9627 -173.2174 802.4059)" class="st8" cx="2824.32" cy="1029.59" rx="152.59" ry="75.1"/>
	<path class="st8" d="M2742.06,1080.85c0,34.24-24.28,61.99-54.24,61.99c-21.02,0-39.23-13.65-48.25-33.63
		c-30.72,6.46-71.18,4.52-113.34-7.32c-81.14-22.79-137.81-73.65-126.59-113.59c11.22-39.92,86.1-53.81,167.22-31.02
		c48.61,13.66,88.44,37.39,110.15,62.8c3.49-0.81,7.11-1.23,10.8-1.23C2717.78,1018.86,2742.06,1046.62,2742.06,1080.85z"/>
	
		<ellipse transform="matrix(0.3028 -0.9531 0.9531 0.3028 515.0605 2630.3176)" class="st6" cx="2055.29" cy="963.13" rx="80.48" ry="152.68"/>
	
		<ellipse transform="matrix(0.9531 -0.3028 0.3028 0.9531 -208.1822 583.4247)" class="st6" cx="1777.53" cy="963.13" rx="152.68" ry="80.48"/>
	<path class="st6" d="M1780.12,833.42c-24.59,37.44-55.11,64.97-82.16,76.93c-10.43,4.6-20.34,6.9-29.2,6.57
		c-9.56-3.33-20.14-10.31-30.66-20.21c-12.1-11.36-24.14-26.52-34.55-44.36c-27.72-47.49-33.26-95.87-12.4-108.04
		c16.26-9.5,43.79,5.82,68.27,35.54c3.39-6.14,7.09-12.29,11.11-18.39c41.33-62.93,99.36-97.84,129.62-77.96
		C1830.42,703.37,1821.44,770.49,1780.12,833.42z"/>
	<path class="st6" d="M2225.12,852.35c-27.72,47.51-67.1,76.14-87.97,63.97c-0.42-0.24-0.81-0.5-1.2-0.77
		c-30.24-6.82-68.03-37.41-97.41-82.13c-41.33-62.93-50.36-130.03-20.15-149.86c30.2-19.84,88.19,15.09,129.52,78.02
		c5.69,8.67,10.76,17.41,15.21,26.1c25.87-34.79,56.75-53.67,74.39-43.37C2258.38,756.48,2252.84,804.85,2225.12,852.35z"/>
	<path class="st6" d="M1665.97,750.54c-3.19,4.88-26.34,40.33-58.58,29.87c-18.14-5.89-30.19-21.87-31.94-39.72
		c-3.91-8.96-5.16-26.08-2.68-45.29c3.55-27.54,13.41-48.96,22.03-47.86c7.93,1.03,12.04,20.78,9.88,45.4
		c9.69-3.83,20.73-4.44,31.42-0.97c5.84,1.9,11.64,5.67,12.27,6.09c10.58,7.17,18.54,18.41,16.59,20.83
		c-0.38,0.03-0.73,0.16-1.04,0.39c-2.05-0.09-6.56-2.79-15.2-4.41c-8.19-1.52-16.37-3.05-22.99,1.31
		c-7.33,4.83-11.73,16.22-8.13,21.18c5.85,8.04,35.38,2.81,42.51-11.27c1.2-2.37,2.13-5.7,3.8-6.81c0.46,0.01,0.81-0.1,1.04-0.39
		c2.8-0.2,5.81,5.32,6.86,9.75C1674.05,737.95,1668.56,746.6,1665.97,750.54z"/>
	<path class="st6" d="M2164.4,756.51c3.19,4.88,26.34,40.33,58.58,29.87c18.14-5.89,30.19-21.87,31.94-39.72
		c3.91-8.96,5.16-26.08,2.68-45.29c-3.55-27.54-13.41-48.96-22.03-47.86c-7.93,1.03-12.04,20.78-9.88,45.4
		c-9.69-3.83-20.73-4.44-31.42-0.97c-5.84,1.9-11.64,5.67-12.27,6.09c-10.58,7.17-18.54,18.41-16.59,20.83
		c0.38,0.03,0.73,0.16,1.04,0.39c2.05-0.09,6.56-2.79,15.2-4.41c8.19-1.52,16.37-3.05,22.99,1.31c7.33,4.83,11.73,16.22,8.13,21.18
		c-5.85,8.04-35.38,2.81-42.51-11.27c-1.2-2.37-2.13-5.7-3.8-6.81c-0.46,0.01-0.81-0.1-1.04-0.39c-2.8-0.2-5.81,5.32-6.86,9.75
		C2156.33,743.91,2161.82,752.56,2164.4,756.51z"/>
	
		<ellipse transform="matrix(0.9627 -0.2705 0.2705 0.9627 -201.4645 594.4595)" class="st6" cx="2055.82" cy="1028.09" rx="152.59" ry="75.1"/>
	<path class="st6" d="M1973.56,1079.35c0,34.24-24.28,61.99-54.24,61.99c-21.02,0-39.23-13.65-48.25-33.63
		c-30.72,6.46-71.18,4.52-113.34-7.32c-81.14-22.79-137.81-73.65-126.59-113.59c11.22-39.92,86.1-53.81,167.22-31.02
		c48.61,13.66,88.44,37.39,110.15,62.8c3.49-0.81,7.11-1.23,10.8-1.23C1949.28,1017.36,1973.56,1045.12,1973.56,1079.35z"/>
	
		<ellipse transform="matrix(0.3028 -0.9531 0.9531 0.3028 -794.9474 3547.3523)" class="st7" cx="2027.06" cy="2317" rx="67.51" ry="128.08"/>
	
		<ellipse transform="matrix(0.9531 -0.3028 0.3028 0.9531 -617.3438 651.9847)" class="st7" cx="1794.06" cy="2317" rx="128.08" ry="67.51"/>
	<path class="st7" d="M1796.24,2208.2c-20.63,31.41-46.23,54.5-68.92,64.53c-8.75,3.86-17.06,5.79-24.49,5.51
		c-8.02-2.79-16.89-8.65-25.72-16.95c-10.15-9.53-20.25-22.25-28.98-37.21c-23.25-39.84-27.9-80.42-10.4-90.63
		c13.64-7.97,36.73,4.88,57.27,29.81c2.84-5.15,5.95-10.31,9.32-15.43c34.67-52.79,83.35-82.07,108.73-65.4
		C1838.43,2099.11,1830.9,2155.41,1796.24,2208.2z"/>
	<path class="st7" d="M2169.52,2224.08c-23.25,39.85-56.29,63.87-73.79,53.66c-0.35-0.2-0.68-0.42-1.01-0.65
		c-25.37-5.72-57.07-31.38-81.71-68.89c-34.67-52.79-42.24-109.07-16.9-125.71c25.33-16.64,73.98,12.66,108.65,65.45
		c4.77,7.27,9.03,14.6,12.76,21.89c21.7-29.18,47.6-45.02,62.4-36.38C2197.42,2143.66,2192.77,2184.24,2169.52,2224.08z"/>
	<path class="st7" d="M1700.49,2138.68c-2.67,4.09-22.1,33.83-49.14,25.05c-15.22-4.94-25.32-18.34-26.79-33.32
		c-3.28-7.52-4.33-21.88-2.25-37.99c2.98-23.1,11.25-41.07,18.48-40.15c6.65,0.86,10.1,17.43,8.29,38.08
		c8.13-3.22,17.39-3.72,26.36-0.81c4.9,1.59,9.77,4.76,10.3,5.11c8.88,6.01,15.55,15.45,13.92,17.47c-0.32,0.02-0.61,0.14-0.87,0.33
		c-1.72-0.07-5.51-2.34-12.75-3.7c-6.87-1.27-13.73-2.55-19.28,1.1c-6.15,4.05-9.84,13.61-6.82,17.76
		c4.91,6.74,29.68,2.36,35.66-9.45c1-1.99,1.78-4.78,3.19-5.71c0.39,0.01,0.68-0.08,0.87-0.33c2.35-0.16,4.87,4.46,5.76,8.18
		C1707.26,2128.12,1702.65,2135.37,1700.49,2138.68z"/>
	<path class="st7" d="M2118.59,2143.68c2.67,4.09,22.1,33.83,49.14,25.05c15.22-4.94,25.32-18.34,26.79-33.32
		c3.28-7.52,4.33-21.88,2.25-37.99c-2.98-23.1-11.25-41.07-18.48-40.15c-6.65,0.86-10.1,17.43-8.29,38.08
		c-8.13-3.22-17.39-3.72-26.36-0.81c-4.9,1.59-9.77,4.76-10.3,5.11c-8.88,6.01-15.55,15.45-13.92,17.47
		c0.32,0.02,0.61,0.14,0.87,0.33c1.72-0.07,5.51-2.34,12.75-3.7c6.87-1.27,13.73-2.55,19.28,1.1c6.15,4.05,9.84,13.61,6.82,17.76
		c-4.91,6.74-29.68,2.36-35.66-9.45c-1-1.99-1.78-4.78-3.19-5.71c-0.39,0.01-0.68-0.08-0.87-0.33c-2.34-0.16-4.87,4.46-5.76,8.18
		C2111.81,2133.12,2116.42,2140.37,2118.59,2143.68z"/>
	
		<ellipse transform="matrix(0.9627 -0.2705 0.2705 0.9627 -565.9317 636.8875)" class="st7" cx="2027.5" cy="2371.5" rx="128" ry="63"/>
	<path class="st7" d="M1958.5,2414.5c0,28.72-20.37,52-45.5,52c-17.63,0-32.91-11.45-40.47-28.21c-25.77,5.42-59.71,3.79-95.07-6.14
		c-68.06-19.12-115.6-61.78-106.19-95.28c9.41-33.49,72.22-45.14,140.27-26.02c40.78,11.46,74.19,31.36,92.4,52.68
		c2.93-0.68,5.96-1.03,9.06-1.03C1938.13,2362.5,1958.5,2385.78,1958.5,2414.5z"/>
	
		<ellipse transform="matrix(0.3028 -0.9531 0.9531 0.3028 -2405.5078 1345.7881)" class="st8" cx="-282.94" cy="2317" rx="67.51" ry="128.08"/>
	
		<ellipse transform="matrix(0.9531 -0.3028 0.3028 0.9531 -725.7797 -47.4549)" class="st8" cx="-515.94" cy="2317" rx="128.08" ry="67.51"/>
	<path class="st8" d="M-513.76,2208.2c-20.63,31.41-46.23,54.5-68.92,64.53c-8.75,3.86-17.06,5.79-24.49,5.51
		c-8.02-2.79-16.89-8.65-25.72-16.95c-10.15-9.53-20.25-22.25-28.98-37.21c-23.25-39.84-27.9-80.42-10.4-90.63
		c13.64-7.97,36.73,4.88,57.27,29.81c2.84-5.15,5.95-10.31,9.32-15.43c34.67-52.79,83.35-82.07,108.73-65.4
		C-471.57,2099.11-479.1,2155.41-513.76,2208.2z"/>
	<path class="st8" d="M-140.48,2224.08c-23.25,39.85-56.29,63.87-73.79,53.66c-0.35-0.2-0.68-0.42-1.01-0.65
		c-25.37-5.72-57.07-31.38-81.71-68.89c-34.67-52.79-42.24-109.07-16.9-125.71c25.33-16.64,73.98,12.66,108.65,65.45
		c4.77,7.27,9.03,14.6,12.76,21.89c21.7-29.18,47.6-45.02,62.4-36.38C-112.58,2143.66-117.23,2184.24-140.48,2224.08z"/>
	<path class="st8" d="M-609.51,2138.68c-2.67,4.09-22.1,33.83-49.14,25.05c-15.22-4.94-25.32-18.34-26.79-33.32
		c-3.28-7.52-4.33-21.88-2.25-37.99c2.98-23.1,11.25-41.07,18.48-40.15c6.65,0.86,10.1,17.43,8.29,38.08
		c8.13-3.22,17.39-3.72,26.36-0.81c4.9,1.59,9.77,4.76,10.3,5.11c8.88,6.01,15.55,15.45,13.92,17.47c-0.32,0.02-0.61,0.14-0.87,0.33
		c-1.72-0.07-5.51-2.34-12.75-3.7c-6.87-1.27-13.73-2.55-19.28,1.1c-6.15,4.05-9.84,13.61-6.82,17.76
		c4.91,6.74,29.68,2.36,35.66-9.45c1-1.99,1.78-4.78,3.19-5.71c0.39,0.01,0.68-0.08,0.87-0.33c2.35-0.16,4.87,4.46,5.76,8.18
		C-602.74,2128.12-607.35,2135.37-609.51,2138.68z"/>
	<path class="st8" d="M-191.41,2143.68c2.67,4.09,22.1,33.83,49.14,25.05c15.22-4.94,25.32-18.34,26.79-33.32
		c3.28-7.52,4.33-21.88,2.25-37.99c-2.98-23.1-11.25-41.07-18.48-40.15c-6.65,0.86-10.1,17.43-8.29,38.08
		c-8.13-3.22-17.39-3.72-26.36-0.81c-4.9,1.59-9.77,4.76-10.3,5.11c-8.88,6.01-15.55,15.45-13.92,17.47
		c0.32,0.02,0.61,0.14,0.87,0.33c1.72-0.07,5.51-2.34,12.75-3.7c6.87-1.27,13.73-2.55,19.28,1.1c6.15,4.05,9.84,13.61,6.82,17.76
		c-4.91,6.74-29.68,2.36-35.66-9.45c-1-1.99-1.78-4.78-3.19-5.71c-0.39,0.01-0.68-0.08-0.87-0.33c-2.35-0.16-4.87,4.46-5.76,8.18
		C-198.19,2133.12-193.58,2140.37-191.41,2143.68z"/>
	
		<ellipse transform="matrix(0.9627 -0.2705 0.2705 0.9627 -652.058 11.9989)" class="st8" cx="-282.5" cy="2371.5" rx="128" ry="63"/>
	<path class="st8" d="M-351.5,2414.5c0,28.72-20.37,52-45.5,52c-17.63,0-32.91-11.45-40.47-28.21c-25.77,5.42-59.71,3.79-95.07-6.14
		c-68.06-19.12-115.6-61.78-106.19-95.28c9.41-33.49,72.22-45.14,140.27-26.02c40.78,11.46,74.19,31.36,92.4,52.68
		c2.93-0.68,5.96-1.03,9.06-1.03C-371.87,2362.5-351.5,2385.78-351.5,2414.5z"/>
</g>
<g id="Layer_7">
	<ellipse class="st9" cx="369.97" cy="860.31" rx="177.97" ry="157.31"/>
	<ellipse class="st10" cx="369.56" cy="860.31" rx="148.56" ry="131.31"/>
	<ellipse class="st11" cx="1138.51" cy="2238.5" rx="224.01" ry="198"/>
	<ellipse class="st12" cx="1137.99" cy="2238.5" rx="186.99" ry="165.27"/>
	<ellipse class="st13" cx="2678.51" cy="2238.5" rx="224.01" ry="198"/>
	<ellipse class="st14" cx="2677.99" cy="2238.5" rx="186.99" ry="165.27"/>
	<ellipse class="st9" cx="1138.01" cy="885" rx="224.01" ry="198"/>
	<ellipse class="st10" cx="1137.49" cy="885" rx="186.99" ry="165.27"/>
	<ellipse class="st9" cx="369.97" cy="860.31" rx="177.97" ry="157.31"/>
	<ellipse class="st10" cx="369.56" cy="860.31" rx="148.56" ry="131.31"/>
	<ellipse class="st11" cx="376.81" cy="2194.1" rx="212.17" ry="187.53"/>
	<ellipse class="st12" cx="376.31" cy="2194.1" rx="177.1" ry="156.54"/>
	<ellipse class="st13" cx="2684.81" cy="841.6" rx="212.17" ry="187.53"/>
	<ellipse class="st10" cx="2684.31" cy="841.6" rx="177.1" ry="156.54"/>
	<ellipse class="st9" cx="1916.31" cy="840.1" rx="212.17" ry="187.53"/>
	<ellipse class="st10" cx="1915.81" cy="840.1" rx="177.1" ry="156.54"/>
	<ellipse class="st11" cx="1910.47" cy="2213.81" rx="177.97" ry="157.31"/>
	<ellipse class="st12" cx="1910.06" cy="2213.81" rx="148.56" ry="131.31"/>
	<ellipse class="st13" cx="-399.53" cy="2213.81" rx="177.97" ry="157.31"/>
	<ellipse class="st14" cx="-399.94" cy="2213.81" rx="148.56" ry="131.31"/>
</g>
<g id="Layer_6">
	
		<ellipse transform="matrix(0.7632 -0.6461 0.6461 0.7632 -280.3484 291.4055)" class="st9" cx="257.43" cy="528.22" rx="71.93" ry="58.32"/>
	
		<ellipse transform="matrix(0.6461 -0.7632 0.7632 0.6461 -229.2505 561.9914)" class="st9" cx="491.43" cy="528.22" rx="58.32" ry="71.93"/>
	
		<ellipse transform="matrix(0.7632 -0.6461 0.6461 0.7632 -283.1026 296.2521)" class="st6" cx="262.67" cy="534.4" rx="52.02" ry="42.18"/>
	
		<ellipse transform="matrix(0.6461 -0.7632 0.7632 0.6461 -235.654 560.5425)" class="st6" cx="486.67" cy="534.4" rx="42.18" ry="52.02"/>
	<ellipse class="st9" cx="374.72" cy="641.5" rx="148.29" ry="132.5"/>
	
		<ellipse transform="matrix(0.7626 -0.6468 0.6468 0.7626 -338.7621 351.4805)" class="st6" cx="309.52" cy="637.31" rx="59.63" ry="56.66"/>
	
		<ellipse transform="matrix(0.6468 -0.7626 0.7626 0.6468 -328.9834 565.2002)" class="st6" cx="445.75" cy="637.8" rx="56.02" ry="59.63"/>
	<ellipse class="st10" cx="375.5" cy="693" rx="77.5" ry="71"/>
	
		<ellipse transform="matrix(0.7632 -0.6461 0.6461 0.7632 -280.3484 291.4055)" class="st9" cx="257.43" cy="528.22" rx="71.93" ry="58.32"/>
	
		<ellipse transform="matrix(0.6461 -0.7632 0.7632 0.6461 -229.2505 561.9914)" class="st9" cx="491.43" cy="528.22" rx="58.32" ry="71.93"/>
	
		<ellipse transform="matrix(0.7632 -0.6461 0.6461 0.7632 -283.1026 296.2521)" class="st6" cx="262.67" cy="534.4" rx="52.02" ry="42.18"/>
	
		<ellipse transform="matrix(0.6461 -0.7632 0.7632 0.6461 -235.654 560.5425)" class="st6" cx="486.67" cy="534.4" rx="42.18" ry="52.02"/>
	<ellipse class="st9" cx="374.72" cy="641.5" rx="148.29" ry="132.5"/>
	
		<ellipse transform="matrix(0.7626 -0.6468 0.6468 0.7626 -338.7621 351.4805)" class="st6" cx="309.52" cy="637.31" rx="59.63" ry="56.66"/>
	
		<ellipse transform="matrix(0.6468 -0.7626 0.7626 0.6468 -328.9834 565.2002)" class="st6" cx="445.75" cy="637.8" rx="56.02" ry="59.63"/>
	<ellipse class="st10" cx="375.5" cy="693" rx="77.5" ry="71"/>
	
		<ellipse transform="matrix(0.7632 -0.6461 0.6461 0.7632 -972.4551 1109.7289)" class="st11" cx="1027.93" cy="1881.72" rx="71.93" ry="58.32"/>
	
		<ellipse transform="matrix(0.6461 -0.7632 0.7632 0.6461 -989.6203 1629.0123)" class="st11" cx="1261.93" cy="1881.72" rx="58.32" ry="71.93"/>
	
		<ellipse transform="matrix(0.7632 -0.6461 0.6461 0.7632 -975.2093 1114.5754)" class="st7" cx="1033.17" cy="1887.9" rx="52.02" ry="42.18"/>
	
		<ellipse transform="matrix(0.6461 -0.7632 0.7632 0.6461 -996.0238 1627.5635)" class="st7" cx="1257.17" cy="1887.9" rx="42.18" ry="52.02"/>
	<ellipse class="st11" cx="1145.21" cy="1995" rx="148.29" ry="132.5"/>
	
		<ellipse transform="matrix(0.7626 -0.6468 0.6468 0.7626 -1031.3523 1171.127)" class="st7" cx="1080.02" cy="1990.81" rx="59.63" ry="56.66"/>
	
		<ellipse transform="matrix(0.6468 -0.7626 0.7626 0.6468 -1089.0934 1630.8367)" class="st7" cx="1216.25" cy="1991.3" rx="56.02" ry="59.63"/>
	<ellipse class="st12" cx="1146" cy="2046.5" rx="77.5" ry="71"/>
	
		<ellipse transform="matrix(0.7632 -0.6461 0.6461 0.7632 -607.8196 2104.7759)" class="st13" cx="2567.93" cy="1881.72" rx="71.93" ry="58.32"/>
	
		<ellipse transform="matrix(0.6461 -0.7632 0.7632 0.6461 -444.6672 2804.377)" class="st13" cx="2801.93" cy="1881.72" rx="58.32" ry="71.93"/>
	
		<ellipse transform="matrix(0.7632 -0.6461 0.6461 0.7632 -610.5738 2109.6223)" class="st8" cx="2573.17" cy="1887.9" rx="52.02" ry="42.18"/>
	
		<ellipse transform="matrix(0.6461 -0.7632 0.7632 0.6461 -451.0707 2802.928)" class="st8" cx="2797.17" cy="1887.9" rx="42.18" ry="52.02"/>
	<ellipse class="st13" cx="2685.22" cy="1995" rx="148.29" ry="132.5"/>
	
		<ellipse transform="matrix(0.7626 -0.6468 0.6468 0.7626 -665.8162 2167.2366)" class="st8" cx="2620.02" cy="1990.81" rx="59.63" ry="56.66"/>
	
		<ellipse transform="matrix(0.6468 -0.7626 0.7626 0.6468 -545.2031 2805.3005)" class="st8" cx="2756.25" cy="1991.3" rx="56.02" ry="59.63"/>
	<ellipse class="st14" cx="2686" cy="2046.5" rx="77.5" ry="71"/>
	
		<ellipse transform="matrix(0.7632 -0.6461 0.6461 0.7632 -98.0307 788.929)" class="st9" cx="1027.43" cy="528.22" rx="71.93" ry="58.32"/>
	
		<ellipse transform="matrix(0.6461 -0.7632 0.7632 0.6461 43.226 1149.6737)" class="st9" cx="1261.43" cy="528.22" rx="58.32" ry="71.93"/>
	
		<ellipse transform="matrix(0.7632 -0.6461 0.6461 0.7632 -100.7848 793.7756)" class="st6" cx="1032.67" cy="534.4" rx="52.02" ry="42.18"/>
	
		<ellipse transform="matrix(0.6461 -0.7632 0.7632 0.6461 36.8225 1148.2247)" class="st6" cx="1256.67" cy="534.4" rx="42.18" ry="52.02"/>
	<ellipse class="st9" cx="1144.71" cy="641.5" rx="148.29" ry="132.5"/>
	
		<ellipse transform="matrix(0.7626 -0.6468 0.6468 0.7626 -155.9941 849.5353)" class="st6" cx="1079.52" cy="637.31" rx="59.63" ry="56.66"/>
	
		<ellipse transform="matrix(0.6468 -0.7626 0.7626 0.6468 -57.0382 1152.4321)" class="st6" cx="1215.75" cy="637.8" rx="56.02" ry="59.63"/>
	<ellipse class="st10" cx="1145.5" cy="693" rx="77.5" ry="71"/>
	
		<ellipse transform="matrix(0.7632 -0.6461 0.6461 0.7632 -1104.4363 582.553)" class="st11" cx="242.64" cy="1798.21" rx="85.75" ry="69.52"/>
	
		<ellipse transform="matrix(0.6461 -0.7632 0.7632 0.6461 -1187.8638 1034.4221)" class="st11" cx="521.6" cy="1798.21" rx="69.52" ry="85.75"/>
	
		<ellipse transform="matrix(0.7632 -0.6461 0.6461 0.7632 -1107.7196 588.3307)" class="st7" cx="248.88" cy="1805.58" rx="62.01" ry="50.28"/>
	
		<ellipse transform="matrix(0.6461 -0.7632 0.7632 0.6461 -1195.4976 1032.6949)" class="st7" cx="515.92" cy="1805.58" rx="50.28" ry="62.01"/>
	<ellipse class="st11" cx="382.46" cy="1933.26" rx="176.78" ry="157.96"/>
	
		<ellipse transform="matrix(0.7626 -0.6468 0.6468 0.7626 -1174.9165 654.8088)" class="st7" cx="304.74" cy="1928.27" rx="71.09" ry="67.54"/>
	
		<ellipse transform="matrix(0.6468 -0.7626 0.7626 0.6468 -1306.0303 1037.4786)" class="st7" cx="467.14" cy="1928.84" rx="66.78" ry="71.09"/>
	<ellipse class="st12" cx="383.39" cy="1994.65" rx="92.39" ry="84.64"/>
	
		<ellipse transform="matrix(0.7632 -0.6461 0.6461 0.7632 315.9403 1753.5912)" class="st13" cx="2550.64" cy="445.71" rx="85.75" ry="69.52"/>
	
		<ellipse transform="matrix(0.6461 -0.7632 0.7632 0.6461 661.1182 2317.3391)" class="st13" cx="2829.6" cy="445.71" rx="69.52" ry="85.75"/>
	
		<ellipse transform="matrix(0.7632 -0.6461 0.6461 0.7632 312.657 1759.3688)" class="st8" cx="2556.88" cy="453.08" rx="62.01" ry="50.28"/>
	
		<ellipse transform="matrix(0.6461 -0.7632 0.7632 0.6461 653.4843 2315.6118)" class="st8" cx="2823.92" cy="453.08" rx="50.28" ry="62.01"/>
	<ellipse class="st13" cx="2690.46" cy="580.76" rx="176.78" ry="157.96"/>
	
		<ellipse transform="matrix(0.7626 -0.6468 0.6468 0.7626 247.7428 1826.6488)" class="st8" cx="2612.74" cy="575.77" rx="71.09" ry="67.54"/>
	
		<ellipse transform="matrix(0.6468 -0.7626 0.7626 0.6468 540.5681 2319.9795)" class="st8" cx="2775.14" cy="576.34" rx="66.78" ry="71.09"/>
	<ellipse class="st10" cx="2691.39" cy="642.15" rx="92.39" ry="84.64"/>
	
		<ellipse transform="matrix(0.7632 -0.6461 0.6461 0.7632 134.9469 1256.6818)" class="st9" cx="1782.14" cy="444.21" rx="85.75" ry="69.52"/>
	
		<ellipse transform="matrix(0.6461 -0.7632 0.7632 0.6461 390.3172 1730.271)" class="st9" cx="2061.1" cy="444.21" rx="69.52" ry="85.75"/>
	
		<ellipse transform="matrix(0.7632 -0.6461 0.6461 0.7632 131.6636 1262.4594)" class="st6" cx="1788.38" cy="451.58" rx="62.01" ry="50.28"/>
	
		<ellipse transform="matrix(0.6461 -0.7632 0.7632 0.6461 382.6834 1728.5437)" class="st6" cx="2055.42" cy="451.58" rx="50.28" ry="62.01"/>
	<ellipse class="st9" cx="1921.96" cy="579.26" rx="176.78" ry="157.96"/>
	
		<ellipse transform="matrix(0.7626 -0.6468 0.6468 0.7626 66.3011 1329.2081)" class="st6" cx="1844.24" cy="574.27" rx="71.09" ry="67.54"/>
	
		<ellipse transform="matrix(0.6468 -0.7626 0.7626 0.6468 270.2966 1733.3616)" class="st6" cx="2006.64" cy="574.84" rx="66.78" ry="71.09"/>
	<ellipse class="st10" cx="1922.89" cy="640.65" rx="92.39" ry="84.64"/>
	
		<ellipse transform="matrix(0.7632 -0.6461 0.6461 0.7632 -790.1374 1607.2523)" class="st11" cx="1797.93" cy="1881.72" rx="71.93" ry="58.32"/>
	
		<ellipse transform="matrix(0.6461 -0.7632 0.7632 0.6461 -717.1437 2216.6946)" class="st11" cx="2031.93" cy="1881.72" rx="58.32" ry="71.93"/>
	
		<ellipse transform="matrix(0.7632 -0.6461 0.6461 0.7632 -792.8915 1612.0989)" class="st7" cx="1803.17" cy="1887.9" rx="52.02" ry="42.18"/>
	
		<ellipse transform="matrix(0.6461 -0.7632 0.7632 0.6461 -723.5473 2215.2456)" class="st7" cx="2027.17" cy="1887.9" rx="42.18" ry="52.02"/>
	<ellipse class="st11" cx="1915.21" cy="1995" rx="148.29" ry="132.5"/>
	
		<ellipse transform="matrix(0.7626 -0.6468 0.6468 0.7626 -848.5842 1669.1818)" class="st7" cx="1850.02" cy="1990.81" rx="59.63" ry="56.66"/>
	
		<ellipse transform="matrix(0.6468 -0.7626 0.7626 0.6468 -817.1483 2218.0686)" class="st7" cx="1986.25" cy="1991.3" rx="56.02" ry="59.63"/>
	<ellipse class="st12" cx="1916" cy="2046.5" rx="77.5" ry="71"/>
	
		<ellipse transform="matrix(0.7632 -0.6461 0.6461 0.7632 -1337.0907 114.6819)" class="st13" cx="-512.07" cy="1881.72" rx="71.93" ry="58.32"/>
	
		<ellipse transform="matrix(0.6461 -0.7632 0.7632 0.6461 -1534.5734 453.6479)" class="st13" cx="-278.07" cy="1881.72" rx="58.32" ry="71.93"/>
	
		<ellipse transform="matrix(0.7632 -0.6461 0.6461 0.7632 -1339.8448 119.5285)" class="st8" cx="-506.83" cy="1887.9" rx="52.02" ry="42.18"/>
	
		<ellipse transform="matrix(0.6461 -0.7632 0.7632 0.6461 -1540.9769 452.199)" class="st8" cx="-282.83" cy="1887.9" rx="42.18" ry="52.02"/>
	<ellipse class="st13" cx="-394.78" cy="1995" rx="148.29" ry="132.5"/>
	
		<ellipse transform="matrix(0.7626 -0.6468 0.6468 0.7626 -1396.8883 175.0173)" class="st8" cx="-459.98" cy="1990.81" rx="59.63" ry="56.66"/>
	
		<ellipse transform="matrix(0.6468 -0.7626 0.7626 0.6468 -1632.9838 456.3727)" class="st8" cx="-323.75" cy="1991.3" rx="56.02" ry="59.63"/>
	<ellipse class="st14" cx="-394" cy="2046.5" rx="77.5" ry="71"/>
</g>
<g id="Layer_9">
	<path class="st15" d="M391.1,693.49l12.02-14.38c10.98-13.13,1.64-33.11-15.48-33.11h-24.04c-17.12,0-26.45,19.97-15.48,33.11
		l12.02,14.38C368.21,703.13,383.04,703.13,391.1,693.49z"/>
	<line class="st16" x1="376" y1="701" x2="376" y2="735"/>
	<line class="st16" x1="359" y1="735" x2="394" y2="735"/>
	<path class="st17" d="M318,610c-3.76,0.93-15.75,4.38-25,16c-9.66,12.13-10.03,25.22-10,29"/>
	<path class="st17" d="M435,612c3.76,0.93,15.75,4.38,25,16c9.66,12.13,10.03,25.22,10,29"/>
	<path class="st15" d="M391.1,693.49l12.02-14.38c10.98-13.13,1.64-33.11-15.48-33.11h-24.04c-17.12,0-26.45,19.97-15.48,33.11
		l12.02,14.38C368.21,703.13,383.04,703.13,391.1,693.49z"/>
	<line class="st16" x1="376" y1="701" x2="376" y2="735"/>
	<path class="st17" d="M318,610c-3.76,0.93-15.75,4.38-25,16c-9.66,12.13-10.03,25.22-10,29"/>
	<path class="st17" d="M435,612c3.76,0.93,15.75,4.38,25,16c9.66,12.13,10.03,25.22,10,29"/>
	<path class="st15" d="M1161.6,2046.99l12.02-14.38c10.98-13.13,1.64-33.11-15.48-33.11h-24.04c-17.12,0-26.45,19.97-15.48,33.11
		l12.02,14.38C1138.71,2056.63,1153.54,2056.63,1161.6,2046.99z"/>
	<path class="st15" d="M399.02,1998.79l22.62-27.06c10.98-13.13,1.64-33.11-15.48-33.11h-45.24c-17.12,0-26.45,19.97-15.48,33.11
		l22.62,27.06C376.13,2008.43,390.96,2008.43,399.02,1998.79z"/>
	<line class="st16" x1="383.99" y1="2004.19" x2="383.99" y2="2044.72"/>
	<path class="st17" d="M314.85,1895.7c-4.49,1.11-18.77,5.22-29.8,19.07c-11.51,14.46-11.95,30.07-11.92,34.57"/>
	<path class="st17" d="M454.32,1898.09c4.49,1.11,18.77,5.22,29.8,19.07c11.51,14.46,11.95,30.07,11.92,34.57"/>
	<line class="st16" x1="359" y1="735" x2="394" y2="735"/>
	<path class="st15" d="M1161.1,693.49l12.02-14.38c10.98-13.13,1.64-33.11-15.48-33.11h-24.04c-17.12,0-26.45,19.97-15.48,33.11
		l12.02,14.38C1138.21,703.13,1153.04,703.13,1161.1,693.49z"/>
	<line class="st16" x1="1146" y1="701" x2="1146" y2="735"/>
	<path class="st17" d="M1088,610c-3.76,0.93-15.75,4.38-25,16c-9.66,12.13-10.03,25.22-10,29"/>
	<path class="st17" d="M1205,612c3.76,0.93,15.75,4.38,25,16c9.66,12.13,10.03,25.22,10,29"/>
	<line class="st16" x1="1129" y1="735" x2="1164" y2="735"/>
	<line class="st16" x1="363.72" y1="2044.72" x2="405.45" y2="2044.72"/>
	<path class="st15" d="M2707.02,646.29l22.62-27.06c10.98-13.13,1.64-33.11-15.48-33.11h-45.24c-17.12,0-26.45,19.97-15.48,33.11
		l22.62,27.06C2684.13,655.93,2698.96,655.93,2707.02,646.29z"/>
	<line class="st16" x1="2691.99" y1="651.69" x2="2691.99" y2="692.22"/>
	<path class="st17" d="M2622.85,543.2c-4.49,1.11-18.77,5.22-29.8,19.07c-11.51,14.46-11.95,30.07-11.92,34.57"/>
	<path class="st17" d="M2762.32,545.59c4.49,1.11,18.77,5.22,29.8,19.07c11.51,14.46,11.95,30.07,11.92,34.57"/>
	<line class="st16" x1="2671.72" y1="692.22" x2="2713.45" y2="692.22"/>
	<path class="st15" d="M1938.52,644.79l22.62-27.06c10.98-13.13,1.64-33.11-15.48-33.11h-45.24c-17.12,0-26.45,19.97-15.48,33.11
		l22.62,27.06C1915.63,654.43,1930.46,654.43,1938.52,644.79z"/>
	<line class="st16" x1="1923.49" y1="650.19" x2="1923.49" y2="690.72"/>
	<path class="st17" d="M1854.35,541.7c-4.49,1.11-18.77,5.22-29.8,19.07c-11.51,14.46-11.95,30.07-11.92,34.57"/>
	<path class="st17" d="M1993.82,544.09c4.49,1.11,18.77,5.22,29.8,19.07c11.51,14.46,11.95,30.07,11.92,34.57"/>
	<line class="st16" x1="1903.22" y1="690.72" x2="1944.95" y2="690.72"/>
	<path class="st15" d="M1931.6,2046.99l12.02-14.38c10.98-13.13,1.64-33.11-15.48-33.11h-24.04c-17.12,0-26.45,19.97-15.48,33.11
		l12.02,14.38C1908.71,2056.63,1923.54,2056.63,1931.6,2046.99z"/>
	<line class="st16" x1="1916.5" y1="2054.5" x2="1916.5" y2="2088.5"/>
	<path class="st17" d="M1858.5,1963.5c-3.76,0.93-15.75,4.38-25,16c-9.66,12.13-10.03,25.22-10,29"/>
	<path class="st17" d="M1975.5,1965.5c3.76,0.93,15.75,4.38,25,16c9.66,12.13,10.03,25.22,10,29"/>
	<path class="st16" d="M1890.5,2076.5c1.38,1.6,10.55,11.89,25.58,12c17.61,0.13,27.58-13.79,28.42-15"/>
	<path class="st15" d="M-378.4,2046.99l12.02-14.38c10.98-13.13,1.64-33.11-15.48-33.11h-24.04c-17.12,0-26.45,19.97-15.48,33.11
		l12.02,14.38C-401.29,2056.63-386.46,2056.63-378.4,2046.99z"/>
	<line class="st16" x1="-393.5" y1="2054.5" x2="-393.5" y2="2088.5"/>
	<path class="st17" d="M-445.29,2001.83c-1.2-3.69-5.51-15.39-17.77-23.78c-12.8-8.76-25.88-8.18-29.65-7.88"/>
	<path class="st17" d="M-339.31,2005.74c0.89-3.77,4.21-15.79,15.73-25.17c12.03-9.79,25.12-10.29,28.89-10.31"/>
	<path class="st16" d="M-411.5,2095.71c1.08-1.07,6.83-6.53,17.09-7.52c12.54-1.2,21.02,5.31,21.91,6.02"/>
	<path class="st15" d="M2701.6,2046.99l12.02-14.38c10.98-13.13,1.64-33.11-15.48-33.11h-24.04c-17.12,0-26.45,19.97-15.48,33.11
		l12.02,14.38C2678.71,2056.63,2693.54,2056.63,2701.6,2046.99z"/>
	<line class="st16" x1="2686.5" y1="2054.5" x2="2686.5" y2="2088.5"/>
	<path class="st17" d="M2635.21,2002.33c-1.2-3.69-5.51-15.39-17.77-23.78c-12.8-8.76-25.88-8.18-29.65-7.88"/>
	<path class="st17" d="M2741.19,2006.24c0.89-3.77,4.21-15.79,15.73-25.17c12.03-9.79,25.12-10.29,28.89-10.31"/>
	<path class="st16" d="M2669,2096.21c1.08-1.07,6.83-6.53,17.09-7.52c12.54-1.2,21.02,5.31,21.91,6.02"/>
	<path class="st17" d="M1088,1962.5c-3.76,0.93-15.75,4.38-25,16c-9.66,12.13-10.03,25.22-10,29"/>
	<path class="st17" d="M1205,1964.5c3.76,0.93,15.75,4.38,25,16c9.66,12.13,10.03,25.22,10,29"/>
	<path class="st16" d="M1120,2075.5c1.38,1.6,10.55,11.89,25.58,12c17.61,0.13,27.58-13.79,28.42-15"/>
	<line class="st16" x1="1146" y1="2053.5" x2="1146" y2="2087.5"/>
</g>
</svg>
