<?xml version="1.0" encoding="utf-8"?>
<!-- Generator: Adobe Illustrator 23.0.2, SVG Export Plug-In . SVG Version: 6.00 Build 0)  -->
<svg version="1.1" xmlns="http://www.w3.org/2000/svg" xmlns:xlink="http://www.w3.org/1999/xlink" x="0px" y="0px"
	 viewBox="0 0 750 1334" style="enable-background:new 0 0 750 1334;" xml:space="preserve">
<style type="text/css">
	.st0{display:none;}
	.st1{display:inline;}
	.st2{fill:#FFCC99;}
	.st3{fill:#CCCCFF;}
	.st4{fill:#D7D7FF;}
	.st5{fill:#E1E1FF;}
	.st6{fill:#EBEBFF;}
	.st7{fill:#F5F5FF;}
	.st8{fill:#FFCC66;stroke:#FBDD3B;stroke-width:2;stroke-miterlimit:10;}
	.st9{fill:#7F47DD;stroke:#BB83FF;stroke-width:2;stroke-miterlimit:10;}
	.st10{fill:#CC6633;stroke:#FF6633;stroke-width:2;stroke-miterlimit:10;}
	.st11{fill:#FFEE96;stroke:#FBDD3B;stroke-width:2;stroke-miterlimit:10;}
	.st12{fill:#FFF4CD;stroke:#FBDD3B;stroke-width:2;stroke-miterlimit:10;}
	.st13{fill:#CC99FF;stroke:#BB83FF;stroke-width:2;stroke-miterlimit:10;}
	.st14{fill:#FFF4CD;stroke:#BB83FF;stroke-width:2;stroke-miterlimit:10;}
	.st15{fill:#FF9966;stroke:#FF6633;stroke-width:2;stroke-miterlimit:10;}
	.st16{fill:#FFF4CD;stroke:#FF6633;stroke-width:2;stroke-miterlimit:10;}
	.st17{fill:#FFCC66;}
	.st18{fill:none;stroke:#FFCC66;stroke-width:6;stroke-miterlimit:10;}
	.st19{fill:none;stroke:#FFF4CD;stroke-width:6;stroke-miterlimit:10;}
</style>
<g id="Layer_8" class="st0">
	<g id="Layer_1" class="st1">
		<rect x="-6" y="2" class="st2" width="750" height="1334"/>
		<path class="st3" d="M696.95,854.48c0.03,0.48,0.05,0.96,0.05,1.45c-0.44,157.78-145,285.57-323.25,285.57
			S50.94,1013.71,50.5,855.93c0-0.48,0.01-0.97,0.05-1.45c1.09-16.34,2.99-34.31,5.78-53.66
			c18.14-125.62,88.88-328.39,193.09-476.61c34.17-48.09,106.13-126.33,106.13-126.33s26.76-9.78,36.4,0
			c35.76,36.31,71.96,78.24,106.13,126.33c118.98,167.47,174.96,351,193.09,476.61C693.96,820.17,695.87,838.14,696.95,854.48z"/>
	</g>
	<g id="Layer_11" class="st1">
	</g>
	<g id="Layer_12" class="st1">
	</g>
	<g id="Layer_2" class="st1">
		<path class="st4" d="M660.67,870.02c0.03,0.43,0.04,0.86,0.04,1.29c-0.39,139.89-128.57,253.19-286.6,253.19
			S87.89,1011.2,87.5,871.31c0-0.43,0.01-0.86,0.04-1.29c0.96-14.49,2.65-30.42,5.13-47.58c16.08-111.38,78.8-291.16,171.2-422.58
			c30.29-42.64,94.1-112.01,94.1-112.01s23.73-8.67,32.27,0c31.7,32.19,63.8,69.37,94.1,112.01
			c105.49,148.49,155.12,311.2,171.2,422.58C658.01,839.6,659.7,855.53,660.67,870.02z"/>
	</g>
	<g id="Layer_3" class="st1">
		<path class="st5" d="M619.83,890.35c0.02,0.37,0.04,0.73,0.04,1.1c-0.34,119.92-110.21,217.05-245.68,217.05
			s-245.35-97.13-245.68-217.05c0-0.37,0.01-0.73,0.04-1.1c0.83-12.42,2.27-26.08,4.39-40.79
			c13.79-95.47,67.55-249.59,146.76-362.25c25.97-36.55,80.66-96.01,80.66-96.01s20.34-7.44,27.67,0
			c27.18,27.6,54.69,59.47,80.66,96.01c90.43,127.29,132.97,266.77,146.76,362.25C617.56,864.27,619.01,877.94,619.83,890.35z"/>
		<path class="st5" d="M619.83,890.35c0.02,0.37,0.04,0.73,0.04,1.1c-0.34,119.92-110.21,217.05-245.68,217.05
			s-245.35-97.13-245.68-217.05c0-0.37,0.01-0.73,0.04-1.1c0.83-12.42,2.27-26.08,4.39-40.79
			c13.79-95.47,67.55-249.59,146.76-362.25c25.97-36.55,80.66-96.01,80.66-96.01s20.34-7.44,27.67,0
			c27.18,27.6,54.69,59.47,80.66,96.01c90.43,127.29,132.97,266.77,146.76,362.25C617.56,864.27,619.01,877.94,619.83,890.35z"/>
	</g>
	<g id="Layer_4" class="st1">
		<path class="st6" d="M588.78,898.9c0.02,0.32,0.03,0.64,0.03,0.96c-0.29,104.77-96.29,189.63-214.65,189.63
			S159.8,1004.64,159.5,899.87c0-0.32,0.01-0.64,0.03-0.96c0.72-10.85,1.99-22.78,3.84-35.64
			c12.04-83.42,59.02-218.07,128.22-316.49c22.69-31.93,70.47-83.89,70.47-83.89s17.77-6.5,24.17,0
			c23.75,24.11,47.79,51.95,70.47,83.89c79.01,111.21,116.18,233.08,128.22,316.49C586.79,876.12,588.06,888.06,588.78,898.9z"/>
	</g>
	<g id="Layer_5" class="st1">
		<ellipse class="st7" cx="374" cy="906.5" rx="183" ry="163.5"/>
	</g>
</g>
<g id="Layer_10">
	
		<ellipse transform="matrix(0.3028 -0.9531 0.9531 0.3028 -561.1219 1162.2246)" class="st10" cx="513.79" cy="964.63" rx="80.48" ry="152.68"/>
	
		<ellipse transform="matrix(0.9531 -0.3028 0.3028 0.9531 -280.9974 116.7479)" class="st10" cx="236.03" cy="964.63" rx="152.68" ry="80.48"/>
	<path class="st10" d="M238.62,834.92c-24.59,37.44-55.11,64.97-82.16,76.93c-10.43,4.6-20.34,6.9-29.2,6.57
		c-9.56-3.33-20.14-10.31-30.66-20.21c-12.1-11.36-24.14-26.52-34.55-44.36c-27.72-47.49-33.26-95.87-12.4-108.04
		c16.26-9.5,43.79,5.82,68.27,35.54c3.39-6.14,7.09-12.29,11.11-18.39c41.33-62.93,99.36-97.84,129.62-77.96
		C288.92,704.87,279.94,771.99,238.62,834.92z"/>
	<path class="st10" d="M683.62,853.85c-27.72,47.51-67.1,76.14-87.97,63.97c-0.42-0.24-0.81-0.5-1.2-0.77
		c-30.24-6.82-68.03-37.41-97.41-82.13c-41.33-62.93-50.36-130.03-20.15-149.86c30.2-19.84,88.19,15.09,129.52,78.02
		c5.69,8.67,10.76,17.41,15.21,26.1c25.87-34.79,56.75-53.67,74.39-43.37C716.88,757.98,711.34,806.35,683.62,853.85z"/>
	<path class="st10" d="M124.47,752.04c-3.19,4.88-26.34,40.33-58.58,29.87c-18.14-5.89-30.19-21.87-31.94-39.72
		c-3.91-8.96-5.16-26.08-2.68-45.29c3.55-27.54,13.41-48.96,22.03-47.86c7.93,1.03,12.04,20.78,9.88,45.4
		c9.69-3.83,20.73-4.44,31.42-0.97c5.84,1.9,11.64,5.67,12.27,6.09c10.58,7.17,18.54,18.41,16.59,20.83
		c-0.38,0.03-0.73,0.16-1.04,0.39c-2.05-0.09-6.56-2.79-15.2-4.41c-8.19-1.52-16.37-3.05-22.99,1.31
		c-7.33,4.83-11.73,16.22-8.13,21.18c5.85,8.04,35.38,2.81,42.51-11.27c1.2-2.37,2.13-5.7,3.8-6.81c0.46,0.01,0.81-0.1,1.04-0.39
		c2.8-0.2,5.81,5.32,6.86,9.75C132.55,739.45,127.06,748.1,124.47,752.04z"/>
	<path class="st10" d="M622.9,758.01c3.19,4.88,26.34,40.33,58.58,29.87c18.14-5.89,30.19-21.87,31.94-39.72
		c3.91-8.96,5.16-26.08,2.68-45.29c-3.55-27.54-13.41-48.96-22.03-47.86c-7.93,1.03-12.04,20.78-9.88,45.4
		c-9.69-3.83-20.73-4.44-31.42-0.97c-5.84,1.9-11.64,5.67-12.27,6.09c-10.58,7.17-18.54,18.41-16.59,20.83
		c0.38,0.03,0.73,0.16,1.04,0.39c2.05-0.09,6.56-2.79,15.2-4.41c8.19-1.52,16.37-3.05,22.99,1.31c7.33,4.83,11.73,16.22,8.13,21.18
		c-5.85,8.04-35.38,2.81-42.51-11.27c-1.2-2.37-2.13-5.7-3.8-6.81c-0.46,0.01-0.81-0.1-1.04-0.39c-2.8-0.2-5.81,5.32-6.86,9.75
		C614.83,745.41,620.32,754.06,622.9,758.01z"/>
	
		<ellipse transform="matrix(0.9627 -0.2705 0.2705 0.9627 -259.3437 177.5172)" class="st10" cx="514.32" cy="1029.59" rx="152.59" ry="75.1"/>
	<path class="st10" d="M432.06,1080.85c0,34.24-24.28,61.99-54.24,61.99c-21.02,0-39.23-13.65-48.25-33.63
		c-30.72,6.46-71.18,4.52-113.34-7.32c-81.14-22.79-137.81-73.65-126.59-113.59c11.22-39.92,86.1-53.81,167.22-31.02
		c48.61,13.66,88.44,37.39,110.15,62.8c3.49-0.81,7.11-1.23,10.8-1.23C407.78,1018.86,432.06,1046.62,432.06,1080.85z"/>
</g>
<g id="Layer_7">
	<ellipse class="st15" cx="374.81" cy="841.6" rx="212.17" ry="187.53"/>
	<ellipse class="st12" cx="374.31" cy="841.6" rx="177.1" ry="156.54"/>
</g>
<g id="Layer_6">
	
		<ellipse transform="matrix(0.7632 -0.6461 0.6461 0.7632 -231.013 261.0207)" class="st15" cx="240.64" cy="445.71" rx="85.75" ry="69.52"/>
	
		<ellipse transform="matrix(0.6461 -0.7632 0.7632 0.6461 -156.3114 554.2925)" class="st15" cx="519.6" cy="445.71" rx="69.52" ry="85.75"/>
	
		<ellipse transform="matrix(0.7632 -0.6461 0.6461 0.7632 -234.2964 266.7984)" class="st10" cx="246.88" cy="453.08" rx="62.01" ry="50.28"/>
	
		<ellipse transform="matrix(0.6461 -0.7632 0.7632 0.6461 -163.9453 552.5652)" class="st10" cx="513.92" cy="453.08" rx="50.28" ry="62.01"/>
	<ellipse class="st15" cx="380.46" cy="580.76" rx="176.78" ry="157.96"/>
	
		<ellipse transform="matrix(0.7626 -0.6468 0.6468 0.7626 -300.5612 332.4843)" class="st10" cx="302.74" cy="575.77" rx="71.09" ry="67.54"/>
	
		<ellipse transform="matrix(0.6468 -0.7626 0.7626 0.6468 -275.2675 558.2834)" class="st10" cx="465.14" cy="576.34" rx="66.78" ry="71.09"/>
	<ellipse class="st12" cx="381.39" cy="642.15" rx="92.39" ry="84.64"/>
</g>
<g id="Layer_9">
	<path class="st17" d="M397.02,646.29l22.62-27.06c10.98-13.13,1.64-33.11-15.48-33.11h-45.24c-17.12,0-26.45,19.97-15.48,33.11
		l22.62,27.06C374.13,655.93,388.96,655.93,397.02,646.29z"/>
	<line class="st18" x1="381.99" y1="651.69" x2="381.99" y2="692.22"/>
	<path class="st19" d="M312.85,543.2c-4.49,1.11-18.77,5.22-29.8,19.07c-11.51,14.46-11.95,30.07-11.92,34.57"/>
	<path class="st19" d="M452.32,545.59c4.49,1.11,18.77,5.22,29.8,19.07c11.51,14.46,11.95,30.07,11.92,34.57"/>
	<line class="st18" x1="361.72" y1="692.22" x2="403.45" y2="692.22"/>
</g>
</svg>
