<?xml version="1.0" encoding="utf-8"?>
<!-- Generator: Adobe Illustrator 23.0.2, SVG Export Plug-In . SVG Version: 6.00 Build 0)  -->
<svg version="1.1" xmlns="http://www.w3.org/2000/svg" xmlns:xlink="http://www.w3.org/1999/xlink" x="0px" y="0px"
	 viewBox="0 0 750 1334" style="enable-background:new 0 0 750 1334;" xml:space="preserve">
<style type="text/css">
	.st0{display:none;}
	.st1{display:inline;}
	.st2{fill:#FFCC99;}
	.st3{fill:#CCCCFF;}
	.st4{fill:#D7D7FF;}
	.st5{fill:#E1E1FF;}
	.st6{fill:#EBEBFF;}
	.st7{fill:#F5F5FF;}
	.st8{display:inline;fill:#FFCC66;stroke:#FBDD3B;stroke-width:2;stroke-miterlimit:10;}
	.st9{display:inline;fill:#7F47DD;stroke:#BB83FF;stroke-width:2;stroke-miterlimit:10;}
	.st10{display:inline;fill:#CC6633;stroke:#FF6633;stroke-width:2;stroke-miterlimit:10;}
	.st11{display:inline;fill:#FFEE96;stroke:#FBDD3B;stroke-width:2;stroke-miterlimit:10;}
	.st12{display:inline;fill:#FFF4CD;stroke:#FBDD3B;stroke-width:2;stroke-miterlimit:10;}
	.st13{display:inline;fill:#CC99FF;stroke:#BB83FF;stroke-width:2;stroke-miterlimit:10;}
	.st14{display:inline;fill:#FFF4CD;stroke:#BB83FF;stroke-width:2;stroke-miterlimit:10;}
	.st15{display:inline;fill:#FF9966;stroke:#FF6633;stroke-width:2;stroke-miterlimit:10;}
	.st16{display:inline;fill:#FFF4CD;stroke:#FF6633;stroke-width:2;stroke-miterlimit:10;}
	.st17{fill:#FFCC66;}
	.st18{fill:none;stroke:#FFCC66;stroke-width:6;stroke-miterlimit:10;}
	.st19{fill:none;stroke:#FFF4CD;stroke-width:6;stroke-miterlimit:10;}
</style>
<g id="Layer_8" class="st0">
	<g id="Layer_1" class="st1">
		<rect class="st2" width="750" height="1334"/>
		<path class="st3" d="M698.45,852.98c0.03,0.48,0.05,0.96,0.05,1.45c-0.44,157.78-145,285.57-323.25,285.57
			S52.44,1012.21,52,854.43c0-0.48,0.01-0.97,0.05-1.45c1.09-16.34,2.99-34.31,5.78-53.66c18.14-125.62,88.88-328.39,193.09-476.61
			c34.17-48.09,106.13-126.33,106.13-126.33s26.76-9.78,36.4,0c35.76,36.31,71.96,78.24,106.13,126.33
			c118.98,167.47,174.96,351,193.09,476.61C695.46,818.67,697.37,836.64,698.45,852.98z"/>
	</g>
	<g id="Layer_11" class="st1">
	</g>
	<g id="Layer_12" class="st1">
	</g>
	<g id="Layer_2" class="st1">
		<path class="st4" d="M662.17,868.52c0.03,0.43,0.04,0.86,0.04,1.29C661.81,1009.7,533.64,1123,375.6,1123S89.39,1009.7,89,869.81
			c0-0.43,0.01-0.86,0.04-1.29c0.96-14.49,2.65-30.42,5.13-47.58c16.08-111.38,78.8-291.16,171.2-422.58
			c30.29-42.64,94.1-112.01,94.1-112.01s23.73-8.67,32.27,0c31.7,32.19,63.8,69.37,94.1,112.01
			c105.49,148.49,155.12,311.2,171.2,422.58C659.51,838.1,661.2,854.03,662.17,868.52z"/>
	</g>
	<g id="Layer_3" class="st1">
		<path class="st5" d="M621.33,888.85c0.02,0.37,0.04,0.73,0.04,1.1C621.03,1009.87,511.16,1107,375.69,1107
			S130.34,1009.87,130,889.95c0-0.37,0.01-0.73,0.04-1.1c0.83-12.42,2.27-26.08,4.39-40.79c13.79-95.47,67.55-249.59,146.76-362.25
			c25.97-36.55,80.66-96.01,80.66-96.01s20.34-7.44,27.67,0c27.18,27.6,54.69,59.47,80.66,96.01
			c90.43,127.29,132.97,266.77,146.76,362.25C619.06,862.77,620.51,876.44,621.33,888.85z"/>
		<path class="st5" d="M621.33,888.85c0.02,0.37,0.04,0.73,0.04,1.1C621.03,1009.87,511.16,1107,375.69,1107
			S130.34,1009.87,130,889.95c0-0.37,0.01-0.73,0.04-1.1c0.83-12.42,2.27-26.08,4.39-40.79c13.79-95.47,67.55-249.59,146.76-362.25
			c25.97-36.55,80.66-96.01,80.66-96.01s20.34-7.44,27.67,0c27.18,27.6,54.69,59.47,80.66,96.01
			c90.43,127.29,132.97,266.77,146.76,362.25C619.06,862.77,620.51,876.44,621.33,888.85z"/>
	</g>
	<g id="Layer_4" class="st1">
		<path class="st6" d="M590.28,897.4c0.02,0.32,0.03,0.64,0.03,0.96C590.01,1003.14,494.02,1088,375.66,1088
			S161.3,1003.14,161,898.37c0-0.32,0.01-0.64,0.03-0.96c0.72-10.85,1.99-22.78,3.84-35.64c12.04-83.42,59.02-218.07,128.22-316.49
			c22.69-31.93,70.47-83.89,70.47-83.89s17.77-6.5,24.17,0c23.75,24.11,47.79,51.95,70.47,83.89
			c79.01,111.21,116.18,233.08,128.22,316.49C588.29,874.62,589.56,886.56,590.28,897.4z"/>
	</g>
	<g id="Layer_5" class="st1">
		<ellipse class="st7" cx="375.5" cy="905" rx="183" ry="163.5"/>
	</g>
</g>
<g id="Layer_10" class="st0">
	
		<ellipse transform="matrix(0.3028 -0.9531 0.9531 0.3028 -578.2138 1135.6173)" class="st10" cx="487.06" cy="963" rx="67.51" ry="128.08"/>
	
		<ellipse transform="matrix(0.9531 -0.3028 0.3028 0.9531 -279.6599 122.1322)" class="st10" cx="254.06" cy="963" rx="128.08" ry="67.51"/>
	<path class="st10" d="M256.24,854.2c-20.63,31.41-46.23,54.5-68.92,64.53c-8.75,3.86-17.06,5.79-24.49,5.51
		c-8.02-2.79-16.89-8.65-25.72-16.95c-10.15-9.53-20.25-22.25-28.98-37.21c-23.25-39.84-27.9-80.42-10.4-90.63
		c13.64-7.97,36.73,4.88,57.27,29.81c2.84-5.15,5.95-10.31,9.32-15.43c34.67-52.79,83.35-82.07,108.73-65.4
		C298.43,745.11,290.9,801.41,256.24,854.2z"/>
	<path class="st10" d="M629.52,870.08c-23.25,39.85-56.29,63.87-73.79,53.66c-0.35-0.2-0.68-0.42-1.01-0.65
		c-25.37-5.72-57.07-31.38-81.71-68.89c-34.67-52.79-42.24-109.07-16.9-125.71c25.33-16.64,73.98,12.66,108.65,65.45
		c4.77,7.27,9.03,14.6,12.76,21.89c21.7-29.18,47.6-45.02,62.4-36.38C657.42,789.66,652.77,830.24,629.52,870.08z"/>
	<path class="st10" d="M160.49,784.68c-2.67,4.09-22.1,33.83-49.14,25.05c-15.22-4.94-25.32-18.35-26.79-33.32
		c-3.28-7.52-4.33-21.87-2.25-37.99c2.98-23.1,11.25-41.07,18.48-40.15c6.65,0.86,10.1,17.43,8.29,38.08
		c8.13-3.22,17.39-3.72,26.36-0.81c4.9,1.59,9.77,4.76,10.3,5.11c8.88,6.01,15.55,15.45,13.92,17.47c-0.32,0.02-0.61,0.14-0.87,0.33
		c-1.72-0.08-5.51-2.34-12.75-3.7c-6.87-1.27-13.73-2.55-19.28,1.1c-6.15,4.05-9.84,13.61-6.82,17.76
		c4.91,6.74,29.68,2.36,35.66-9.45c1-1.99,1.78-4.78,3.19-5.71c0.39,0.01,0.68-0.08,0.87-0.33c2.35-0.16,4.87,4.46,5.76,8.18
		C167.26,774.12,162.65,781.37,160.49,784.68z"/>
	<path class="st10" d="M578.59,789.68c2.67,4.09,22.1,33.83,49.14,25.05c15.22-4.94,25.32-18.35,26.79-33.32
		c3.28-7.52,4.33-21.87,2.25-37.99c-2.98-23.1-11.25-41.07-18.48-40.15c-6.65,0.86-10.1,17.43-8.29,38.08
		c-8.13-3.22-17.39-3.72-26.36-0.81c-4.9,1.59-9.77,4.76-10.3,5.11c-8.88,6.01-15.55,15.45-13.92,17.47
		c0.32,0.02,0.61,0.14,0.87,0.33c1.72-0.08,5.51-2.34,12.75-3.7c6.87-1.27,13.73-2.55,19.28,1.1c6.15,4.05,9.84,13.61,6.82,17.76
		c-4.91,6.74-29.68,2.36-35.66-9.45c-1-1.99-1.78-4.78-3.19-5.71c-0.39,0.01-0.68-0.08-0.87-0.33c-2.35-0.16-4.87,4.46-5.76,8.18
		C571.81,779.12,576.42,786.37,578.59,789.68z"/>
	
		<ellipse transform="matrix(0.9627 -0.2705 0.2705 0.9627 -257.0725 169.8124)" class="st10" cx="487.5" cy="1017.5" rx="128" ry="63"/>
	<path class="st10" d="M418.5,1060.5c0,28.72-20.37,52-45.5,52c-17.63,0-32.91-11.45-40.47-28.21c-25.77,5.42-59.71,3.79-95.07-6.14
		c-68.06-19.12-115.6-61.78-106.19-95.28c9.41-33.49,72.22-45.14,140.27-26.02c40.78,11.46,74.19,31.36,92.4,52.68
		c2.93-0.68,5.96-1.03,9.06-1.03C398.13,1008.5,418.5,1031.78,418.5,1060.5z"/>
</g>
<g id="Layer_7" class="st0">
	<ellipse class="st15" cx="370.47" cy="859.81" rx="177.97" ry="157.31"/>
	<ellipse class="st16" cx="370.06" cy="859.81" rx="148.56" ry="131.31"/>
</g>
<g id="Layer_6" class="st0">
	
		<ellipse transform="matrix(0.7632 -0.6461 0.6461 0.7632 -279.907 291.6102)" class="st15" cx="257.93" cy="527.72" rx="71.93" ry="58.32"/>
	
		<ellipse transform="matrix(0.6461 -0.7632 0.7632 0.6461 -228.692 562.1961)" class="st15" cx="491.93" cy="527.72" rx="58.32" ry="71.93"/>
	
		<ellipse transform="matrix(0.7632 -0.6461 0.6461 0.7632 -282.6612 296.4568)" class="st10" cx="263.17" cy="533.9" rx="52.02" ry="42.18"/>
	
		<ellipse transform="matrix(0.6461 -0.7632 0.7632 0.6461 -235.0955 560.7472)" class="st10" cx="487.17" cy="533.9" rx="42.18" ry="52.02"/>
	<ellipse class="st15" cx="375.22" cy="641" rx="148.29" ry="132.5"/>
	
		<ellipse transform="matrix(0.7626 -0.6468 0.6468 0.7626 -338.32 351.6852)" class="st10" cx="310.02" cy="636.81" rx="59.63" ry="56.66"/>
	
		<ellipse transform="matrix(0.6468 -0.7626 0.7626 0.6468 -328.4255 565.4049)" class="st10" cx="446.25" cy="637.3" rx="56.02" ry="59.63"/>
	<ellipse class="st16" cx="376" cy="692.5" rx="77.5" ry="71"/>
</g>
<g id="Layer_9">
	<path class="st17" d="M391.6,692.99l12.02-14.38c10.98-13.13,1.64-33.11-15.48-33.11h-24.04c-17.12,0-26.45,19.97-15.48,33.11
		l12.02,14.38C368.71,702.63,383.54,702.63,391.6,692.99z"/>
	<line class="st18" x1="376.5" y1="700.5" x2="376.5" y2="734.5"/>
	<path class="st19" d="M324.71,647.83c-1.2-3.69-5.51-15.39-17.77-23.78c-12.8-8.76-25.88-8.18-29.65-7.88"/>
	<path class="st19" d="M430.69,651.74c0.89-3.77,4.21-15.79,15.73-25.17c12.03-9.79,25.12-10.29,28.89-10.31"/>
	<path class="st18" d="M358.5,741.71c1.08-1.07,6.83-6.53,17.09-7.52c12.54-1.2,21.02,5.31,21.91,6.02"/>
</g>
</svg>
