<?xml version="1.0" encoding="utf-8"?>
<!-- Generator: Adobe Illustrator 23.0.2, SVG Export Plug-In . SVG Version: 6.00 Build 0)  -->
<svg version="1.1" xmlns="http://www.w3.org/2000/svg" xmlns:xlink="http://www.w3.org/1999/xlink" x="0px" y="0px"
	 viewBox="0 0 750 1334" style="enable-background:new 0 0 750 1334;" xml:space="preserve">
<style type="text/css">
	.st0{fill:#FFCC99;}
	.st1{fill:#CCCCFF;}
	.st2{fill:#D7D7FF;}
	.st3{fill:#E1E1FF;}
	.st4{fill:#EBEBFF;}
	.st5{fill:#F5F5FF;}
	.st6{display:none;}
	.st7{display:inline;fill:#FFCC66;stroke:#FBDD3B;stroke-width:2;stroke-miterlimit:10;}
	.st8{display:inline;fill:#7F47DD;stroke:#BB83FF;stroke-width:2;stroke-miterlimit:10;}
	.st9{display:inline;fill:#CC6633;stroke:#FF6633;stroke-width:2;stroke-miterlimit:10;}
	.st10{display:inline;fill:#FFEE96;stroke:#FBDD3B;stroke-width:2;stroke-miterlimit:10;}
	.st11{display:inline;fill:#FFF4CD;stroke:#FBDD3B;stroke-width:2;stroke-miterlimit:10;}
	.st12{display:inline;fill:#CC99FF;stroke:#BB83FF;stroke-width:2;stroke-miterlimit:10;}
	.st13{display:inline;fill:#FFF4CD;stroke:#BB83FF;stroke-width:2;stroke-miterlimit:10;}
	.st14{display:inline;fill:#FF9966;stroke:#FF6633;stroke-width:2;stroke-miterlimit:10;}
	.st15{display:inline;fill:#FFF4CD;stroke:#FF6633;stroke-width:2;stroke-miterlimit:10;}
	.st16{display:inline;fill:#FFCC66;}
	.st17{display:inline;fill:none;stroke:#FFCC66;stroke-width:6;stroke-miterlimit:10;}
	.st18{display:inline;fill:none;stroke:#FFF4CD;stroke-width:6;stroke-miterlimit:10;}
</style>
<g id="Layer_8">
	<g id="Layer_1">
		<rect x="0.5" y="0.5" class="st0" width="750" height="1334"/>
		<path class="st1" d="M698.95,853.48c0.03,0.48,0.05,0.96,0.05,1.45c-0.44,157.78-145,285.57-323.25,285.57
			S52.94,1012.71,52.5,854.93c0-0.48,0.01-0.97,0.05-1.45c1.09-16.34,2.99-34.31,5.78-53.66
			c18.14-125.62,88.88-328.39,193.09-476.61c34.17-48.09,106.13-126.33,106.13-126.33s26.76-9.78,36.4,0
			c35.76,36.31,71.96,78.24,106.13,126.33c118.98,167.47,174.96,351,193.09,476.61C695.96,819.17,697.87,837.14,698.95,853.48z"/>
		<rect x="0.5" y="0.5" class="st0" width="750" height="1334"/>
		<path class="st1" d="M698.95,853.48c0.03,0.48,0.05,0.96,0.05,1.45c-0.44,157.78-145,285.57-323.25,285.57
			S52.94,1012.71,52.5,854.93c0-0.48,0.01-0.97,0.05-1.45c1.09-16.34,2.99-34.31,5.78-53.66
			c18.14-125.62,88.88-328.39,193.09-476.61c34.17-48.09,106.13-126.33,106.13-126.33s26.76-9.78,36.4,0
			c35.76,36.31,71.96,78.24,106.13,126.33c118.98,167.47,174.96,351,193.09,476.61C695.96,819.17,697.87,837.14,698.95,853.48z"/>
	</g>
	<g id="Layer_11">
	</g>
	<g id="Layer_12">
	</g>
	<g id="Layer_2">
		<path class="st2" d="M662.67,869.02c0.03,0.43,0.04,0.86,0.04,1.29c-0.39,139.89-128.57,253.19-286.6,253.19
			S89.89,1010.2,89.5,870.31c0-0.43,0.01-0.86,0.04-1.29c0.96-14.49,2.65-30.42,5.13-47.58c16.08-111.38,78.8-291.16,171.2-422.58
			c30.29-42.64,94.1-112.01,94.1-112.01s23.73-8.67,32.27,0c31.7,32.19,63.8,69.37,94.1,112.01
			c105.49,148.49,155.12,311.2,171.2,422.58C660.01,838.6,661.7,854.53,662.67,869.02z"/>
		<path class="st2" d="M662.67,869.02c0.03,0.43,0.04,0.86,0.04,1.29c-0.39,139.89-128.57,253.19-286.6,253.19
			S89.89,1010.2,89.5,870.31c0-0.43,0.01-0.86,0.04-1.29c0.96-14.49,2.65-30.42,5.13-47.58c16.08-111.38,78.8-291.16,171.2-422.58
			c30.29-42.64,94.1-112.01,94.1-112.01s23.73-8.67,32.27,0c31.7,32.19,63.8,69.37,94.1,112.01
			c105.49,148.49,155.12,311.2,171.2,422.58C660.01,838.6,661.7,854.53,662.67,869.02z"/>
	</g>
	<g id="Layer_3">
		<path class="st3" d="M621.83,889.35c0.02,0.37,0.04,0.73,0.04,1.1c-0.34,119.92-110.21,217.05-245.68,217.05
			s-245.35-97.13-245.68-217.05c0-0.37,0.01-0.73,0.04-1.1c0.83-12.42,2.27-26.08,4.39-40.79
			c13.79-95.47,67.55-249.59,146.76-362.25c25.97-36.55,80.66-96.01,80.66-96.01s20.34-7.44,27.67,0
			c27.18,27.6,54.69,59.47,80.66,96.01c90.43,127.29,132.97,266.77,146.76,362.25C619.56,863.27,621.01,876.94,621.83,889.35z"/>
		<path class="st3" d="M621.83,889.35c0.02,0.37,0.04,0.73,0.04,1.1c-0.34,119.92-110.21,217.05-245.68,217.05
			s-245.35-97.13-245.68-217.05c0-0.37,0.01-0.73,0.04-1.1c0.83-12.42,2.27-26.08,4.39-40.79
			c13.79-95.47,67.55-249.59,146.76-362.25c25.97-36.55,80.66-96.01,80.66-96.01s20.34-7.44,27.67,0
			c27.18,27.6,54.69,59.47,80.66,96.01c90.43,127.29,132.97,266.77,146.76,362.25C619.56,863.27,621.01,876.94,621.83,889.35z"/>
		<path class="st3" d="M621.83,889.35c0.02,0.37,0.04,0.73,0.04,1.1c-0.34,119.92-110.21,217.05-245.68,217.05
			s-245.35-97.13-245.68-217.05c0-0.37,0.01-0.73,0.04-1.1c0.83-12.42,2.27-26.08,4.39-40.79
			c13.79-95.47,67.55-249.59,146.76-362.25c25.97-36.55,80.66-96.01,80.66-96.01s20.34-7.44,27.67,0
			c27.18,27.6,54.69,59.47,80.66,96.01c90.43,127.29,132.97,266.77,146.76,362.25C619.56,863.27,621.01,876.94,621.83,889.35z"/>
	</g>
	<g id="Layer_4">
		<path class="st4" d="M590.78,897.9c0.02,0.32,0.03,0.64,0.03,0.96c-0.29,104.77-96.29,189.63-214.65,189.63
			S161.8,1003.64,161.5,898.87c0-0.32,0.01-0.64,0.03-0.96c0.72-10.85,1.99-22.78,3.84-35.64
			c12.04-83.42,59.02-218.07,128.22-316.49c22.69-31.93,70.47-83.89,70.47-83.89s17.77-6.5,24.17,0
			c23.75,24.11,47.79,51.95,70.47,83.89c79.01,111.21,116.18,233.08,128.22,316.49C588.79,875.12,590.06,887.06,590.78,897.9z"/>
		<path class="st4" d="M590.78,897.9c0.02,0.32,0.03,0.64,0.03,0.96c-0.29,104.77-96.29,189.63-214.65,189.63
			S161.8,1003.64,161.5,898.87c0-0.32,0.01-0.64,0.03-0.96c0.72-10.85,1.99-22.78,3.84-35.64
			c12.04-83.42,59.02-218.07,128.22-316.49c22.69-31.93,70.47-83.89,70.47-83.89s17.77-6.5,24.17,0
			c23.75,24.11,47.79,51.95,70.47,83.89c79.01,111.21,116.18,233.08,128.22,316.49C588.79,875.12,590.06,887.06,590.78,897.9z"/>
	</g>
	<g id="Layer_5">
		<ellipse class="st5" cx="376" cy="905.5" rx="183" ry="163.5"/>
		<ellipse class="st5" cx="376" cy="905.5" rx="183" ry="163.5"/>
	</g>
</g>
<g id="Layer_10" class="st6">
</g>
<g id="Layer_7" class="st6">
</g>
<g id="Layer_6" class="st6">
</g>
<g id="Layer_9" class="st6">
</g>
</svg>
