<?xml version="1.0" encoding="utf-8"?>
<!-- Generator: Adobe Illustrator 23.0.2, SVG Export Plug-In . SVG Version: 6.00 Build 0)  -->
<svg version="1.1" xmlns="http://www.w3.org/2000/svg" xmlns:xlink="http://www.w3.org/1999/xlink" x="0px" y="0px"
	 viewBox="0 0 750 1334" style="enable-background:new 0 0 750 1334;" xml:space="preserve">
<style type="text/css">
	.st0{display:none;}
	.st1{display:inline;}
	.st2{fill:#FFCC99;}
	.st3{fill:#CCCCFF;}
	.st4{fill:#D7D7FF;}
	.st5{fill:#E1E1FF;}
	.st6{fill:#EBEBFF;}
	.st7{fill:#F5F5FF;}
	.st8{fill:#FFCC66;stroke:#FBDD3B;stroke-width:2;stroke-miterlimit:10;}
	.st9{fill:#7F47DD;stroke:#BB83FF;stroke-width:2;stroke-miterlimit:10;}
	.st10{fill:#CC6633;stroke:#FF6633;stroke-width:2;stroke-miterlimit:10;}
	.st11{fill:#FFEE96;stroke:#FBDD3B;stroke-width:2;stroke-miterlimit:10;}
	.st12{fill:#FFF4CD;stroke:#FBDD3B;stroke-width:2;stroke-miterlimit:10;}
	.st13{fill:#CC99FF;stroke:#BB83FF;stroke-width:2;stroke-miterlimit:10;}
	.st14{fill:#FFF4CD;stroke:#BB83FF;stroke-width:2;stroke-miterlimit:10;}
	.st15{fill:#FF9966;stroke:#FF6633;stroke-width:2;stroke-miterlimit:10;}
	.st16{fill:#FFF4CD;stroke:#FF6633;stroke-width:2;stroke-miterlimit:10;}
	.st17{fill:#FFCC66;}
	.st18{fill:none;stroke:#FFCC66;stroke-width:6;stroke-miterlimit:10;}
	.st19{fill:none;stroke:#FFF4CD;stroke-width:6;stroke-miterlimit:10;}
</style>
<g id="Layer_8" class="st0">
	<g id="Layer_1" class="st1">
		<rect x="-0.5" y="0.5" class="st2" width="750" height="1334"/>
		<path class="st3" d="M697.95,853.48c0.03,0.48,0.05,0.96,0.05,1.45c-0.44,157.78-145,285.57-323.25,285.57
			S51.94,1012.71,51.5,854.93c0-0.48,0.01-0.97,0.05-1.45c1.09-16.34,2.99-34.31,5.78-53.66
			c18.14-125.62,88.88-328.39,193.09-476.61c34.17-48.09,106.13-126.33,106.13-126.33s26.76-9.78,36.4,0
			c35.76,36.31,71.96,78.24,106.13,126.33c118.98,167.47,174.96,351,193.09,476.61C694.96,819.17,696.87,837.14,697.95,853.48z"/>
	</g>
	<g id="Layer_11" class="st1">
	</g>
	<g id="Layer_12" class="st1">
	</g>
	<g id="Layer_2" class="st1">
		<path class="st4" d="M661.67,869.02c0.03,0.43,0.04,0.86,0.04,1.29c-0.39,139.89-128.57,253.19-286.6,253.19
			S88.89,1010.2,88.5,870.31c0-0.43,0.01-0.86,0.04-1.29c0.96-14.49,2.65-30.42,5.13-47.58c16.08-111.38,78.8-291.16,171.2-422.58
			c30.29-42.64,94.1-112.01,94.1-112.01s23.73-8.67,32.27,0c31.7,32.19,63.8,69.37,94.1,112.01
			c105.49,148.49,155.12,311.2,171.2,422.58C659.01,838.6,660.7,854.53,661.67,869.02z"/>
	</g>
	<g id="Layer_3" class="st1">
		<path class="st5" d="M620.83,889.35c0.02,0.37,0.04,0.73,0.04,1.1c-0.34,119.92-110.21,217.05-245.68,217.05
			s-245.35-97.13-245.68-217.05c0-0.37,0.01-0.73,0.04-1.1c0.83-12.42,2.27-26.08,4.39-40.79
			c13.79-95.47,67.55-249.59,146.76-362.25c25.97-36.55,80.66-96.01,80.66-96.01s20.34-7.44,27.67,0
			c27.18,27.6,54.69,59.47,80.66,96.01c90.43,127.29,132.97,266.77,146.76,362.25C618.56,863.27,620.01,876.94,620.83,889.35z"/>
		<path class="st5" d="M620.83,889.35c0.02,0.37,0.04,0.73,0.04,1.1c-0.34,119.92-110.21,217.05-245.68,217.05
			s-245.35-97.13-245.68-217.05c0-0.37,0.01-0.73,0.04-1.1c0.83-12.42,2.27-26.08,4.39-40.79
			c13.79-95.47,67.55-249.59,146.76-362.25c25.97-36.55,80.66-96.01,80.66-96.01s20.34-7.44,27.67,0
			c27.18,27.6,54.69,59.47,80.66,96.01c90.43,127.29,132.97,266.77,146.76,362.25C618.56,863.27,620.01,876.94,620.83,889.35z"/>
	</g>
	<g id="Layer_4" class="st1">
		<path class="st6" d="M589.78,897.9c0.02,0.32,0.03,0.64,0.03,0.96c-0.29,104.77-96.29,189.63-214.65,189.63
			S160.8,1003.64,160.5,898.87c0-0.32,0.01-0.64,0.03-0.96c0.72-10.85,1.99-22.78,3.84-35.64
			c12.04-83.42,59.02-218.07,128.22-316.49c22.69-31.93,70.47-83.89,70.47-83.89s17.77-6.5,24.17,0
			c23.75,24.11,47.79,51.95,70.47,83.89c79.01,111.21,116.18,233.08,128.22,316.49C587.79,875.12,589.06,887.06,589.78,897.9z"/>
	</g>
	<g id="Layer_5" class="st1">
		<ellipse class="st7" cx="375" cy="905.5" rx="183" ry="163.5"/>
	</g>
</g>
<g id="Layer_10">
	
		<ellipse transform="matrix(0.3028 -0.9531 0.9531 0.3028 -579.0389 1135.4894)" class="st8" cx="486.56" cy="963.5" rx="67.51" ry="128.08"/>
	
		<ellipse transform="matrix(0.9531 -0.3028 0.3028 0.9531 -279.8347 122.0043)" class="st8" cx="253.56" cy="963.5" rx="128.08" ry="67.51"/>
	<path class="st8" d="M255.74,854.7c-20.63,31.41-46.23,54.5-68.92,64.53c-8.75,3.86-17.06,5.79-24.49,5.51
		c-8.02-2.79-16.89-8.65-25.72-16.95c-10.15-9.53-20.25-22.25-28.98-37.21c-23.25-39.84-27.9-80.42-10.4-90.63
		c13.64-7.97,36.73,4.88,57.27,29.81c2.84-5.15,5.95-10.31,9.32-15.43c34.67-52.79,83.35-82.07,108.73-65.4
		C297.93,745.61,290.4,801.91,255.74,854.7z"/>
	<path class="st8" d="M629.02,870.58c-23.25,39.85-56.29,63.87-73.79,53.66c-0.35-0.2-0.68-0.42-1.01-0.65
		c-25.37-5.72-57.07-31.38-81.71-68.89c-34.67-52.79-42.24-109.07-16.9-125.71c25.33-16.64,73.98,12.66,108.65,65.45
		c4.77,7.27,9.03,14.6,12.76,21.89c21.7-29.18,47.6-45.02,62.4-36.38C656.92,790.16,652.27,830.74,629.02,870.58z"/>
	<path class="st8" d="M159.99,785.18c-2.67,4.09-22.1,33.83-49.14,25.05c-15.22-4.94-25.32-18.35-26.79-33.32
		c-3.28-7.52-4.33-21.87-2.25-37.99c2.98-23.1,11.25-41.07,18.48-40.15c6.65,0.86,10.1,17.43,8.29,38.08
		c8.13-3.22,17.39-3.72,26.36-0.81c4.9,1.59,9.77,4.76,10.3,5.11c8.88,6.01,15.55,15.45,13.92,17.47c-0.32,0.02-0.61,0.14-0.87,0.33
		c-1.72-0.08-5.51-2.34-12.75-3.7c-6.87-1.27-13.73-2.55-19.28,1.1c-6.15,4.05-9.84,13.61-6.82,17.76
		c4.91,6.74,29.68,2.36,35.66-9.45c1-1.99,1.78-4.78,3.19-5.71c0.39,0.01,0.68-0.08,0.87-0.33c2.35-0.16,4.87,4.46,5.76,8.18
		C166.76,774.62,162.15,781.87,159.99,785.18z"/>
	<path class="st8" d="M578.09,790.18c2.67,4.09,22.1,33.83,49.14,25.05c15.22-4.94,25.32-18.35,26.79-33.32
		c3.28-7.52,4.33-21.87,2.25-37.99c-2.98-23.1-11.25-41.07-18.48-40.15c-6.65,0.86-10.1,17.43-8.29,38.08
		c-8.13-3.22-17.39-3.72-26.36-0.81c-4.9,1.59-9.77,4.76-10.3,5.11c-8.88,6.01-15.55,15.45-13.92,17.47
		c0.32,0.02,0.61,0.14,0.87,0.33c1.72-0.08,5.51-2.34,12.75-3.7c6.87-1.27,13.73-2.55,19.28,1.1c6.15,4.05,9.84,13.61,6.82,17.76
		c-4.91,6.74-29.68,2.36-35.66-9.45c-1-1.99-1.78-4.78-3.19-5.71c-0.39,0.01-0.68-0.08-0.87-0.33c-2.35-0.16-4.87,4.46-5.76,8.18
		C571.31,779.62,575.92,786.87,578.09,790.18z"/>
	<ellipse transform="matrix(0.9627 -0.2705 0.2705 0.9627 -257.2264 169.6958)" class="st8" cx="487" cy="1018" rx="128" ry="63"/>
	<ellipse class="st8" cx="269.5" cy="846.5" rx="36.5" ry="45.5"/>
	<ellipse class="st8" cx="269.5" cy="846.5" rx="36.5" ry="45.5"/>
	<ellipse class="st8" cx="269.5" cy="847" rx="36.5" ry="52"/>
	<path class="st8" d="M418,1061c0,28.72-20.37,52-45.5,52c-17.63,0-32.91-11.45-40.47-28.21c-25.77,5.42-59.71,3.79-95.07-6.14
		c-68.06-19.12-115.6-61.78-106.19-95.28c9.41-33.49,72.22-45.14,140.27-26.02c40.78,11.46,74.19,31.36,92.4,52.68
		c2.93-0.68,5.96-1.03,9.06-1.03C397.63,1009,418,1032.28,418,1061z"/>
	
		<ellipse transform="matrix(0.3028 -0.9531 0.9531 0.3028 -579.0389 1135.4894)" class="st8" cx="486.56" cy="963.5" rx="67.51" ry="128.08"/>
	
		<ellipse transform="matrix(0.9531 -0.3028 0.3028 0.9531 -279.8347 122.0043)" class="st8" cx="253.56" cy="963.5" rx="128.08" ry="67.51"/>
	<path class="st8" d="M255.74,854.7c-20.63,31.41-46.23,54.5-68.92,64.53c-8.75,3.86-17.06,5.79-24.49,5.51
		c-8.02-2.79-16.89-8.65-25.72-16.95c-10.15-9.53-20.25-22.25-28.98-37.21c-23.25-39.84-27.9-80.42-10.4-90.63
		c13.64-7.97,36.73,4.88,57.27,29.81c2.84-5.15,5.95-10.31,9.32-15.43c34.67-52.79,83.35-82.07,108.73-65.4
		C297.93,745.61,290.4,801.91,255.74,854.7z"/>
	<path class="st8" d="M629.02,870.58c-23.25,39.85-56.29,63.87-73.79,53.66c-0.35-0.2-0.68-0.42-1.01-0.65
		c-25.37-5.72-57.07-31.38-81.71-68.89c-34.67-52.79-42.24-109.07-16.9-125.71c25.33-16.64,73.98,12.66,108.65,65.45
		c4.77,7.27,9.03,14.6,12.76,21.89c21.7-29.18,47.6-45.02,62.4-36.38C656.92,790.16,652.27,830.74,629.02,870.58z"/>
	<path class="st8" d="M159.99,785.18c-2.67,4.09-22.1,33.83-49.14,25.05c-15.22-4.94-25.32-18.35-26.79-33.32
		c-3.28-7.52-4.33-21.87-2.25-37.99c2.98-23.1,11.25-41.07,18.48-40.15c6.65,0.86,10.1,17.43,8.29,38.08
		c8.13-3.22,17.39-3.72,26.36-0.81c4.9,1.59,9.77,4.76,10.3,5.11c8.88,6.01,15.55,15.45,13.92,17.47c-0.32,0.02-0.61,0.14-0.87,0.33
		c-1.72-0.08-5.51-2.34-12.75-3.7c-6.87-1.27-13.73-2.55-19.28,1.1c-6.15,4.05-9.84,13.61-6.82,17.76
		c4.91,6.74,29.68,2.36,35.66-9.45c1-1.99,1.78-4.78,3.19-5.71c0.39,0.01,0.68-0.08,0.87-0.33c2.35-0.16,4.87,4.46,5.76,8.18
		C166.76,774.62,162.15,781.87,159.99,785.18z"/>
	<path class="st8" d="M578.09,790.18c2.67,4.09,22.1,33.83,49.14,25.05c15.22-4.94,25.32-18.35,26.79-33.32
		c3.28-7.52,4.33-21.87,2.25-37.99c-2.98-23.1-11.25-41.07-18.48-40.15c-6.65,0.86-10.1,17.43-8.29,38.08
		c-8.13-3.22-17.39-3.72-26.36-0.81c-4.9,1.59-9.77,4.76-10.3,5.11c-8.88,6.01-15.55,15.45-13.92,17.47
		c0.32,0.02,0.61,0.14,0.87,0.33c1.72-0.08,5.51-2.34,12.75-3.7c6.87-1.27,13.73-2.55,19.28,1.1c6.15,4.05,9.84,13.61,6.82,17.76
		c-4.91,6.74-29.68,2.36-35.66-9.45c-1-1.99-1.78-4.78-3.19-5.71c-0.39,0.01-0.68-0.08-0.87-0.33c-2.35-0.16-4.87,4.46-5.76,8.18
		C571.31,779.62,575.92,786.87,578.09,790.18z"/>
	<ellipse transform="matrix(0.9627 -0.2705 0.2705 0.9627 -257.2264 169.6958)" class="st8" cx="487" cy="1018" rx="128" ry="63"/>
	<path class="st8" d="M418,1061c0,28.72-20.37,52-45.5,52c-17.63,0-32.91-11.45-40.47-28.21c-25.77,5.42-59.71,3.79-95.07-6.14
		c-68.06-19.12-115.6-61.78-106.19-95.28c9.41-33.49,72.22-45.14,140.27-26.02c40.78,11.46,74.19,31.36,92.4,52.68
		c2.93-0.68,5.96-1.03,9.06-1.03C397.63,1009,418,1032.28,418,1061z"/>
</g>
<g id="Layer_7">
	<ellipse class="st11" cx="369.97" cy="860.31" rx="177.97" ry="157.31"/>
	<ellipse class="st12" cx="369.56" cy="860.31" rx="148.56" ry="131.31"/>
	<ellipse class="st11" cx="369.97" cy="860.31" rx="177.97" ry="157.31"/>
	<ellipse class="st12" cx="369.56" cy="860.31" rx="148.56" ry="131.31"/>
</g>
<g id="Layer_6">
	
		<ellipse transform="matrix(0.7632 -0.6461 0.6461 0.7632 -280.3484 291.4055)" class="st11" cx="257.43" cy="528.22" rx="71.93" ry="58.32"/>
	
		<ellipse transform="matrix(0.6461 -0.7632 0.7632 0.6461 -229.2505 561.9914)" class="st11" cx="491.43" cy="528.22" rx="58.32" ry="71.93"/>
	
		<ellipse transform="matrix(0.7632 -0.6461 0.6461 0.7632 -283.1026 296.2521)" class="st8" cx="262.67" cy="534.4" rx="52.02" ry="42.18"/>
	
		<ellipse transform="matrix(0.6461 -0.7632 0.7632 0.6461 -235.654 560.5425)" class="st8" cx="486.67" cy="534.4" rx="42.18" ry="52.02"/>
	<ellipse class="st11" cx="374.72" cy="641.5" rx="148.29" ry="132.5"/>
	
		<ellipse transform="matrix(0.7626 -0.6468 0.6468 0.7626 -338.7621 351.4805)" class="st8" cx="309.52" cy="637.31" rx="59.63" ry="56.66"/>
	
		<ellipse transform="matrix(0.6468 -0.7626 0.7626 0.6468 -328.9834 565.2002)" class="st8" cx="445.75" cy="637.8" rx="56.02" ry="59.63"/>
	<ellipse class="st12" cx="375.5" cy="693" rx="77.5" ry="71"/>
	
		<ellipse transform="matrix(0.7632 -0.6461 0.6461 0.7632 -280.3484 291.4055)" class="st11" cx="257.43" cy="528.22" rx="71.93" ry="58.32"/>
	
		<ellipse transform="matrix(0.6461 -0.7632 0.7632 0.6461 -229.2505 561.9914)" class="st11" cx="491.43" cy="528.22" rx="58.32" ry="71.93"/>
	
		<ellipse transform="matrix(0.7632 -0.6461 0.6461 0.7632 -283.1026 296.2521)" class="st8" cx="262.67" cy="534.4" rx="52.02" ry="42.18"/>
	
		<ellipse transform="matrix(0.6461 -0.7632 0.7632 0.6461 -235.654 560.5425)" class="st8" cx="486.67" cy="534.4" rx="42.18" ry="52.02"/>
	<ellipse class="st11" cx="374.72" cy="641.5" rx="148.29" ry="132.5"/>
	
		<ellipse transform="matrix(0.7626 -0.6468 0.6468 0.7626 -338.7621 351.4805)" class="st8" cx="309.52" cy="637.31" rx="59.63" ry="56.66"/>
	
		<ellipse transform="matrix(0.6468 -0.7626 0.7626 0.6468 -328.9834 565.2002)" class="st8" cx="445.75" cy="637.8" rx="56.02" ry="59.63"/>
	<ellipse class="st12" cx="375.5" cy="693" rx="77.5" ry="71"/>
</g>
<g id="Layer_9">
	<path class="st17" d="M391.1,693.49l12.02-14.38c10.98-13.13,1.64-33.11-15.48-33.11h-24.04c-17.12,0-26.45,19.97-15.48,33.11
		l12.02,14.38C368.21,703.13,383.04,703.13,391.1,693.49z"/>
	<line class="st18" x1="376" y1="701" x2="376" y2="735"/>
	<line class="st18" x1="359" y1="735" x2="394" y2="735"/>
	<path class="st19" d="M318,610c-3.76,0.93-15.75,4.38-25,16c-9.66,12.13-10.03,25.22-10,29"/>
	<path class="st19" d="M435,612c3.76,0.93,15.75,4.38,25,16c9.66,12.13,10.03,25.22,10,29"/>
	<path class="st17" d="M391.1,693.49l12.02-14.38c10.98-13.13,1.64-33.11-15.48-33.11h-24.04c-17.12,0-26.45,19.97-15.48,33.11
		l12.02,14.38C368.21,703.13,383.04,703.13,391.1,693.49z"/>
	<line class="st18" x1="376" y1="701" x2="376" y2="735"/>
	<path class="st19" d="M318,610c-3.76,0.93-15.75,4.38-25,16c-9.66,12.13-10.03,25.22-10,29"/>
	<path class="st19" d="M435,612c3.76,0.93,15.75,4.38,25,16c9.66,12.13,10.03,25.22,10,29"/>
	<line class="st18" x1="359" y1="735" x2="394" y2="735"/>
</g>
</svg>
